<svg width="638" height="506" viewBox="0 0 638 506" fill="none" xmlns="http://www.w3.org/2000/svg">
<g clip-path="url(#clip0_1305_738)">
<path d="M175.662 182.319C174.715 182.319 173.782 182.409 172.874 182.562C172.874 182.485 172.874 182.396 172.874 182.319C172.874 164.702 158.587 150.422 140.962 150.422C137.547 150.422 134.26 150.959 131.177 151.956C125.345 131.514 106.518 116.556 84.1985 116.556C58.6179 116.556 37.6291 136.218 35.5187 161.237C32.8839 160.381 30.07 159.921 27.1538 159.921C12.1508 159.921 0 172.079 0 187.062C0 202.045 12.1636 214.203 27.1538 214.203H175.662C184.474 214.203 191.611 207.07 191.611 198.261C191.611 189.453 184.474 182.319 175.662 182.319Z" fill="#C2FCFF"/>
<path d="M621.685 381.552C620.739 381.552 619.805 381.641 618.897 381.795C618.897 381.718 618.897 381.629 618.897 381.552C618.897 363.935 604.61 349.655 586.985 349.655C583.57 349.655 580.283 350.192 577.2 351.189C571.368 330.747 552.541 315.789 530.222 315.789C504.641 315.789 483.652 335.451 481.542 360.47C478.907 359.614 476.093 359.154 473.177 359.154C458.174 359.154 446.023 371.312 446.023 386.295C446.023 401.278 458.187 413.436 473.177 413.436H621.685C630.498 413.436 637.635 406.303 637.635 397.494C637.635 388.686 630.498 381.552 621.685 381.552Z" fill="#C2FCFF"/>
<path d="M566.597 108.821C566.073 108.821 565.561 108.872 565.062 108.962C565.062 108.911 565.062 108.872 565.062 108.821C565.062 99.1562 557.222 91.3321 547.565 91.3321C545.698 91.3321 543.882 91.6262 542.193 92.1759C538.996 80.9639 528.674 72.7563 516.434 72.7563C502.403 72.7563 490.891 83.5336 489.74 97.2641C488.295 96.7911 486.747 96.5354 485.149 96.5354C476.924 96.5354 470.261 103.196 470.261 111.416C470.261 119.637 476.924 126.298 485.149 126.298H566.584C571.419 126.298 575.333 122.386 575.333 117.553C575.333 112.721 571.419 108.808 566.584 108.808L566.597 108.821Z" fill="#C2FCFF"/>
<path d="M250.268 48.8877C249.897 48.8877 249.539 48.9261 249.181 48.99C249.181 48.9517 249.181 48.9261 249.181 48.8877C249.181 42.0097 243.604 36.4485 236.736 36.4485C235.405 36.4485 234.114 36.653 232.911 37.0493C230.635 29.0718 223.293 23.2421 214.583 23.2421C204.606 23.2421 196.408 30.9128 195.589 40.6801C194.566 40.3477 193.466 40.1687 192.328 40.1687C186.47 40.1687 181.737 44.9118 181.737 50.7543C181.737 56.5968 186.483 61.3398 192.328 61.3398H250.268C253.708 61.3398 256.497 58.5528 256.497 55.1138C256.497 51.6747 253.708 48.8877 250.268 48.8877Z" fill="#C2FCFF"/>
<path d="M477.871 473.996C477.602 473.996 477.334 474.022 477.078 474.06C477.078 474.035 477.078 474.009 477.078 473.996C477.078 469.01 473.036 464.971 468.048 464.971C467.076 464.971 466.155 465.124 465.273 465.405C463.623 459.614 458.289 455.382 451.971 455.382C444.731 455.382 438.784 460.943 438.196 468.039C437.454 467.796 436.648 467.668 435.829 467.668C431.583 467.668 428.142 471.107 428.142 475.352C428.142 479.596 431.583 483.035 435.829 483.035H477.871C480.365 483.035 482.386 481.015 482.386 478.522C482.386 476.029 480.365 474.009 477.871 474.009V473.996Z" fill="#C2FCFF"/>
<path d="M164.496 151.253L212.153 108.144C206.832 112.951 201.895 118.243 197.393 123.984C179.448 146.868 169.83 175.083 169.753 204.564L122.096 247.673C122.186 218.192 131.791 189.977 149.736 167.093C154.238 161.353 159.175 156.06 164.496 151.253Z" fill="#008BEA"/>
<mask id="mask0_1305_738" style="mask-type:luminance" maskUnits="userSpaceOnUse" x="122" y="108" width="91" height="140">
<path d="M164.496 151.253L212.153 108.144C206.832 112.951 201.895 118.243 197.393 123.984C179.448 146.868 169.83 175.083 169.753 204.564L122.096 247.673C122.186 218.192 131.791 189.977 149.736 167.093C154.238 161.353 159.175 156.06 164.496 151.253Z" fill="white"/>
</mask>
<g mask="url(#mask0_1305_738)">
<path d="M169.753 204.577L122.096 247.686C122.186 218.205 131.791 189.99 149.736 167.105C154.238 161.365 159.175 156.072 164.496 151.265L212.153 108.156C206.832 112.963 201.895 118.256 197.393 123.996C179.448 146.88 169.83 175.096 169.753 204.577Z" fill="#008BEA"/>
</g>
<path d="M587.062 306.239L539.405 349.348C532.243 355.817 523.085 360.228 512.635 361.57L286.81 390.565L208.392 400.626L138.941 409.55L186.598 366.441L560.304 318.461C570.741 317.131 579.899 312.708 587.062 306.239Z" fill="#0566C6"/>
<path d="M282.077 76.2337C311.828 72.4111 341.731 78.4582 368.54 93.71C391.153 106.584 410.262 125.633 423.257 148.095C428.718 146.267 434.397 144.976 440.204 144.234C486.927 138.238 531.885 168.895 545.506 213.999C572.519 212.452 597.678 232.319 602.538 259.806C607.616 288.519 588.673 314.83 560.317 318.473L186.61 366.441C142.714 372.079 100.609 340.501 92.7425 296.05C84.8765 251.598 114.192 210.854 158.088 205.216C161.964 204.717 165.852 204.5 169.753 204.577C169.842 175.096 179.448 146.881 197.393 123.996C218.139 97.5454 248.209 80.5932 282.064 76.2465L282.077 76.2337Z" fill="#43E4FF"/>
<path d="M69.0036 267.246L116.66 224.137C97.6411 241.345 87.7542 267.949 92.7296 296.037C100.596 340.488 142.701 372.066 186.598 366.428L138.941 409.537C95.0447 415.175 52.939 383.597 45.073 339.146C40.1103 311.058 49.9845 284.454 69.0036 267.246Z" fill="#008BEA"/>
<mask id="mask1_1305_738" style="mask-type:luminance" maskUnits="userSpaceOnUse" x="43" y="224" width="144" height="187">
<path d="M69.0036 267.246L116.66 224.137C97.6411 241.345 87.7542 267.949 92.7296 296.037C100.596 340.488 142.701 372.066 186.598 366.428L138.941 409.537C95.0447 415.175 52.939 383.597 45.073 339.146C40.1103 311.058 49.9845 284.454 69.0036 267.246Z" fill="white"/>
</mask>
<g mask="url(#mask1_1305_738)">
<path d="M186.598 366.441L138.941 409.55C95.0447 415.188 52.939 383.61 45.073 339.159C40.1103 311.071 49.9845 284.467 69.0036 267.259L116.66 224.15C97.6411 241.357 87.7542 267.962 92.7296 296.049C100.596 340.501 142.701 372.079 186.598 366.441Z" fill="#008BEA"/>
</g>
<path d="M288.268 87.0621C344.494 80.1585 398.392 112.554 421.952 162.963C429.306 159.473 437.351 157.083 445.959 156.021C490.367 150.575 532.537 182.626 540.16 227.627C542.475 227.576 544.777 227.065 547.182 226.771C569.385 224.048 590.464 240.079 594.275 262.567C598.087 285.055 583.186 305.51 560.982 308.233L186.815 354.155C149.02 358.796 113.13 331.501 106.645 293.224C100.161 254.935 125.524 220.123 163.319 215.482C170.674 214.574 177.964 214.907 184.96 216.262C179.435 151.688 223.792 94.9757 288.255 87.0749L288.268 87.0621Z" fill="#00ACEC"/>
<path d="M602.576 259.793C597.716 232.294 572.57 212.426 545.557 213.986C531.935 168.883 486.978 138.225 440.255 144.221C434.448 144.963 428.782 146.254 423.307 148.082C410.325 125.62 391.217 106.571 368.603 93.6972C341.795 78.4454 311.891 72.4111 282.128 76.2337C248.272 80.5804 218.202 97.5326 197.456 123.984C179.512 146.881 169.906 175.083 169.817 204.577C165.916 204.5 162.027 204.717 158.152 205.216C114.256 210.854 84.9402 251.585 92.8063 296.037C100.672 340.488 142.778 372.066 186.674 366.441L560.381 318.473C588.737 314.83 607.68 288.52 602.602 259.806L602.576 259.793ZM560.982 307.198L186.815 353.107C149.02 357.747 113.143 330.453 106.645 292.163C100.148 253.874 125.524 219.062 163.306 214.421C170.661 213.526 177.951 213.846 184.96 215.201C179.422 150.626 223.792 93.9274 288.255 86.0138C344.494 79.1102 398.392 111.519 421.939 161.915C429.281 158.425 437.338 156.034 445.946 154.973C490.354 149.527 532.524 181.578 540.147 226.566C542.462 226.515 544.764 226.004 547.169 225.71C569.373 222.986 590.464 239.018 594.275 261.519C598.087 284.019 583.173 304.462 560.982 307.185V307.198Z" fill="#43E4FF"/>
<path d="M224.815 114.319L188.171 146.459L178.003 182.843L288.268 86.1288C263.621 89.1588 241.916 99.3096 224.815 114.306" fill="#009EED"/>
<path d="M288.268 86.1416L173.986 186.372L171.364 207.159L145.311 211.532L111.838 240.885C168.065 233.981 221.976 266.377 245.523 316.786L421.952 162.043C398.405 111.647 344.494 79.2508 288.268 86.1416Z" fill="#00AEEF"/>
<path d="M540.16 226.694L424.484 328.151L562.837 314.651L581.715 298.095C591.538 289.478 596.719 275.978 594.288 261.634C590.477 239.133 569.386 223.101 547.194 225.837C544.79 226.131 542.488 226.643 540.173 226.694" fill="#008BEA"/>
<path d="M421.965 162.03L245.535 316.773C252.877 313.283 260.935 310.892 269.543 309.831C298.04 306.328 325.615 318.282 343.726 339.184C346.259 342.099 352.769 338.954 355.558 339.184C363.961 339.875 369.729 335.733 380.371 335.247L421.965 330.363L540.173 226.694C532.55 181.693 490.38 149.642 445.972 155.088C437.364 156.149 429.306 158.54 421.965 162.03Z" fill="#009EED"/>
<path d="M128.057 230.21L105.597 249.91L98.9458 290.795L184.999 215.329C177.99 213.973 170.712 213.641 163.345 214.549C149.647 216.223 137.585 221.874 128.069 230.21" fill="#009EED"/>
<path d="M602.525 259.806C597.665 232.306 572.519 212.439 545.506 213.999C531.884 168.895 486.927 138.238 440.204 144.234C434.397 144.976 428.731 146.267 423.257 148.095C410.274 125.633 391.166 106.584 368.552 93.71C341.744 78.4582 311.84 72.4239 282.077 76.2465C248.221 80.5932 218.151 97.5454 197.405 123.996C179.461 146.893 169.855 175.096 169.766 204.59C165.865 204.513 161.976 204.73 158.101 205.229C114.205 210.867 84.8892 251.598 92.7552 296.05C100.621 340.501 142.727 372.079 186.623 366.454L560.33 318.486C588.686 314.843 607.629 288.532 602.551 259.818L602.525 259.806ZM560.931 307.21L186.764 353.119C148.969 357.76 113.092 330.465 106.594 292.176C100.097 253.886 125.473 219.074 163.255 214.434C170.61 213.539 177.9 213.858 184.909 215.213C179.371 150.639 223.741 93.9401 288.204 86.0266C344.443 79.123 398.341 111.532 421.888 161.928C429.23 158.438 437.287 156.047 445.895 154.986C490.303 149.54 532.473 181.59 540.096 226.579C542.411 226.528 544.713 226.016 547.118 225.722C569.322 222.999 590.413 239.031 594.224 261.532C598.036 284.032 583.122 304.474 560.931 307.198V307.21Z" fill="#43E4FF"/>
<mask id="mask2_1305_738" style="mask-type:luminance" maskUnits="userSpaceOnUse" x="105" y="85" width="490" height="269">
<path d="M288.268 86.1289C344.494 79.2253 398.392 111.621 421.952 162.03C429.306 158.54 437.351 156.149 445.959 155.088C490.367 149.642 532.537 181.693 540.16 226.694C542.475 226.643 544.777 226.131 547.182 225.837C569.385 223.114 590.464 239.146 594.275 261.634C598.087 284.122 583.186 304.577 560.982 307.3L186.815 353.222C149.02 357.862 113.13 330.568 106.645 292.291C100.161 254.001 125.524 219.189 163.319 214.549C170.674 213.641 177.964 213.973 184.96 215.329C179.435 150.754 223.792 94.0424 288.255 86.1416L288.268 86.1289Z" fill="white"/>
</mask>
<g mask="url(#mask2_1305_738)">
<mask id="mask3_1305_738" style="mask-type:luminance" maskUnits="userSpaceOnUse" x="495" y="280" width="57" height="48">
<path d="M551.863 280.312L499.09 325.799C498.246 326.528 497.184 327.026 495.982 327.18L548.754 281.693C549.957 281.539 551.031 281.041 551.863 280.312Z" fill="white"/>
</mask>
<g mask="url(#mask3_1305_738)">
<path d="M551.863 280.312L499.09 325.799C498.246 326.528 497.184 327.026 495.982 327.18L548.754 281.693C549.957 281.539 551.031 281.041 551.863 280.312Z" fill="#033567"/>
</g>
<mask id="mask4_1305_738" style="mask-type:luminance" maskUnits="userSpaceOnUse" x="360" y="183" width="56" height="52">
<path d="M362.515 228.791L415.288 183.304C413.817 184.595 413.036 186.615 413.407 188.775L360.635 234.262C360.276 232.115 361.044 230.082 362.515 228.791Z" fill="white"/>
</mask>
<g mask="url(#mask4_1305_738)">
<path d="M413.42 188.775L360.647 234.262C360.289 232.115 361.057 230.082 362.527 228.791L415.3 183.304C413.829 184.595 413.049 186.615 413.42 188.775Z" fill="#033567"/>
</g>
<path d="M548.754 281.693L495.982 327.18L384.847 340.821L437.619 295.334L548.754 281.693Z" fill="#033363"/>
<path d="M430.559 289.964L377.786 335.464L360.635 234.262L413.42 188.775L430.559 289.964Z" fill="#033363"/>
<path d="M529.543 168.282C532.869 167.873 536.028 170.276 536.604 173.651L553.755 274.853C554.331 278.215 552.093 281.284 548.767 281.693L437.632 295.334C434.307 295.743 431.148 293.339 430.572 289.977L413.42 188.775C412.845 185.4 415.083 182.332 418.409 181.923L529.543 168.282Z" fill="#0561BC"/>
<mask id="mask5_1305_738" style="mask-type:luminance" maskUnits="userSpaceOnUse" x="377" y="289" width="61" height="52">
<path d="M437.62 295.334L384.847 340.821C381.521 341.23 378.362 338.826 377.787 335.464L430.559 289.977C431.135 293.339 434.294 295.743 437.62 295.334Z" fill="white"/>
</mask>
<g mask="url(#mask5_1305_738)">
<path d="M437.62 295.334L384.847 340.821C381.521 341.23 378.362 338.826 377.787 335.464L430.559 289.977C431.135 293.339 434.294 295.743 437.62 295.334Z" fill="#033567"/>
</g>
<path d="M509.667 190.603L510.435 195.129L502.019 196.152L501.251 191.639L509.667 190.603Z" fill="#E9F7FD"/>
<path d="M522.701 178.778C526.244 178.343 529.633 180.9 530.234 184.505L532.332 196.855C532.946 200.46 530.554 203.733 526.998 204.168L436.238 215.303C432.695 215.738 429.306 213.181 428.705 209.576L426.607 197.226C425.993 193.621 427.669 190.437 431.941 189.913L522.701 178.778ZM476.297 199.31L475.53 194.797L437.018 199.527L437.786 204.04L476.297 199.31ZM497.504 196.714L496.736 192.201L488.32 193.237L489.088 197.75L497.504 196.714ZM510.435 195.129L509.667 190.616L501.251 191.652L502.019 196.165L510.435 195.129ZM523.353 193.531L522.585 189.018L514.169 190.054L514.937 194.567L523.353 193.531Z" fill="#2F4F94"/>
<path d="M496.736 192.189L497.504 196.714L489.1 197.737L488.333 193.224L496.736 192.189Z" fill="#91D892"/>
<path d="M475.53 194.797L476.298 199.31L437.786 204.04L437.019 199.527L475.53 194.797Z" fill="#7BCFF9"/>
<path d="M522.586 189.018L523.353 193.531L514.937 194.567L514.17 190.054L522.586 189.018Z" fill="#D4652C"/>
<path d="M528.226 222.322L528.993 226.847L520.577 227.87L519.823 223.357L528.226 222.322Z" fill="#D4652C"/>
<path d="M515.308 223.907L516.076 228.433L507.66 229.455L506.892 224.942L515.308 223.907Z" fill="#E9F7FD"/>
<path d="M481.171 228.1L481.938 232.613L443.426 237.343L442.672 232.83L481.171 228.1Z" fill="#7BCFF9"/>
<path d="M502.39 225.492L503.145 230.018L494.741 231.041L493.974 226.528L502.39 225.492Z" fill="#91D892"/>
<path d="M486.824 261.416L487.578 265.917L449.08 270.647L448.312 266.134L486.824 261.416Z" fill="#7BCFF9"/>
<path d="M520.949 257.223L521.716 261.736L513.3 262.759L512.545 258.259L520.949 257.223Z" fill="#E9F7FD"/>
<path d="M508.03 258.808L508.798 263.321L500.382 264.344L499.614 259.844L508.03 258.808Z" fill="#91D892"/>
<path d="M533.982 245.385C537.525 244.95 540.914 247.52 541.515 251.112L543.613 263.475C544.227 267.067 541.835 270.353 538.279 270.787L447.519 281.923C443.977 282.357 440.587 279.788 439.986 276.195L437.888 263.833C437.274 260.24 438.95 257.044 443.222 256.52L533.982 245.385ZM487.579 265.917L486.811 261.404L448.3 266.134L449.067 270.647L487.579 265.917ZM508.798 263.321L508.03 258.808L499.614 259.844L500.382 264.357L508.798 263.321ZM521.716 261.736L520.949 257.223L512.533 258.259L513.3 262.772L521.716 261.736ZM534.634 260.151L533.867 255.638L525.451 256.673L526.218 261.186L534.634 260.151Z" fill="#2F4F94"/>
<path d="M533.88 255.638L534.634 260.151L526.231 261.174L525.464 256.674L533.88 255.638Z" fill="#D4652C"/>
<path d="M528.341 212.081C531.884 211.647 535.274 214.216 535.875 217.809L537.973 230.171C538.586 233.764 536.195 237.037 532.639 237.471L441.879 248.606C438.336 249.041 434.947 246.484 434.346 242.879L432.248 230.516C431.634 226.924 433.31 223.728 437.582 223.204L528.341 212.068V212.081ZM481.938 232.613L481.171 228.1L442.659 232.83L443.427 237.343L481.938 232.613ZM503.145 230.018L502.377 225.505L493.961 226.54L494.729 231.053L503.145 230.018ZM516.076 228.433L515.308 223.92L506.892 224.955L507.66 229.468L516.076 228.433ZM528.994 226.847L528.226 222.334L519.81 223.37L520.578 227.883L528.994 226.847Z" fill="#2F4F94"/>
<path fill-rule="evenodd" clip-rule="evenodd" d="M393.787 239.108L414.495 221.222C414.879 220.89 415.301 221.248 415.429 222.028L424.714 276.323C424.842 277.129 424.638 278.036 424.241 278.356L403.06 295.474C402.702 295.768 402.319 295.372 402.203 294.605L393.365 241.012C393.25 240.258 393.442 239.402 393.8 239.095L393.787 239.108Z" fill="#032B4C"/>
<mask id="mask6_1305_738" style="mask-type:luminance" maskUnits="userSpaceOnUse" x="310" y="195" width="67" height="59">
<path d="M376.303 195.756L313.452 251.79C312.608 252.518 311.546 253.017 310.344 253.171L373.195 197.136C374.398 196.983 375.472 196.484 376.303 195.756Z" fill="white"/>
</mask>
<g mask="url(#mask6_1305_738)">
<path d="M376.303 195.756L313.452 251.79C312.608 252.518 311.546 253.017 310.344 253.171L373.195 197.136C374.398 196.983 375.472 196.484 376.303 195.756Z" fill="#033567"/>
</g>
<mask id="mask7_1305_738" style="mask-type:luminance" maskUnits="userSpaceOnUse" x="174" y="98" width="66" height="63">
<path d="M176.877 154.781L239.728 98.7471C238.257 100.038 237.477 102.058 237.848 104.219L174.997 160.253C174.639 158.105 175.406 156.073 176.877 154.781Z" fill="white"/>
</mask>
<g mask="url(#mask7_1305_738)">
<path d="M237.848 104.219L174.997 160.253C174.639 158.105 175.406 156.073 176.877 154.781L239.728 98.7471C238.257 100.038 237.477 102.058 237.848 104.219Z" fill="#033567"/>
</g>
<path d="M373.195 197.136L310.344 253.171L199.209 266.812L262.06 210.777L373.195 197.136Z" fill="#033363"/>
<path d="M255 205.408L192.148 261.442L174.997 160.253L237.848 104.219L255 205.408Z" fill="#033363"/>
<path d="M353.971 83.7254C357.297 83.3163 360.456 85.7198 361.032 89.0949L378.183 190.297C378.759 193.659 376.521 196.727 373.195 197.136L262.06 210.777C258.735 211.186 255.576 208.783 255 205.421L237.848 104.219C237.273 100.844 239.511 97.7755 242.837 97.3664L353.971 83.7254Z" fill="#0561BC"/>
<mask id="mask8_1305_738" style="mask-type:luminance" maskUnits="userSpaceOnUse" x="192" y="205" width="71" height="62">
<path d="M262.06 210.777L199.209 266.812C195.883 267.221 192.724 264.817 192.149 261.455L255 205.421C255.576 208.783 258.735 211.186 262.06 210.777Z" fill="white"/>
</mask>
<g mask="url(#mask8_1305_738)">
<path d="M262.06 210.777L199.209 266.812C195.883 267.221 192.724 264.817 192.149 261.455L255 205.421C255.576 208.783 258.735 211.186 262.06 210.777Z" fill="#033567"/>
</g>
<path d="M334.095 106.047L334.862 110.56L326.459 111.595L325.692 107.083L334.095 106.047Z" fill="#E9F7FD"/>
<path d="M347.128 94.2214C350.671 93.7867 354.061 96.3436 354.662 99.9489L356.759 112.299C357.373 115.904 354.982 119.177 351.426 119.611L260.666 130.747C257.123 131.181 253.734 128.624 253.132 125.019L251.035 112.669C250.421 109.064 252.096 105.881 256.368 105.357L347.128 94.2214ZM300.738 114.753L299.971 110.24L261.459 114.971L262.226 119.484L300.738 114.753ZM321.944 112.145L321.177 107.632L312.761 108.668L313.528 113.181L321.944 112.145ZM334.862 110.56L334.095 106.047L325.679 107.083L326.446 111.595L334.862 110.56ZM347.793 108.975L347.026 104.462L338.61 105.497L339.377 110.01L347.793 108.975Z" fill="#2F4F94"/>
<path d="M321.177 107.632L321.944 112.145L313.528 113.181L312.761 108.668L321.177 107.632Z" fill="#91D892"/>
<path d="M299.971 110.24L300.738 114.753L262.226 119.484L261.459 114.971L299.971 110.24Z" fill="#7BCFF9"/>
<path d="M347.026 104.462L347.794 108.975L339.378 110.01L338.61 105.497L347.026 104.462Z" fill="#D4652C"/>
<path d="M352.667 137.765L353.434 142.278L345.018 143.314L344.25 138.801L352.667 137.765Z" fill="#D4652C"/>
<path d="M339.748 139.351L340.516 143.863L332.1 144.899L331.332 140.386L339.748 139.351Z" fill="#E9F7FD"/>
<path d="M305.611 143.544L306.378 148.057L267.867 152.787L267.099 148.274L305.611 143.544Z" fill="#7BCFF9"/>
<path d="M326.818 140.936L327.585 145.462L319.182 146.484L318.414 141.971L326.818 140.936Z" fill="#91D892"/>
<path d="M311.251 176.86L312.019 181.36L273.507 186.09L272.753 181.578L311.251 176.86Z" fill="#7BCFF9"/>
<path d="M345.389 172.667L346.156 177.18L337.74 178.202L336.973 173.702L345.389 172.667Z" fill="#E9F7FD"/>
<path d="M332.471 174.252L333.225 178.765L324.822 179.788L324.055 175.288L332.471 174.252Z" fill="#91D892"/>
<path d="M358.422 160.828C361.965 160.394 365.355 162.963 365.956 166.556L368.053 178.918C368.667 182.511 366.276 185.796 362.72 186.231L271.96 197.366C268.417 197.801 265.028 195.231 264.426 191.639L262.329 179.276C261.715 175.684 263.39 172.488 267.662 171.964L358.422 160.828ZM312.019 181.36L311.252 176.847L272.74 181.578L273.508 186.09L312.019 181.36ZM333.225 178.765L332.458 174.252L324.042 175.288L324.809 179.801L333.225 178.765ZM346.156 177.18L345.389 172.667L336.973 173.702L337.74 178.215L346.156 177.18ZM359.075 175.582L358.307 171.069L349.891 172.104L350.659 176.617L359.075 175.582Z" fill="#2F4F94"/>
<path d="M358.307 171.082L359.075 175.582L350.659 176.617L349.904 172.117L358.307 171.082Z" fill="#D4652C"/>
<path d="M352.769 127.525C356.312 127.09 359.701 129.66 360.302 133.252L362.4 145.615C363.014 149.207 360.622 152.48 357.066 152.915L266.306 164.05C262.763 164.485 259.374 161.928 258.773 158.323L256.675 145.96C256.061 142.368 257.737 139.172 262.009 138.647L352.769 127.512V127.525ZM306.378 148.057L305.611 143.544L267.099 148.274L267.867 152.787L306.378 148.057ZM327.585 145.462L326.817 140.949L318.401 141.984L319.169 146.497L327.585 145.462ZM340.516 143.863L339.748 139.351L331.332 140.386L332.1 144.899L340.516 143.863ZM353.434 142.278L352.666 137.765L344.25 138.801L345.018 143.314L353.434 142.278Z" fill="#2F4F94"/>
<mask id="mask9_1305_738" style="mask-type:luminance" maskUnits="userSpaceOnUse" x="355" y="318" width="43" height="36">
<path d="M397.445 318.78L359.011 352.493C358.166 353.222 357.105 353.72 355.903 353.874L394.337 320.161C395.54 320.008 396.614 319.509 397.445 318.78Z" fill="white"/>
</mask>
<g mask="url(#mask9_1305_738)">
<path d="M397.445 318.78L359.011 352.493C358.166 353.222 357.105 353.72 355.903 353.874L394.337 320.161C395.54 320.008 396.614 319.509 397.445 318.78Z" fill="#033567"/>
</g>
<mask id="mask10_1305_738" style="mask-type:luminance" maskUnits="userSpaceOnUse" x="220" y="221" width="41" height="40">
<path d="M222.436 255.485L260.871 221.772C259.4 223.063 258.62 225.083 258.991 227.244L220.556 260.956C220.198 258.808 220.965 256.776 222.436 255.485Z" fill="white"/>
</mask>
<g mask="url(#mask10_1305_738)">
<path d="M258.991 227.244L220.556 260.956C220.198 258.808 220.965 256.776 222.436 255.485L260.871 221.772C259.4 223.063 258.62 225.083 258.991 227.244Z" fill="#033567"/>
</g>
<path d="M394.325 320.161L355.89 353.874L244.755 367.515L283.19 333.802L394.325 320.161Z" fill="#033363"/>
<path d="M276.129 328.445L237.695 362.158L220.556 260.956L258.991 227.244L276.129 328.445Z" fill="#033363"/>
<path d="M375.114 206.763C378.439 206.354 381.599 208.757 382.174 212.132L399.326 313.334C399.902 316.696 397.663 319.765 394.338 320.174L283.203 333.815C279.877 334.224 276.718 331.82 276.143 328.458L258.991 227.256C258.415 223.881 260.654 220.813 263.979 220.404L375.114 206.763Z" fill="#009EED"/>
<path d="M282.486 327.499C282.486 327.499 282.397 327.423 282.384 327.384L265.309 226.617L375.881 213.053C375.881 213.053 375.907 213.13 375.92 213.181L392.995 313.935L282.486 327.499Z" fill="#0561BC"/>
<mask id="mask11_1305_738" style="mask-type:luminance" maskUnits="userSpaceOnUse" x="237" y="328" width="47" height="40">
<path d="M283.19 333.802L244.755 367.515C241.43 367.924 238.27 365.52 237.695 362.158L276.13 328.445C276.705 331.808 279.864 334.211 283.19 333.802Z" fill="white"/>
</mask>
<g mask="url(#mask11_1305_738)">
<path d="M283.19 333.802L244.755 367.515C241.43 367.924 238.27 365.52 237.695 362.158L276.13 328.445C276.705 331.808 279.864 334.211 283.19 333.802Z" fill="#033567"/>
</g>
<path d="M352.564 233.393L353.255 237.42L345.747 238.341L345.069 234.313L352.564 233.393Z" fill="#E9F7FD"/>
<path d="M364.19 222.846C367.35 222.462 370.368 224.738 370.905 227.96L372.773 238.967C373.323 242.176 371.187 245.091 368.028 245.487L287.116 255.421C283.957 255.804 280.938 253.528 280.401 250.307L278.534 239.299C277.984 236.09 279.48 233.252 283.279 232.779L364.19 222.846ZM322.827 241.153L322.149 237.126L287.82 241.345L288.497 245.372L322.827 241.153ZM341.731 238.839L341.053 234.812L333.558 235.733L334.236 239.76L341.731 238.839ZM353.255 237.42L352.577 233.393L345.082 234.313L345.76 238.341L353.255 237.42ZM364.766 236.001L364.088 231.974L356.593 232.894L357.271 236.921L364.766 236.001Z" fill="#2F4F94"/>
<path d="M341.053 234.812L341.731 238.839L334.236 239.76L333.558 235.733L341.053 234.812Z" fill="#91D892"/>
<path d="M322.149 237.126L322.827 241.153L288.497 245.372L287.82 241.345L322.149 237.126Z" fill="#7BCFF9"/>
<path d="M364.088 231.974L364.766 236.001L357.271 236.921L356.593 232.894L364.088 231.974Z" fill="#D4652C"/>
<path d="M369.115 261.672L369.806 265.699L362.298 266.62L361.62 262.593L369.115 261.672Z" fill="#D4652C"/>
<path d="M357.604 263.078L358.281 267.106L350.786 268.026L350.096 263.999L357.604 263.078Z" fill="#E9F7FD"/>
<path d="M327.175 266.812L327.853 270.839L293.524 275.057L292.846 271.03L327.175 266.812Z" fill="#7BCFF9"/>
<path d="M346.079 264.498L346.757 268.525L339.262 269.445L338.584 265.418L346.079 264.498Z" fill="#91D892"/>
<path d="M332.202 296.51L332.893 300.524L298.564 304.743L297.873 300.729L332.202 296.51Z" fill="#7BCFF9"/>
<path d="M362.63 292.777L363.308 296.791L355.813 297.712L355.135 293.697L362.63 292.777Z" fill="#E9F7FD"/>
<path d="M351.119 294.196L351.797 298.21L344.289 299.131L343.611 295.116L351.119 294.196Z" fill="#91D892"/>
<path d="M374.244 282.23C377.403 281.846 380.421 284.134 380.959 287.343L382.826 298.364C383.363 301.572 381.24 304.487 378.081 304.884L297.169 314.817C294.01 315.201 290.992 312.912 290.455 309.703L288.587 298.683C288.05 295.474 289.534 292.636 293.332 292.163L374.244 282.23ZM332.893 300.524L332.215 296.51L297.886 300.729L298.564 304.743L332.893 300.524ZM351.797 298.21L351.119 294.196L343.624 295.116L344.302 299.131L351.797 298.21ZM363.308 296.791L362.63 292.777L355.135 293.697L355.813 297.712L363.308 296.791ZM374.832 295.385L374.154 291.37L366.659 292.291L367.337 296.305L374.832 295.385Z" fill="#2F4F94"/>
<path d="M374.154 291.371L374.832 295.385L367.337 296.305L366.659 292.278L374.154 291.371Z" fill="#D4652C"/>
<path d="M369.217 252.544C372.376 252.161 375.395 254.449 375.932 257.658L377.8 268.678C378.337 271.887 376.214 274.802 373.042 275.185L292.13 285.119C288.971 285.502 285.952 283.227 285.415 280.018L283.548 268.998C283.011 265.789 284.494 262.951 288.293 262.478L369.204 252.544H369.217ZM327.853 270.839L327.176 266.812L292.846 271.03L293.524 275.058L327.853 270.839ZM346.757 268.525L346.08 264.498L338.584 265.418L339.262 269.445L346.757 268.525ZM358.282 267.106L357.604 263.078L350.109 263.999L350.786 268.026L358.282 267.106ZM369.806 265.699L369.128 261.672L361.633 262.593L362.31 266.62L369.806 265.699Z" fill="#2F4F94"/>
<g style="mix-blend-mode:multiply">
<path d="M306.941 305.855L195.806 319.496C192.468 319.905 189.322 317.489 188.746 314.14L173.871 226.362L186.584 231.411L183.374 212.976L253.452 196.65L254.936 205.139L276.73 202.48C276.73 202.48 282.371 201.841 283.803 207.85L283.855 208.08L296.261 206.52L311.929 299.003C312.492 302.378 310.267 305.433 306.928 305.842L306.941 305.855Z" fill="#D0D1D3"/>
</g>
<mask id="mask12_1305_738" style="mask-type:luminance" maskUnits="userSpaceOnUse" x="234" y="314" width="66" height="59">
<path d="M299.075 314.51L237.477 371.388C236.633 372.117 235.571 372.616 234.369 372.769L295.967 315.891C297.169 315.738 298.244 315.239 299.075 314.51Z" fill="white"/>
</mask>
<g mask="url(#mask12_1305_738)">
<path d="M299.075 314.51L237.477 371.388C236.633 372.117 235.571 372.616 234.369 372.769L295.967 315.891C297.169 315.738 298.244 315.239 299.075 314.51Z" fill="#033567"/>
</g>
<mask id="mask13_1305_738" style="mask-type:luminance" maskUnits="userSpaceOnUse" x="98" y="217" width="65" height="63">
<path d="M100.902 274.38L162.5 217.502C161.029 218.793 160.249 220.813 160.62 222.974L99.0221 279.852C98.6639 277.704 99.4313 275.671 100.902 274.38Z" fill="white"/>
</mask>
<g mask="url(#mask13_1305_738)">
<path d="M160.62 222.974L99.0221 279.852C98.6639 277.704 99.4313 275.671 100.902 274.38L162.5 217.502C161.029 218.793 160.249 220.813 160.62 222.974Z" fill="#033567"/>
</g>
<path d="M295.954 315.891L234.356 372.769L123.234 386.41L184.819 329.532L295.954 315.891Z" fill="#033363"/>
<path d="M177.759 324.175L116.174 381.053L99.022 279.852L160.62 222.974L177.759 324.175Z" fill="#033363"/>
<path d="M276.743 202.493C280.069 202.084 283.228 204.487 283.803 207.862L300.955 309.064C301.531 312.426 299.292 315.495 295.967 315.904L184.832 329.545C181.507 329.954 178.347 327.55 177.772 324.188L160.62 222.986C160.044 219.611 162.283 216.543 165.608 216.134L276.743 202.493Z" fill="#0561BC"/>
<mask id="mask14_1305_738" style="mask-type:luminance" maskUnits="userSpaceOnUse" x="116" y="324" width="69" height="63">
<path d="M184.819 329.532L123.221 386.41C119.896 386.819 116.737 384.416 116.161 381.053L177.759 324.175C178.335 327.538 181.494 329.941 184.819 329.532Z" fill="white"/>
</mask>
<g mask="url(#mask14_1305_738)">
<path d="M184.819 329.532L123.221 386.41C119.896 386.819 116.737 384.416 116.161 381.053L177.759 324.175C178.335 327.538 181.494 329.941 184.819 329.532Z" fill="#033567"/>
</g>
<path d="M256.867 224.815L257.634 229.328L249.218 230.363L248.451 225.85L256.867 224.815Z" fill="#E9F7FD"/>
<path d="M269.9 212.989C273.443 212.554 276.833 215.111 277.434 218.716L279.531 231.066C280.145 234.671 277.754 237.944 274.198 238.379L183.438 249.514C179.895 249.949 176.506 247.392 175.904 243.787L173.807 231.437C173.193 227.832 174.868 224.648 179.14 224.124L269.9 212.989ZM223.497 233.521L222.73 229.008L184.218 233.738L184.986 238.251L223.497 233.521ZM244.703 230.913L243.936 226.4L235.52 227.435L236.287 231.948L244.703 230.913ZM257.634 229.328L256.867 224.815L248.451 225.85L249.218 230.363L257.634 229.328ZM270.553 227.742L269.785 223.229L261.369 224.265L262.137 228.778L270.553 227.742Z" fill="#2F4F94"/>
<path d="M243.949 226.4L244.703 230.913L236.3 231.948L235.533 227.435L243.949 226.4Z" fill="#91D892"/>
<path d="M222.73 228.995L223.497 233.521L184.986 238.238L184.231 233.725L222.73 228.995Z" fill="#7BCFF9"/>
<path d="M269.785 223.229L270.553 227.742L262.137 228.778L261.382 224.265L269.785 223.229Z" fill="#D4652C"/>
<path d="M275.439 256.533L276.193 261.046L267.79 262.081L267.023 257.568L275.439 256.533Z" fill="#D4652C"/>
<path d="M262.508 258.118L263.275 262.631L254.859 263.667L254.104 259.154L262.508 258.118Z" fill="#E9F7FD"/>
<path d="M228.383 262.311L229.138 266.824L190.639 271.542L189.872 267.029L228.383 262.311Z" fill="#7BCFF9"/>
<path d="M249.59 259.703L250.357 264.216L241.941 265.252L241.174 260.739L249.59 259.703Z" fill="#91D892"/>
<path d="M234.024 295.615L234.791 300.128L196.28 304.858L195.512 300.345L234.024 295.615Z" fill="#7BCFF9"/>
<path d="M268.161 291.434L268.916 295.935L260.512 296.97L259.745 292.457L268.161 291.434Z" fill="#E9F7FD"/>
<path d="M255.23 293.02L255.997 297.52L247.581 298.555L246.827 294.042L255.23 293.02Z" fill="#91D892"/>
<path d="M281.182 279.596C284.724 279.161 288.114 281.731 288.715 285.323L290.813 297.686C291.427 301.278 289.035 304.564 285.479 304.999L194.719 316.134C191.176 316.569 187.787 313.999 187.186 310.407L185.088 298.044C184.474 294.452 186.15 291.255 190.422 290.731L281.182 279.596ZM234.791 300.128L234.024 295.615L195.512 300.345L196.28 304.858L234.791 300.128ZM255.997 297.52L255.23 293.007L246.814 294.042L247.581 298.555L255.997 297.52ZM268.916 295.935L268.148 291.422L259.732 292.457L260.5 296.97L268.916 295.935ZM281.847 294.349L281.079 289.836L272.663 290.872L273.431 295.385L281.847 294.349Z" fill="#2F4F94"/>
<path d="M281.079 289.849L281.847 294.349L273.431 295.385L272.663 290.872L281.079 289.849Z" fill="#D4652C"/>
<path d="M275.541 246.293C279.084 245.858 282.474 248.428 283.075 252.02L285.172 264.383C285.786 267.975 283.394 271.248 279.839 271.682L189.079 282.818C185.536 283.252 182.146 280.695 181.545 277.09L179.448 264.728C178.834 261.135 180.509 257.939 184.781 257.415L275.541 246.28V246.293ZM229.138 266.824L228.371 262.311L189.859 267.042L190.626 271.555L229.138 266.824ZM250.357 264.216L249.59 259.703L241.174 260.739L241.941 265.252L250.357 264.216ZM263.275 262.631L262.508 258.118L254.092 259.154L254.859 263.667L263.275 262.631ZM276.193 261.046L275.426 256.533L267.01 257.568L267.777 262.081L276.193 261.046Z" fill="#2F4F94"/>
<path fill-rule="evenodd" clip-rule="evenodd" d="M134.49 251.368L155.197 233.482C155.581 233.15 156.003 233.508 156.131 234.288L165.417 288.583C165.544 289.389 165.34 290.297 164.943 290.616L143.763 307.735C143.404 308.029 143.021 307.632 142.906 306.865L134.068 253.273C133.952 252.519 134.144 251.662 134.502 251.355L134.49 251.368Z" fill="#032B4C"/>
</g>
<path d="M529.544 168.282C532.869 167.873 536.029 170.276 536.604 173.651L553.756 274.853C554.331 278.215 552.093 281.284 548.768 281.693L437.633 295.334C434.307 295.743 431.148 293.339 430.573 289.977L413.421 188.775C412.845 185.4 415.084 182.332 418.409 181.923L529.544 168.282Z" fill="#009EED"/>
<path d="M436.917 289.031C436.917 289.031 436.827 288.954 436.815 288.916L419.74 188.149L530.312 174.584C530.312 174.584 530.337 174.661 530.35 174.712L547.425 275.467L436.917 289.031Z" fill="#0561BC"/>
<path d="M506.202 196.216L506.854 200.089L499.628 200.984L498.975 197.098L506.202 196.216Z" fill="#E9F7FD"/>
<path d="M517.393 186.052C520.437 185.681 523.341 187.88 523.865 190.974L525.669 201.585C526.193 204.679 524.134 207.492 521.09 207.862L443.133 217.425C440.089 217.796 437.185 215.597 436.661 212.503L434.857 201.892C434.333 198.798 435.766 196.062 439.436 195.615L517.393 186.052ZM477.539 203.695L476.886 199.821L443.811 203.886L444.463 207.76L477.539 203.695ZM495.752 201.457L495.1 197.584L487.873 198.466L488.526 202.34L495.752 201.457ZM506.854 200.089L506.202 196.216L498.975 197.098L499.627 200.972L506.854 200.089ZM517.956 198.734L517.304 194.861L510.077 195.743L510.729 199.616L517.956 198.734Z" fill="#2F4F94"/>
<path d="M495.1 197.571L495.752 201.457L488.525 202.34L487.873 198.466L495.1 197.571Z" fill="#91D892"/>
<path d="M476.886 199.808L477.539 203.695L444.463 207.747L443.798 203.874L476.886 199.808Z" fill="#7BCFF9"/>
<path d="M517.304 194.848L517.956 198.734L510.729 199.616L510.077 195.743L517.304 194.848Z" fill="#D4652C"/>
<path d="M522.151 223.459L522.803 227.333L515.577 228.228L514.925 224.342L522.151 223.459Z" fill="#D4652C"/>
<path d="M511.049 224.815L511.702 228.701L504.475 229.583L503.823 225.709L511.049 224.815Z" fill="#E9F7FD"/>
<path d="M481.734 228.42L482.386 232.293L449.31 236.359L448.645 232.472L481.734 228.42Z" fill="#7BCFF9"/>
<path d="M499.947 226.182L500.6 230.056L493.373 230.951L492.721 227.065L499.947 226.182Z" fill="#91D892"/>
<path d="M486.581 257.031L487.233 260.905L454.158 264.958L453.505 261.097L486.581 257.031Z" fill="#7BCFF9"/>
<path d="M515.897 253.439L516.549 257.3L509.322 258.195L508.67 254.321L515.897 253.439Z" fill="#E9F7FD"/>
<path d="M504.795 254.794L505.447 258.668L498.22 259.55L497.568 255.689L504.795 254.794Z" fill="#91D892"/>
<path d="M527.088 243.263C530.132 242.892 533.036 245.091 533.56 248.185L535.363 258.796C535.888 261.889 533.828 264.702 530.784 265.073L452.828 274.636C449.783 275.006 446.88 272.807 446.356 269.714L444.552 259.102C444.028 256.009 445.46 253.273 449.131 252.825L527.088 243.263ZM487.233 260.905L486.581 257.031L453.505 261.097L454.158 264.971L487.233 260.905ZM505.447 258.668L504.795 254.794L497.568 255.676L498.22 259.55L505.447 258.668ZM516.549 257.3L515.897 253.426L508.67 254.308L509.322 258.182L516.549 257.3ZM527.651 255.945L526.998 252.071L519.772 252.953L520.424 256.827L527.651 255.945Z" fill="#2F4F94"/>
<path d="M526.998 252.071L527.651 255.945L520.424 256.827L519.772 252.953L526.998 252.071Z" fill="#D4652C"/>
<path d="M522.241 214.664C525.285 214.293 528.188 216.492 528.712 219.586L530.516 230.197C531.04 233.291 528.981 236.09 525.937 236.474L447.98 246.037C444.936 246.408 442.033 244.209 441.508 241.128L439.705 230.516C439.18 227.423 440.613 224.687 444.284 224.239L522.241 214.677V214.664ZM482.386 232.294L481.734 228.42L448.658 232.485L449.31 236.359L482.386 232.294ZM500.599 230.056L499.947 226.183L492.721 227.065L493.373 230.938L500.599 230.056ZM511.701 228.701L511.049 224.827L503.823 225.71L504.475 229.583L511.701 228.701ZM522.803 227.333L522.151 223.459L514.925 224.342L515.577 228.215L522.803 227.333Z" fill="#2F4F94"/>
<path d="M238.999 99.5269L210.157 129.749L238.871 110.24L239.6 103.043L238.999 99.5269Z" fill="#033363"/>
<path d="M353.971 83.7254C357.297 83.3163 360.456 85.7198 361.032 89.0948L378.183 190.297C378.759 193.659 376.521 196.727 373.195 197.136L262.06 210.777C258.735 211.186 255.576 208.783 255 205.421L237.848 104.219C237.273 100.844 239.511 97.7755 242.837 97.3664L353.971 83.7254Z" fill="#009EED"/>
<path d="M261.344 204.475C261.344 204.475 261.255 204.398 261.242 204.359L244.167 103.592L354.739 90.0281C354.739 90.0281 354.765 90.1048 354.777 90.1559L371.853 190.91L261.344 204.475Z" fill="#0561BC"/>
<path d="M331.55 110.176L332.241 114.229L324.694 115.15L324.017 111.097L331.55 110.176Z" fill="#FDE199"/>
<path d="M343.228 99.5781C346.412 99.1818 349.431 101.483 349.981 104.717L351.861 115.789C352.411 119.023 350.262 121.951 347.09 122.334L265.757 132.319C262.572 132.715 259.554 130.414 259.004 127.18L257.123 116.108C256.573 112.874 258.07 110.023 261.894 109.563L343.228 99.5781ZM301.646 117.975L300.956 113.922L266.448 118.154L267.138 122.207L301.646 117.975ZM320.653 115.648L319.962 111.595L312.429 112.516L313.119 116.569L320.653 115.648ZM332.241 114.229L331.55 110.176L324.017 111.097L324.707 115.15L332.241 114.229ZM343.816 112.797L343.125 108.745L335.592 109.665L336.283 113.718L343.816 112.797Z" fill="#2F4F94"/>
<path d="M319.975 111.595L320.653 115.648L313.119 116.569L312.428 112.529L319.975 111.595Z" fill="#91D892"/>
<path d="M300.969 113.935L301.646 117.975L267.138 122.207L266.448 118.167L300.969 113.935Z" fill="#7BCFF9"/>
<path d="M343.125 108.757L343.816 112.797L336.282 113.73L335.592 109.678L343.125 108.757Z" fill="#D4652C"/>
<path d="M348.19 138.596L348.868 142.649L341.334 143.569L340.644 139.53L348.19 138.596Z" fill="#D4652C"/>
<path d="M336.602 140.028L337.293 144.068L329.76 144.988L329.069 140.949L336.602 140.028Z" fill="#FDE199"/>
<path d="M306.021 143.774L306.711 147.827L272.19 152.058L271.512 148.006L306.021 143.774Z" fill="#7BCFF9"/>
<path d="M325.027 141.447L325.718 145.487L318.172 146.42L317.494 142.368L325.027 141.447Z" fill="#91D892"/>
<path d="M311.073 173.626L311.764 177.666L277.255 181.91L276.565 177.87L311.073 173.626Z" fill="#7BCFF9"/>
<path d="M341.667 169.88L342.345 173.92L334.812 174.84L334.134 170.8L341.667 169.88Z" fill="#FDE199"/>
<path d="M330.079 171.299L330.77 175.339L323.237 176.259L322.546 172.219L330.079 171.299Z" fill="#91D892"/>
<path d="M353.345 159.269C356.53 158.872 359.548 161.186 360.098 164.408L361.978 175.479C362.528 178.701 360.379 181.641 357.207 182.025L275.874 192.01C272.689 192.406 269.671 190.092 269.121 186.87L267.241 175.799C266.691 172.577 268.187 169.714 272.011 169.253L353.345 159.269ZM311.764 177.666L311.073 173.626L276.565 177.857L277.255 181.897L311.764 177.666ZM330.77 175.339L330.079 171.299L322.546 172.219L323.236 176.259L330.77 175.339ZM342.345 173.92L341.654 169.88L334.121 170.8L334.812 174.84L342.345 173.92ZM353.933 172.488L353.242 168.448L345.709 169.368L346.4 173.408L353.933 172.488Z" fill="#2F4F94"/>
<path d="M353.242 168.448L353.933 172.488L346.387 173.421L345.709 169.381L353.242 168.448Z" fill="#D4652C"/>
<path d="M348.28 129.417C351.465 129.021 354.483 131.335 355.033 134.556L356.913 145.628C357.463 148.849 355.315 151.777 352.143 152.173L270.809 162.158C267.624 162.554 264.606 160.253 264.056 157.031L262.176 145.96C261.626 142.738 263.122 139.875 266.946 139.414L348.28 129.43V129.417ZM306.711 147.827L306.021 143.774L271.513 148.006L272.203 152.058L306.711 147.827ZM325.718 145.487L325.027 141.434L317.494 142.355L318.184 146.408L325.718 145.487ZM337.293 144.068L336.602 140.015L329.069 140.936L329.76 144.988L337.293 144.068ZM348.868 142.649L348.178 138.596L340.644 139.517L341.335 143.569L348.868 142.649Z" fill="#2F4F94"/>
<g style="mix-blend-mode:multiply">
<path d="M296.262 206.533L283.855 208.093L283.804 207.862C282.371 201.854 276.731 202.493 276.731 202.493L254.936 205.152L253.452 196.663L287.705 192.457C291.043 192.048 294.202 194.452 294.778 197.827L296.249 206.533H296.262Z" fill="#D0D1D3"/>
</g>
<path d="M276.744 202.493C280.069 202.084 283.228 204.487 283.804 207.862L300.956 309.064C301.531 312.426 299.293 315.495 295.967 315.904L184.833 329.545C181.507 329.954 178.348 327.55 177.772 324.188L160.621 222.986C160.045 219.611 162.283 216.543 165.609 216.134L276.744 202.493Z" fill="#009EED"/>
<path d="M184.116 323.242C184.116 323.242 184.027 323.165 184.014 323.127L166.939 222.36L277.511 208.796C277.511 208.796 277.537 208.86 277.549 208.936L294.625 309.691L184.116 323.255V323.242Z" fill="#0561BC"/>
<path d="M251.048 230.363L251.713 234.326L244.359 235.221L243.681 231.271L251.048 230.363Z" fill="#E9F7FD"/>
<path d="M262.457 220.008C265.565 219.624 268.519 221.874 269.057 225.019L270.886 235.835C271.423 238.993 269.325 241.856 266.217 242.24L186.751 251.994C183.643 252.378 180.688 250.128 180.151 246.983L178.322 236.167C177.785 233.009 179.256 230.222 182.991 229.762L262.457 220.008ZM221.835 237.995L221.17 234.045L187.455 238.187L188.12 242.137L221.835 237.995ZM240.406 235.707L239.741 231.757L232.374 232.664L233.039 236.615L240.406 235.707ZM251.713 234.326L251.048 230.376L243.681 231.284L244.346 235.234L251.713 234.326ZM263.032 232.933L262.367 228.982L255 229.89L255.665 233.84L263.032 232.933Z" fill="#2F4F94"/>
<path d="M239.728 231.757L240.406 235.707L233.039 236.615L232.374 232.664L239.728 231.757Z" fill="#91D892"/>
<path d="M221.17 234.032L221.835 237.995L188.119 242.125L187.454 238.174L221.17 234.032Z" fill="#7BCFF9"/>
<path d="M262.355 228.982L263.033 232.933L255.665 233.84L255 229.89L262.355 228.982Z" fill="#D4652C"/>
<path d="M267.304 258.144L267.97 262.094L260.602 262.989L259.937 259.039L267.304 258.144Z" fill="#D4652C"/>
<path d="M255.985 259.524L256.663 263.475L249.296 264.382L248.618 260.432L255.985 259.524Z" fill="#E9F7FD"/>
<path d="M226.107 263.194L226.772 267.144L193.057 271.286L192.392 267.336L226.107 263.194Z" fill="#7BCFF9"/>
<path d="M244.678 260.918L245.343 264.868L237.976 265.776L237.311 261.813L244.678 260.918Z" fill="#91D892"/>
<path d="M231.044 292.355L231.722 296.305L198.006 300.447L197.329 296.497L231.044 292.355Z" fill="#7BCFF9"/>
<path d="M260.935 288.686L261.6 292.636L254.233 293.544L253.568 289.593L260.935 288.686Z" fill="#E9F7FD"/>
<path d="M249.615 290.079L250.28 294.03L242.926 294.925L242.248 290.987L249.615 290.079Z" fill="#91D892"/>
<path d="M272.331 278.33C275.439 277.947 278.393 280.197 278.931 283.342L280.76 294.157C281.297 297.302 279.199 300.179 276.091 300.562L196.625 310.317C193.517 310.701 190.563 308.45 190.025 305.306L188.196 294.49C187.659 291.345 189.13 288.545 192.865 288.085L272.331 278.33ZM231.722 296.305L231.057 292.355L197.341 296.497L198.006 300.447L231.722 296.305ZM250.28 294.03L249.615 290.079L242.248 290.987L242.913 294.937L250.28 294.03ZM261.6 292.636L260.935 288.686L253.567 289.593L254.233 293.544L261.6 292.636ZM272.906 291.255L272.241 287.305L264.874 288.213L265.539 292.163L272.906 291.255Z" fill="#2F4F94"/>
<path d="M272.241 287.305L272.907 291.255L265.552 292.15L264.874 288.213L272.241 287.305Z" fill="#D4652C"/>
<path d="M267.394 249.169C270.502 248.785 273.456 251.036 273.994 254.181L275.823 264.996C276.36 268.141 274.262 271.005 271.154 271.388L191.688 281.143C188.58 281.526 185.625 279.276 185.088 276.131L183.259 265.316C182.722 262.171 184.193 259.371 187.928 258.911L267.394 249.156V249.169ZM226.772 267.144L226.107 263.194L192.392 267.336L193.057 271.286L226.772 267.144ZM245.343 264.868L244.678 260.918L237.311 261.826L237.976 265.776L245.343 264.868ZM256.663 263.475L255.998 259.524L248.63 260.432L249.296 264.383L256.663 263.475ZM267.969 262.094L267.304 258.144L259.937 259.051L260.602 263.002L267.969 262.094Z" fill="#2F4F94"/>
<path d="M397.254 69.2406C401.104 70.0588 404.838 71.2861 408.432 72.9609C455.449 94.8223 460.719 183.086 420.212 270.11" stroke="#C2FCFF" stroke-width="0.704237" stroke-miterlimit="10"/>
<path d="M341.424 81.437C355.353 73.4083 369.218 68.7676 382.213 68.1028" stroke="#C2FCFF" stroke-width="0.704237" stroke-miterlimit="10"/>
<path d="M415.403 318.806C429.78 361.097 428.13 397.264 407.115 416.211C394.645 427.461 376.853 431.309 355.954 428.688" stroke="#C2FCFF" stroke-width="0.704237" stroke-miterlimit="10"/>
<path d="M408.087 299.898C408.803 301.56 409.494 303.209 410.172 304.845C410.837 306.469 411.477 308.093 412.103 309.703" stroke="#C2FCFF" stroke-width="0.704237" stroke-miterlimit="10"/>
<path d="M162.207 99.6037C208.878 93.8635 280.99 132.281 341.68 199.501C367.248 227.819 387.52 257.62 401.641 286.052" stroke="#C2FCFF" stroke-width="0.704237" stroke-miterlimit="10"/>
<path d="M140.77 106.443C143.776 104.717 146.986 103.311 150.388 102.186" stroke="#C2FCFF" stroke-width="0.704237" stroke-miterlimit="10"/>
<path d="M126.317 215.162C109.907 170.532 110.764 132.063 132.674 112.299" stroke="#C2FCFF" stroke-width="0.704237" stroke-miterlimit="10"/>
<path d="M245.727 129.404C250.001 129.404 253.465 125.941 253.465 121.67C253.465 117.398 250.001 113.935 245.727 113.935C241.453 113.935 237.989 117.398 237.989 121.67C237.989 125.941 241.453 129.404 245.727 129.404Z" fill="#00ACEC" stroke="#C2FCFF" stroke-width="0.704237" stroke-miterlimit="10"/>
<path d="M413.523 414.996C416.773 414.996 419.407 412.363 419.407 409.115C419.407 405.867 416.773 403.234 413.523 403.234C410.274 403.234 407.64 405.867 407.64 409.115C407.64 412.363 410.274 414.996 413.523 414.996Z" fill="#00ACEC" stroke="#C2FCFF" stroke-width="0.704237" stroke-miterlimit="10"/>
<path d="M446.023 141.831C448.948 141.831 451.318 139.461 451.318 136.538C451.318 133.615 448.948 131.245 446.023 131.245C443.099 131.245 440.728 133.615 440.728 136.538C440.728 139.461 443.099 141.831 446.023 141.831Z" fill="#00ACEC" stroke="#C2FCFF" stroke-width="0.704237" stroke-miterlimit="10"/>
<path d="M173.027 420.903C165.89 417.016 158.689 412.695 151.488 407.939" stroke="#C2FCFF" stroke-width="0.704237" stroke-miterlimit="10"/>
<path d="M191.279 429.941C187.8 428.394 184.295 426.732 180.765 424.955" stroke="#C2FCFF" stroke-width="0.704237" stroke-miterlimit="10"/>
<path d="M99.3933 227.256C131.817 230.683 174.089 249.936 213.7 281.846C278.688 334.211 311.891 400.818 287.858 430.619C272.727 449.386 238.513 449.092 199.017 433.214" stroke="#C2FCFF" stroke-width="0.704237" stroke-miterlimit="10"/>
<path d="M50.1507 292.981C42.4126 271.797 42.6044 253.286 52.5041 241.013C59.6795 232.115 71.1524 227.499 85.4391 226.809" stroke="#C2FCFF" stroke-width="0.704237" stroke-miterlimit="10"/>
<path d="M226.849 300.422C231.122 300.422 234.587 296.959 234.587 292.687C234.587 288.416 231.122 284.953 226.849 284.953C222.575 284.953 219.111 288.416 219.111 292.687C219.111 296.959 222.575 300.422 226.849 300.422Z" fill="#00ACEC" stroke="#C2FCFF" stroke-width="0.704237" stroke-miterlimit="10"/>
<path d="M345.44 404.679C344.916 404.679 344.405 404.73 343.906 404.82C343.906 404.769 343.906 404.73 343.906 404.679C343.906 395.014 336.065 387.19 326.409 387.19C324.541 387.19 322.725 387.484 321.037 388.034C317.839 376.822 307.517 368.614 295.277 368.614C281.246 368.614 269.735 379.391 268.584 393.122C267.138 392.649 265.591 392.393 263.992 392.393C255.768 392.393 249.104 399.054 249.104 407.274C249.104 415.495 255.768 422.155 263.992 422.155H345.428C350.262 422.155 354.176 418.243 354.176 413.411C354.176 408.578 350.262 404.666 345.428 404.666L345.44 404.679Z" fill="#C2FCFF"/>
<path d="M102.745 92.0608C106.573 92.0608 109.677 88.9585 109.677 85.1317C109.677 81.3048 106.573 78.2025 102.745 78.2025C98.916 78.2025 95.8123 81.3048 95.8123 85.1317C95.8123 88.9585 98.916 92.0608 102.745 92.0608Z" fill="#C2FCFF"/>
<path d="M455.258 32.7282C464.3 32.7282 471.629 25.4017 471.629 16.3641C471.629 7.32646 464.3 0 455.258 0C446.216 0 438.886 7.32646 438.886 16.3641C438.886 25.4017 446.216 32.7282 455.258 32.7282Z" fill="#C2FCFF"/>
<path d="M339.506 469.969C345.687 469.969 350.697 464.961 350.697 458.783C350.697 452.605 345.687 447.596 339.506 447.596C333.325 447.596 328.314 452.605 328.314 458.783C328.314 464.961 333.325 469.969 339.506 469.969Z" fill="#C2FCFF"/>
<path d="M575.116 455.382C580.393 455.382 584.67 451.106 584.67 445.832C584.67 440.558 580.393 436.282 575.116 436.282C569.839 436.282 565.562 440.558 565.562 445.832C565.562 451.106 569.839 455.382 575.116 455.382Z" fill="#C2FCFF"/>
<path d="M382.212 51.841C387.489 51.841 391.767 47.5653 391.767 42.291C391.767 37.0167 387.489 32.741 382.212 32.741C376.936 32.741 372.658 37.0167 372.658 42.291C372.658 47.5653 376.936 51.841 382.212 51.841Z" fill="#C2FCFF"/>
<path d="M116.903 505.6L194.144 476.873C196.868 475.863 198.249 472.833 197.239 470.11L153.598 352.902C152.588 350.179 149.557 348.798 146.832 349.808L69.5918 378.535C66.8675 379.545 65.4861 382.575 66.4966 385.298L110.137 502.506C111.327 505.689 114.179 506.61 116.903 505.6Z" fill="#2F4F94"/>
<path d="M145.937 494.797L223.178 466.07C225.902 465.06 227.284 462.03 226.273 459.307L182.633 342.099C181.622 339.376 179.435 337.676 175.867 339.005L98.626 367.732C95.9017 368.742 94.5203 371.772 95.5307 374.495L139.171 491.703C140.182 494.426 143.213 495.807 145.937 494.797Z" fill="#71C3EF"/>
<path d="M219.79 460.421L176.988 345.443L101.983 373.339L144.785 488.317L219.79 460.421Z" fill="#3F6AD8"/>
<path d="M216.652 461.597L219.829 460.416L177.026 345.438L173.85 346.619L216.652 461.597Z" fill="#2F4F94"/>
<path d="M84.5951 364.331L118.899 351.572C120.689 350.908 121.354 351.726 121.789 352.902L123.823 358.361L85.2986 372.692L83.2649 367.233C82.8301 366.07 83.4184 364.779 84.5951 364.344V364.331Z" fill="#3F6AD8"/>
<path d="M112.529 353.938L146.833 341.179C148.291 340.642 149.288 341.332 149.723 342.508L151.757 347.967L113.232 362.299L111.199 356.84C110.764 355.676 111.352 354.385 112.529 353.95V353.938Z" fill="#2F4F94"/>
<path d="M119.666 394.042L175.176 373.396C177.35 372.59 178.45 370.174 177.644 368L174.869 360.547C174.063 358.374 171.646 357.274 169.471 358.08L113.961 378.727C111.352 379.698 110.687 381.948 111.493 384.122L114.268 391.575C115.074 393.748 117.491 394.848 119.666 394.042Z" fill="#2F4F94"/>
<path d="M166.512 369.163L171.654 367.25L170.642 364.53L165.499 366.443L166.512 369.163Z" fill="#D4652C"/>
<path d="M158.607 372.089L163.75 370.177L162.737 367.457L157.594 369.369L158.607 372.089Z" fill="#E9F7FD"/>
<path d="M119.317 386.701L142.872 377.94L141.86 375.22L118.304 383.981L119.317 386.701Z" fill="#7BCFF9"/>
<path d="M150.703 375.029L155.845 373.116L154.833 370.396L149.69 372.309L150.703 375.029Z" fill="#91D892"/>
<path d="M127.558 415.213L183.068 394.567C185.242 393.761 186.342 391.345 185.536 389.172L182.761 381.718C181.955 379.545 179.538 378.445 177.363 379.251L121.853 399.898C119.679 400.703 118.298 402.378 119.385 405.293L122.16 412.746C122.966 414.919 125.383 416.019 127.558 415.213Z" fill="#2F4F94"/>
<path d="M174.389 390.336L179.531 388.423L178.519 385.704L173.376 387.616L174.389 390.336Z" fill="#D4652C"/>
<path d="M166.484 393.276L171.627 391.363L170.614 388.643L165.472 390.556L166.484 393.276Z" fill="#E9F7FD"/>
<path d="M127.211 407.882L150.766 399.121L149.753 396.401L126.198 405.162L127.211 407.882Z" fill="#7BCFF9"/>
<path d="M158.58 396.202L163.722 394.289L162.71 391.57L157.567 393.482L158.58 396.202Z" fill="#91D892"/>
<path d="M151.207 478.752L206.717 458.105C208.891 457.3 209.991 454.884 209.185 452.71L200.641 429.775C199.836 427.602 197.418 426.502 195.244 427.308L139.734 447.954C137.56 448.76 136.281 450.716 137.265 453.349L145.809 476.285C146.615 478.458 149.033 479.558 151.207 478.752Z" fill="#2F4F94"/>
<path d="M135.436 436.397L190.946 415.75C193.121 414.945 194.221 412.529 193.415 410.355L190.639 402.902C189.834 400.729 187.416 399.629 185.242 400.435L129.732 421.081C126.662 422.219 126.458 424.303 127.263 426.477L130.039 433.93C130.845 436.103 133.262 437.203 135.436 436.397Z" fill="#2F4F94"/>
<path d="M182.278 411.505L187.421 409.592L186.408 406.873L181.266 408.785L182.278 411.505Z" fill="#D4652C"/>
<path d="M174.374 414.445L179.516 412.532L178.504 409.812L173.361 411.725L174.374 414.445Z" fill="#E9F7FD"/>
<path d="M135.088 429.056L158.643 420.295L157.631 417.575L134.075 426.336L135.088 429.056Z" fill="#7BCFF9"/>
<path d="M166.474 417.396L171.616 415.483L170.604 412.763L165.461 414.676L166.474 417.396Z" fill="#91D892"/>
<path d="M143.328 457.581L198.838 436.934C201.012 436.129 202.112 433.713 201.307 431.539L198.531 424.086C197.725 421.913 195.308 420.813 193.134 421.618L137.624 442.265C135.449 443.071 134.349 445.487 135.155 447.66L137.931 455.114C138.928 457.786 141.154 458.387 143.328 457.581Z" fill="#2F4F94"/>
<path d="M190.16 432.691L195.302 430.778L194.29 428.058L189.147 429.971L190.16 432.691Z" fill="#D4652C"/>
<path d="M182.255 435.63L187.398 433.717L186.385 430.998L181.243 432.91L182.255 435.63Z" fill="#E9F7FD"/>
<path d="M142.982 450.237L166.537 441.476L165.524 438.756L141.969 447.517L142.982 450.237Z" fill="#7BCFF9"/>
<path d="M174.364 438.57L179.506 436.657L178.494 433.937L173.351 435.85L174.364 438.57Z" fill="#91D892"/>
<path d="M584.018 470.57L489.28 456.29C485.942 455.791 483.64 452.672 484.138 449.335L505.818 305.574C506.317 302.237 509.438 299.936 512.776 300.435L607.514 314.715C610.852 315.213 613.154 318.333 612.655 321.67L590.976 465.431C590.387 469.33 587.356 471.069 584.018 470.57Z" fill="#2F4F94"/>
<path d="M548.397 465.201L453.659 450.92C450.321 450.422 448.019 447.302 448.517 443.966L470.197 300.204C470.696 296.868 472.781 294.413 477.155 295.065L571.893 309.345C575.231 309.844 577.533 312.963 577.034 316.3L555.355 460.061C554.856 463.398 551.735 465.699 548.397 465.201Z" fill="#71C3EF"/>
<path d="M548.191 457.609L569.452 316.591L477.454 302.733L456.193 443.751L548.191 457.609Z" fill="#3F6AD8"/>
<path d="M481.347 303.25L477.452 302.663L456.19 443.682L460.086 444.268L481.347 303.25Z" fill="#2F4F94"/>
<path d="M587.062 302.135L544.982 295.794C542.782 295.461 542.219 296.561 542.002 297.993L540.991 304.692L588.251 311.813L589.262 305.114C589.479 303.682 588.494 302.352 587.062 302.135Z" fill="#3F6AD8"/>
<path d="M552.809 296.97L510.729 290.629C508.939 290.36 507.967 291.396 507.749 292.828L506.739 299.527L553.999 306.648L555.009 299.949C555.227 298.517 554.242 297.187 552.809 296.97Z" fill="#2F4F94"/>
<path d="M554.255 344.298L486.172 334.032C483.511 333.636 481.67 331.143 482.079 328.484L483.46 319.343C483.857 316.684 486.351 314.843 489.011 315.252L557.094 325.518C560.304 326.004 561.596 328.407 561.187 331.066L559.806 340.207C559.409 342.866 556.915 344.707 554.255 344.298Z" fill="#2F4F94"/>
<path d="M495.57 323.787L489.259 322.836L488.756 326.174L495.067 327.124L495.57 323.787Z" fill="#D4652C"/>
<path d="M505.272 325.253L498.961 324.302L498.458 327.64L504.769 328.591L505.272 325.253Z" fill="#E9F7FD"/>
<path d="M553.453 332.502L524.566 328.15L524.063 331.488L552.95 335.839L553.453 332.502Z" fill="#7BCFF9"/>
<path d="M514.961 326.706L508.65 325.756L508.147 329.093L514.458 330.044L514.961 326.706Z" fill="#91D892"/>
<path d="M550.328 370.276L482.246 360.01C479.585 359.614 477.743 357.121 478.153 354.462L479.534 345.321C479.931 342.662 482.425 340.821 485.085 341.23L553.168 351.496C555.828 351.892 557.811 353.477 557.261 357.044L555.879 366.185C555.483 368.844 552.989 370.685 550.328 370.276Z" fill="#2F4F94"/>
<path d="M491.664 349.774L485.353 348.823L484.85 352.161L491.161 353.111L491.664 349.774Z" fill="#D4652C"/>
<path d="M501.353 351.227L495.042 350.277L494.539 353.614L500.85 354.565L501.353 351.227Z" fill="#E9F7FD"/>
<path d="M549.535 358.487L520.648 354.136L520.145 357.473L549.032 361.824L549.535 358.487Z" fill="#7BCFF9"/>
<path d="M511.056 352.681L504.745 351.73L504.241 355.068L510.553 356.018L511.056 352.681Z" fill="#91D892"/>
<path d="M538.574 448.21L470.491 437.944C467.831 437.548 465.989 435.055 466.398 432.396L470.645 404.257C471.041 401.598 473.535 399.757 476.196 400.166L544.278 410.432C546.939 410.828 548.87 412.759 548.371 415.981L544.125 444.119C543.728 446.778 541.234 448.619 538.574 448.21Z" fill="#2F4F94"/>
<path d="M546.414 396.254L478.331 385.988C475.671 385.592 473.829 383.099 474.239 380.44L475.62 371.299C476.016 368.64 478.511 366.799 481.171 367.208L549.254 377.474C553.014 378.036 553.756 380.363 553.347 383.022L551.965 392.163C551.569 394.822 549.075 396.663 546.414 396.254Z" fill="#2F4F94"/>
<path d="M487.735 375.734L481.424 374.783L480.92 378.121L487.232 379.071L487.735 375.734Z" fill="#D4652C"/>
<path d="M497.435 377.2L491.124 376.249L490.621 379.587L496.932 380.537L497.435 377.2Z" fill="#E9F7FD"/>
<path d="M545.616 384.461L516.729 380.11L516.226 383.447L545.113 387.799L545.616 384.461Z" fill="#7BCFF9"/>
<path d="M507.124 378.666L500.813 377.715L500.31 381.053L506.621 382.003L507.124 378.666Z" fill="#91D892"/>
<path d="M542.487 422.232L474.405 411.966C471.744 411.57 469.903 409.077 470.312 406.418L471.693 397.277C472.09 394.618 474.584 392.777 477.244 393.186L545.327 403.452C547.987 403.848 549.829 406.341 549.42 409L548.038 418.141C547.54 421.427 545.148 422.641 542.487 422.232Z" fill="#2F4F94"/>
<path d="M483.829 401.721L477.518 400.77L477.014 404.108L483.325 405.058L483.829 401.721Z" fill="#D4652C"/>
<path d="M493.516 403.187L487.205 402.236L486.702 405.574L493.013 406.524L493.516 403.187Z" fill="#E9F7FD"/>
<path d="M541.699 410.434L512.812 406.082L512.309 409.42L541.196 413.771L541.699 410.434Z" fill="#7BCFF9"/>
<path d="M503.218 404.64L496.907 403.69L496.404 407.027L502.715 407.978L503.218 404.64Z" fill="#91D892"/>
<path d="M142.727 456.673C142.202 456.673 141.691 456.725 141.192 456.814C141.192 456.763 141.192 456.725 141.192 456.673C141.192 447.008 133.352 439.184 123.695 439.184C121.828 439.184 120.011 439.478 118.323 440.028C115.125 428.816 104.804 420.609 92.5634 420.609C78.5324 420.609 67.0211 431.386 65.87 445.116C64.4247 444.643 62.8771 444.388 61.2783 444.388C53.0541 444.388 46.3904 451.048 46.3904 459.269C46.3904 467.489 53.0541 474.15 61.2783 474.15H142.714C147.549 474.15 151.463 470.238 151.463 465.405C151.463 460.573 147.549 456.661 142.714 456.661L142.727 456.673Z" fill="#C2FCFF"/>
</g>
<defs>
<clipPath id="clip0_1305_738">
<rect width="637.647" height="505.983" fill="white"/>
</clipPath>
</defs>
</svg>
