<svg xmlns="http://www.w3.org/2000/svg" width="792" height="749" fill="none"><filter id="a" width="758" height="220" x="34" y="529" color-interpolation-filters="sRGB" filterUnits="userSpaceOnUse"><feFlood flood-opacity="0" result="BackgroundImageFix"/><feBlend in="SourceGraphic" in2="BackgroundImageFix" result="shape"/><feGaussianBlur result="effect1_foregroundBlur_320_161" stdDeviation="40"/></filter><clipPath id="b"><path d="M525 461h117v93H525z"/></clipPath><g filter="url(#a)"><ellipse cx="413" cy="639" fill="#09548a" fill-opacity=".8" rx="299" ry="30"/></g><path fill="#0566c6" d="m215.933 276.593-113.121 41.35c-3.712 2.681-6.083 14.23 1.238 16.808l353.385 103.325c7.322 2.062 16.602-2.166 21.14-8.25l68.47-96.621-1.856-11.962z"/><path fill="#0566c6" d="m251.096 67.057 309.56 15.158c12.89.825 14.952 8.25 14.437 13.302L552.819 315.88c-.309 2.785-2.475 4.95-5.259 5.156l-2.578.207-327.812-50.941 24.439-195.511c.619-4.64 4.743-8.044 9.487-7.734"/><path fill="#008bea" d="m244.187 63.448 315.748 18.664c5.053.31 8.868 4.744 8.352 9.796l-23.201 229.335-334.721-54.447 24.439-195.511c.618-4.64 4.64-8.147 9.383-7.837"/><path fill="#09548a" d="m245.734 74.894 311.004 18.355-21.758 214.898-312.035-50.837z"/><path fill="#2799e9" d="m545.085 321.346-72.491 97.962c-4.538 6.084-12.272 8.765-19.593 6.703L132.82 334.442l-28.873-8.25c-4.022-1.134-4.434-6.599-.722-8.455l107.139-50.941 118.38 19.283z"/><path fill="#ff9185" d="m203.868 114.388 167.051 13.715c2.269.206 4.022 2.165 3.816 4.434l-2.475 29.904c-.206 2.269-2.269 4.022-4.537 3.815l-166.33-15.673c-2.268-.207-3.918-2.166-3.712-4.435l1.753-28.048c.103-2.165 2.165-3.918 4.434-3.712"/><path fill="#064774" d="m535.083 308.147-202.937-32.998L535.805 92.011l21.036 1.238z"/><path fill="#ff9185" d="m451.661 203.585 137.972 17.839c2.268.31 3.918 2.372 3.609 4.641l-8.147 60.014c-.309 2.269-2.371 3.919-4.64 3.609L443.308 269.89c-2.269-.31-3.815-2.372-3.506-4.538l7.425-58.055c.103-2.269 2.165-3.918 4.434-3.712"/><path fill="#3ba4eb" d="M328.744 286.079 132.82 334.442l-28.873-8.25c-4.022-1.134-4.434-6.599-.722-8.455l107.139-50.941z"/><path fill="#52afee" d="m212.015 278.552 312.86 50.94-33.204 44.341c-1.65 2.268-4.641 3.3-7.425 2.475l-320.491-75.07z"/><path fill="#d5e599" d="M232.947 133.156c8.885 0 16.087-7.202 16.087-16.087s-7.202-16.086-16.087-16.086-16.086 7.202-16.086 16.086c0 8.885 7.202 16.087 16.086 16.087"/><g fill="#52afee"><path d="m319.36 189.973-.309 3.094-17.53-1.856-11.137-1.238-17.014-1.753.309-3.093 17.014 1.753 11.137 1.237zM382.263 199.873l-21.14-2.269-11.136-1.134-19.799-2.166.309-3.093 19.799 2.165 11.137 1.135 21.139 2.268zM348.852 207.71l-19.696-2.166-11.24-1.134-17.427-1.856-11.24-1.238-17.014-1.856.412-3.093 16.912 1.856 11.24 1.237 17.427 1.856 11.239 1.238 19.696 2.062zM381.128 211.216l-21.036-2.269.309-3.093 21.139 2.268zM288.425 209.463l-.31 3.094-16.911-1.753.309-3.094zM380.097 222.456l-21.036-2.269-11.343-1.237-19.593-2.063-11.343-1.237-17.324-1.856.31-3.094 17.324 1.856 11.343 1.238 19.592 2.062 11.343 1.238 21.036 2.268zM315.957 223.899l-.309 2.991-17.221-1.856-11.446-1.135-16.808-1.856.309-3.093 16.808 1.856 11.447 1.237zM379.066 233.696l-21.036-2.166-11.446-1.237-19.49-2.166.31-3.093 19.489 2.165 11.446 1.238 21.036 2.268z"/></g><path fill="#ff675c" d="m150.968 421.783-2.165-14.436c-.722-4.641 1.547-9.9 13.921-10.931l12.993 5.981 172.929-20.108c3.506-.309 6.702 2.784 7.321 6.703l1.856 12.477L381.85 563.88c.618 4.021-1.65 7.837-5.053 8.662l-187.984 43.619c-4.434 1.031-8.662-1.856-9.384-6.497z"/><path fill="#ff9185" d="m156.64 405.49 30.833 202.318c.721 4.64 4.949 7.527 9.383 6.496l187.984-43.619c3.403-.825 5.569-4.64 5.053-8.662l-25.882-174.785c-.619-4.021-3.919-7.012-7.322-6.702l-192.831 15.88c-4.743.309-7.94 4.434-7.218 9.074"/><path fill="#febbad" d="m156.64 405.49 2.165 14.437 206.855-20.211-1.856-12.478c-.619-4.021-3.918-7.012-7.321-6.702l-192.831 15.88c-4.537.309-7.734 4.434-7.012 9.074"/><g fill="#c2fcff"><path d="M190.875 407.037c-.206-1.65.722-2.99 2.062-3.093 1.341-.104 2.681 1.031 2.888 2.681.206 1.546-.722 2.99-2.063 3.093-1.237.103-2.578-1.031-2.887-2.681M178.913 408.171c-.206-1.649.722-2.99 2.063-3.196 1.443-.103 2.681 1.031 2.99 2.681.206 1.65-.722 2.99-2.062 3.196-1.444.104-2.784-1.134-2.991-2.681M166.642 409.203c-.206-1.65.722-3.094 2.166-3.197s2.784 1.134 2.99 2.681c.207 1.65-.722 3.094-2.165 3.197-1.444.206-2.784-1.031-2.991-2.681"/></g><path fill="#b8d167" d="m270.792 552.124-113.533 25.883c-2.578.619-4.847-.928-5.156-3.3l-14.127-116.008c-.31-2.474 1.546-4.64 4.124-4.949l116.008-12.581c2.062-.206 3.919 1.341 4.125 3.506l11.652 102.706c.309 2.268-1.134 4.331-3.093 4.743"/><path fill="#9cbd36" d="m205.208 503.555-4.021-33.823c-19.18 2.475-33.411 20.315-31.142 39.598 2.269 19.18 20.108 31.657 39.082 27.842 18.252-3.609 30.935-21.036 28.873-38.979z"/><path fill="#9cbd36" d="M242.022 493.037c-2.063-17.942-18.149-30.729-36.504-28.46l3.919 33.616z"/><g fill="#febbad"><path d="m337.509 503.762-48.259 8.765-.722-6.187 48.363-8.353zM362.155 499.225l-18.252 3.299-.619-5.671 18.252-3.197zM320.289 536.038l44.753-9.899-.619-5.466-44.856 9.487zM292.55 542.122l20.83-4.538-.619-5.98-20.933 4.434zM318.639 521.808l28.976-5.878-.619-5.672-28.976 5.569zM290.9 527.376l20.83-4.228-.619-5.981-20.933 4.022zM352.874 514.899l10.724-2.166-.619-5.568-10.724 2.062z"/></g><path fill="#ba7401" d="m748.538 145.221-164.473 47.125c-7.941 1.959-15.674-2.063-17.221-9.178l-33.41-145.5c-.929-4.02 2.165-7.836 6.908-8.455L712.962.856c7.321-1.032 14.643 4.021 16.293 11.446l27.326 119.72c1.237 5.774-2.269 11.755-8.043 13.199"/><path fill="#fda801" d="m752.25 144.602-164.473 47.022c-7.94 1.959-15.674-2.063-17.221-9.178L537.249 37.05c-.928-4.022 2.165-7.837 6.909-8.456L692.442 4.155 716.674.133c7.425-1.03 14.643 4.022 16.293 11.447l11.24 49.187 16.086 70.533c1.238 5.877-2.268 11.755-8.043 13.302"/><path fill="#ba7401" d="m756.787 137.384-19.902-88.888c-.928-4.021-4.846-6.703-8.765-5.98l-91.878 16.086s-6.084-6.91-11.549-11.446c-2.784-2.269-4.537-4.125-8.559-3.403l-62.18 9.796c-5.259.825-8.765 5.156-7.734 9.796l3.919 17.84 23.717 107.655c.618 2.99 4.021 4.743 7.424 3.712l172.207-49.29c2.372-.722 3.919-3.3 3.3-5.878"/><path fill="#dc8e01" d="m744.104 60.767-76.308 14.746 24.646-71.358L716.674.133c7.425-1.03 14.643 4.022 16.293 11.447z"/><path fill="#fdbb34" d="m758.231 142.436-75.895 21.758-96.312 27.532c-3.403 1.032-6.806-.721-7.425-3.712L554.882 80.359l-3.918-17.84c-1.031-4.537 2.475-8.868 7.734-9.796l62.18-9.796c3.918-.619 5.671 1.134 8.559 3.403 5.465 4.434 11.549 11.446 11.549 11.446l68.573-11.962 23.408-4.124c3.919-.722 7.837 1.959 8.765 5.98l19.902 88.888c.516 2.578-.928 5.156-3.403 5.878"/><path fill="#fdf4cb" d="m582.105 122.535 10.209 46.093c.309 1.238 1.444 1.96 2.681 1.65l60.015-15.571c1.134-.309 1.856-1.443 1.547-2.578l-9.59-42.278c-.31-1.134-1.341-1.856-2.475-1.65l-60.634 11.756c-1.237.206-1.959 1.443-1.753 2.578"/><path fill="#fda801" d="m758.231 142.436-75.895 21.758 27.223-118.38 23.408-4.124c3.918-.722 7.837 1.959 8.765 5.98l19.902 88.888c.515 2.578-.928 5.156-3.403 5.878"/><path fill="#d0d2d9" d="m470.325 643.074 222.013 55.271c3.609.928 6.806-1.443 7.219-5.259l34.338-355.86c.412-4.125-1.959-13.302-10.724-13.818l-232.016 19.077c-2.578.103-4.743 2.887-4.95 6.29l-25.47 284.606c-.206 3.094 7.218 9.074 9.59 9.693"/><path fill="#fff" d="m464.241 637.918 222.426 55.374c3.609.928 6.806-1.443 7.218-5.362l14.437-155.399 18.767-202.317c.412-4.125-2.475-7.322-6.29-7.218l-119.102 6.393-117.554 6.393c-2.578.103-4.744 2.991-4.95 6.29l-18.87 289.04c-.207 3.197 1.546 6.187 3.918 6.806"/><path fill="#fff" d="m601.595 329.389 106.624 203.039 18.767-202.317c.413-4.125-2.475-7.322-6.29-7.218z"/><path fill="#09548a" d="m471.356 598.011 131.166 27.223 81.979 17.015 27.326-299.455-222.941 8.559-1.134.103z"/><path fill="#d0d2d9" d="M557.46 636.062c.412-5.671 4.64-9.487 9.487-8.456 4.846 1.032 8.558 6.6 8.043 12.374-.413 5.775-4.847 9.487-9.693 8.353-4.744-1.031-8.25-6.496-7.837-12.271"/><path fill="#064774" d="m471.356 598.011 131.166 27.224-113.636-273.882-1.134.103z"/><path fill="#ff675c" d="m660.785 443.128-138.9-7.63c-3.506-.31-6.188 2.062-6.497 5.981l-9.796 112.089c-.413 4.64 3.3 9.796 7.837 10.724l139.828 28.564c3.815.825 7.115-1.753 7.321-5.775l8.559-132.713c.413-5.465-3.506-10.724-8.352-11.24"/><g fill="#fff" clip-path="url(#b)"><path d="M641.927 481.86c.073-.725 0-1.449-.072-2.246-.726-4.49-4.791-8.039-9.218-8.039-4.863-.073-7.984 3.983-8.129 7.677-.218 4.925-.653 9.778-.944 14.704 0 .144 0 .362-.072.579a1 1 0 0 1-.29-.217c-3.557-2.463-7.331-4.201-11.468-5.143a31.2 31.2 0 0 0-9.653-.869c-4.138.29-8.057 1.449-11.686 3.332-9 4.563-15.895 13.979-16.113 25.712-.072 2.318.073 4.708.581 7.026 1.234 6.084 3.919 11.661 7.984 16.514 5.661 6.736 12.556 11.082 20.975 12.675a28 28 0 0 0 7.767.435c7.984-.797 14.588-4.056 19.887-9.778 4.427-4.853 7.113-10.72 7.548-17.601 1.016-14.993 1.96-29.913 2.903-44.761m-36.217 54.322c-7.258-1.014-14.662-8.402-14.081-17.455.508-7.606 7.476-14.052 16.04-12.748 7.766 1.231 14.444 8.691 13.863 17.455-.508 8.402-8.419 14.052-15.822 12.748M569.855 491.855c.072-.652.072-1.304-.073-1.956-.363-2.607-1.451-4.925-3.484-6.663-2.54-2.173-5.443-2.535-8.274-1.521-3.266 1.159-5.081 3.549-5.298 7.17-1.016 15.79-2.105 31.58-3.121 47.442v1.086c.217 1.956.798 3.839 2.105 5.433 2.612 3.331 6.967 4.418 10.596 2.897 2.758-1.232 4.21-3.477 4.428-6.664.508-7.895 1.016-15.79 1.597-23.684.508-7.823 1.016-15.645 1.524-23.54M534.943 523c-5.08-.724-9.725 2.897-9.943 7.75-.436 6.374 3.992 10.14 8.782 10.865 4.718.724 9-2.825 9.436-7.823.435-4.78-3.267-9.995-8.275-10.792M562.379 478.528c4.5.724 8.565-2.68 8.855-7.388.29-4.78-3.194-9.343-7.766-10.068-4.791-.724-9 2.463-9.363 7.098-.436 6.229 3.774 9.634 8.274 10.358"/></g><path fill="#c2fcff" d="m520.853 407.346 240.78 11.343c6.29.412 11.756-3.506 11.962-8.559l.722-16.602c.206-5.156-4.847-9.487-11.24-9.487l-243.359-2.475c-2.784 0-4.846 2.681-4.743 5.981l.825 13.612c.103 3.3 2.372 6.084 5.053 6.187"/><g fill="#1ccdf7"><path d="m534.258 390.229-1.031-.825-6.084 5.568 5.878 5.569 1.134-.722-4.537-4.228 12.89.206v-1.134l-12.89-.206zM558.388 390.847l4.022 4.228-12.065-.206v1.134l12.065.103-4.228 3.919.928.825 5.568-5.156-5.259-5.569zM580.867 401.159c-3.196 0-5.877-2.372-5.774-5.362.103-2.888 2.784-5.259 6.084-5.156 2.475.103 4.64 1.547 5.362 3.712l-2.99-.103v1.031l4.124.103 1.856-3.506-1.031-.412-1.031 1.959c-1.031-2.269-3.403-3.712-6.187-3.815-3.919-.103-7.218 2.681-7.321 6.187-.104 3.506 2.99 6.393 6.908 6.393 3.094 0 5.878-1.753 6.806-4.331l-1.134-.309c-.825 2.165-3.197 3.609-5.672 3.609"/></g><path fill="#0566c6" d="M188.606 217.3c.103-.412.309-.619.825-.722l10.827-2.165v-23.202l-7.115-3.196-2.784 1.546v.413c-1.134-.103-2.269-.206-3.403-.413-.206 0-.516-.206-.619-.412-1.031-3.403-2.681-6.394-4.227-9.487-.207-.516-.31-.825.103-1.341 2.681-3.712 5.259-7.527 7.94-11.239.103-.104.103-.207.309-.516-.515-.413-1.134-.825-1.65-1.341-4.846-4.227-9.487-8.352-14.127-12.477-.206-.206-.309-.206-.516-.206l-7.012-3.197-1.031 2.475 4.125 3.919-6.496 5.568c-.413.309-.619.412-1.032.206-2.784-1.443-5.774-2.475-8.868-2.99-.412-.103-.412-.31-.515-.619-.413-3.918-.825-7.734-1.238-11.549q0-.465-.309-.619l-7.012-3.093-.928 4.124c-3.506.516-7.012 1.031-10.415 1.444-.516.103-.619.206-.722.825-.516 3.815-1.134 7.734-1.65 11.549 0 .309-.103.516-.412.722-2.785 1.031-5.363 2.681-7.734 4.537-.413.309-.619.309-1.031.103-2.681-1.959-5.363-3.815-8.044-5.774-.103-.103-.206-.103-.309-.103l-7.218-3.197.928 2.578 4.64 2.268c-3.403 4.331-6.806 8.662-10.209 12.89-.103.103-.206.31-.309.413.928 1.65 1.959 3.299 2.887 4.846.825 1.341 1.65 2.681 2.475 4.125.103.206.206.515.103.619-1.237 2.474-2.062 5.156-2.784 7.837-.309.928-.619 1.34-1.547 1.546-2.68.413-5.259.928-7.837 1.444v15.674l-.412-.309-4.537-1.341-2.166 1.547 7.115 3.196c2.372.516 4.847.929 7.322 1.444.722.103 1.547 0 1.959.516.413.412.516 1.443.722 2.165.619 2.269 1.547 4.434 2.681 6.497.206.412.206.618 0 1.031-1.753 2.887-3.403 5.878-5.156 8.765-.206.309-.206.515 0 .825 2.372 2.887 4.847 5.878 7.321 8.868l-2.784 2.062 7.115 3.197c1.444-1.031 2.888-1.959 4.331-2.99 1.444-.928 2.785-1.96 4.228-2.888a.88.88 0 0 1 .722 0c2.578 1.341 5.053 2.681 7.734 4.022.412.206.619.515.722 1.031.309 2.166.618 4.434.928 6.6l-6.29 2.165 7.115 3.197c1.237.103 2.578.206 3.815.309 5.053.413 10.209.928 15.468 1.341.515 0 .618-.103.722-.619.618-3.919 1.237-7.837 1.856-11.652 0-.31 0-.619.515-.619 3.197-.516 6.084-1.753 8.868-3.403.516-.309.929-.206 1.341.206 1.341 1.031 2.578 2.166 3.918 3.197l-.721.309v1.65l7.115 3.197c5.362-4.95 10.724-10.106 16.396-15.262-.619-.825-1.238-1.753-1.96-2.681-2.062-2.887-4.228-5.774-6.29-8.559-.309-.412-.309-.618-.103-1.134 1.856-3.093 3.3-6.29 4.331-9.693m-46.197 7.94c-10.93.103-19.386-8.662-19.592-20.417-.207-11.756 7.837-21.243 18.973-22.171 11.24-.928 20.521 8.044 20.624 20.315.103 12.58-8.868 22.273-20.005 22.273"/><path fill="#1ccdf7" d="M181.491 214.103c.103-.412.31-.619.825-.722l10.828-2.165v-23.202c-1.341-.103-2.682-.309-4.022-.412-3.197-.31-6.29-.722-9.384-1.031-.206 0-.515-.207-.618-.413-1.032-3.403-2.682-6.393-4.228-9.487-.207-.515-.31-.825.103-1.34 2.681-3.712 5.259-7.528 7.94-11.24.103-.103.103-.206.309-.516-.515-.412-1.134-.825-1.65-1.34-.721-.619-1.34-1.238-2.062-1.856-4.125-3.609-8.146-7.219-12.065-10.725-.412-.309-.619-.309-1.031.104-3.3 2.887-6.6 5.774-9.899 8.558-.413.31-.619.413-1.032.207-2.784-1.444-5.774-2.475-8.868-2.991-.412-.103-.412-.309-.515-.619-.413-3.918-.825-7.733-1.238-11.549-.103-.515-.206-.722-.722-.618-6.083.928-12.064 1.753-17.839 2.577-.516.104-.619.207-.722.825-.515 3.816-1.134 7.734-1.65 11.55 0 .309-.103.515-.412.721-2.784 1.032-5.362 2.682-7.734 4.538-.412.309-.619.309-1.031.103-2.681-1.959-5.362-3.816-8.043-5.775-.31-.206-.516-.309-.825.103-3.816 4.847-7.631 9.59-11.24 14.334-.103.103-.206.309-.31.412.928 1.65 1.96 3.3 2.888 4.847.825 1.34 1.65 2.681 2.475 4.124.103.207.206.516.103.619-1.238 2.475-2.063 5.156-2.785 7.837-.309.928-.618 1.341-1.546 1.547-2.681.412-5.26.928-7.837 1.444v18.767c2.371.516 4.846.928 7.321 1.444.722.103 1.547 0 1.96.515.412.413.515 1.444.721 2.166.619 2.062 1.444 4.021 2.372 5.981.103.206.206.412.309.515.207.413.207.619 0 1.031-1.753 2.888-3.403 5.878-5.156 8.765-.206.31-.206.516 0 .825 3.816 4.538 7.631 9.178 11.447 13.818l.206.206c1.443-1.031 2.887-1.959 4.331-2.99 1.443-.928 2.784-1.959 4.228-2.887a.88.88 0 0 1 .721 0c2.578 1.34 5.053 2.681 7.734 4.021.413.206.619.516.722 1.031.516 3.713 1.134 7.528 1.65 11.24 0 .207.103.413.103.722 1.237.103 2.578.206 3.815.309 5.053.413 10.209.929 15.468 1.341.516 0 .619-.103.722-.619.619-3.918 1.237-7.837 1.856-11.652 0-.309 0-.619.516-.619 3.196-.515 6.084-1.753 8.868-3.403.515-.309.928-.206 1.34.207 3.197 2.681 6.497 5.259 9.797 7.94.206.103.309.309.515.412 5.362-4.95 10.724-10.105 16.396-15.261-.619-.825-1.237-1.753-1.959-2.681-2.063-2.888-4.228-5.775-6.29-8.559-.31-.413-.31-.619-.104-1.134 1.753-3.3 3.197-6.497 4.228-9.9m-46.3 8.043c-8.765.104-15.983-5.568-18.561-13.817-.619-2.063-1.031-4.228-1.031-6.6-.206-11.755 7.837-21.242 18.974-22.17 5.259-.413 10.105 1.34 13.714 4.537 4.125 3.712 6.806 9.28 6.909 15.777.206 12.58-8.765 22.17-20.005 22.273"/><path fill="#43e4ff" d="m179.532 160.379-31.039 23.717c-3.712-3.197-8.456-4.95-13.715-4.537-11.136.928-19.18 10.415-18.973 22.17 0 2.269.412 4.537 1.031 6.6l-16.911 12.89c-.929-1.857-1.754-3.816-2.372-5.981-.206-.722-.206-1.753-.722-2.166-.413-.412-1.34-.309-1.96-.515-2.474-.516-4.949-.928-7.32-1.444v-18.768c2.577-.515 5.155-1.031 7.836-1.443.928-.103 1.238-.516 1.547-1.547.722-2.681 1.547-5.362 2.784-7.837.103-.103 0-.516-.103-.619-.825-1.34-1.65-2.784-2.475-4.124-.928-1.65-1.959-3.3-2.887-4.847.103-.206.206-.309.31-.412 3.712-4.641 7.424-9.487 11.239-14.334.31-.412.516-.309.825-.103 2.681 1.856 5.362 3.815 8.043 5.775.413.309.619.206 1.032-.103 2.371-1.857 4.949-3.61 7.733-4.538.413-.103.413-.412.413-.721.619-3.816 1.134-7.631 1.65-11.55.103-.515.206-.721.722-.825 5.774-.825 11.755-1.649 17.839-2.578.619-.103.722.104.722.619.412 3.816.825 7.734 1.237 11.549 0 .31.103.516.516.619 3.093.516 6.084 1.547 8.868 2.991.412.206.722.103 1.031-.207 3.3-2.784 6.6-5.671 9.899-8.559.413-.309.619-.412 1.032-.103a607 607 0 0 0 12.168 10.931"/><path fill="#0566c6" d="M144.988 354.241c-.928 0-1.856.103-2.681.206 0-.412.103-.825.103-1.237.722-14.746-11.034-26.295-25.574-25.471-.412 0-.721.104-1.134.104-6.393-15.571-21.345-25.367-38.257-23.821-17.014 1.547-30.935 14.231-35.988 30.214-2.578-.928-5.362-1.341-8.25-1.238-12.992.619-22.891 12.89-22.685 27.327.206 14.127 10.208 25.882 22.892 26.398l108.377 4.125v-.103c.516.103.928.103 1.444.103 10.621.412 20.005-7.528 20.623-17.84.516-10.415-8.043-18.87-18.87-18.767"/><path fill="#43e4ff" d="M153.34 373.008c-.619 10.312-10.002 18.252-20.623 17.84-.516 0-.929-.103-1.444-.103v.103l-96.725-3.713-11.652-.412C10.316 386.104.21 374.452.004 360.222c-.207-14.334 9.693-26.605 22.686-27.327 2.887-.103 5.671.31 8.25 1.238 5.052-15.984 18.973-28.667 35.987-30.214 13.715-1.237 26.09 4.95 33.72 15.571 1.856 2.475 3.3 5.259 4.537 8.249.413 0 .722-.103 1.134-.103 14.643-.722 26.295 10.725 25.574 25.47 0 .413-.104.825-.104 1.238.825-.103 1.753-.206 2.682-.206 11.033 0 19.592 8.455 18.87 18.87"/><path fill="#1ccdf7" d="M153.34 373.008c-.619 10.312-10.002 18.252-20.623 17.839-.516 0-.928-.103-1.444-.103v.103l-96.725-3.712c-1.443-3.403-2.268-7.115-2.371-11.137-.207-14.333 9.693-26.604 22.686-27.326 2.887-.103 5.671.309 8.249 1.237 5.053-15.983 18.974-28.666 35.988-30.213.516 0 1.031-.103 1.444-.103 1.856 2.475 3.3 5.259 4.537 8.249.412 0 .722-.103 1.134-.103 14.643-.722 26.295 10.724 25.574 25.47 0 .413-.104.825-.104 1.238.825-.103 1.753-.207 2.681-.207 11.137-.103 19.696 8.353 18.974 18.768"/><path fill="#0566c6" d="M581.589 273.706c.928 0 1.856.103 2.681.206 0-.413-.103-.825-.103-1.238-.722-14.745 11.034-26.295 25.573-25.47.413 0 .722.103 1.135.103 6.393-15.57 21.345-25.367 38.256-23.82 17.015 1.547 30.936 14.23 35.989 30.214 2.578-.928 5.362-1.341 8.249-1.238 12.993.619 22.892 12.89 22.686 27.327-.206 14.127-10.209 25.882-22.892 26.398l-108.377 4.125v-.104c-.516.104-.928.104-1.444.104-10.621.412-20.005-7.528-20.623-17.84-.619-10.518 7.94-18.87 18.87-18.767"/><path fill="#43e4ff" d="M573.134 292.37c.618 10.312 10.002 18.252 20.623 17.839.516 0 .928-.103 1.444-.103v.103l96.725-3.712 11.652-.412c12.683-.516 22.686-12.168 22.892-26.399.206-14.333-9.693-26.604-22.686-27.326-2.887-.103-5.671.309-8.249 1.238-5.053-15.984-18.974-28.667-35.988-30.214-13.715-1.237-26.089 4.95-33.72 15.571-1.856 2.475-3.3 5.259-4.537 8.249-.413 0-.722-.103-1.135-.103-14.642-.722-26.295 10.724-25.573 25.47 0 .413.103.825.103 1.238-.825-.103-1.753-.207-2.681-.207-10.93 0-19.489 8.353-18.87 18.768"/><path fill="#1ccdf7" d="M573.134 292.37c.618 10.312 10.002 18.252 20.623 17.84.516 0 .928-.103 1.444-.103v.103l96.725-3.713c1.443-3.402 2.268-7.115 2.371-11.136.207-14.334-9.693-26.605-22.686-27.327-2.887-.103-5.671.31-8.249 1.238-5.053-15.984-18.974-28.667-35.988-30.214-.516 0-1.031-.103-1.444-.103-1.856 2.475-3.3 5.259-4.537 8.25-.413 0-.722-.104-1.134-.104-14.643-.721-26.296 10.725-25.574 25.471 0 .412.103.825.103 1.237-.825-.103-1.753-.206-2.681-.206-11.033 0-19.592 8.352-18.973 18.767"/><path fill="#3dbff0" d="m368.96 558.621 43.001 50.321-35.576 18.355-1.444-12.89z"/><path fill="#199ed5" d="m420.313 580.172-8.352 28.77-43.001-50.321 14.437 6.084z"/><path fill="#6bcff3" d="m383.294 575.429-8.353 38.978-5.981-55.786z"/><path fill="#3dbff0" d="m787.001 314.231-25.161 29.492 20.83 10.827.825-7.631z"/><path fill="#199ed5" d="m756.89 326.914 4.95 16.809 25.161-29.492-8.456 3.609z"/><path fill="#6bcff3" d="m778.648 324.13 4.847 22.789 3.506-32.688z"/><path fill="#fdbb34" d="m106.834 444.469 14.746 7.115 4.331 2.062-10.105 20.108-16.602-8.971-3.197-1.753z"/><path fill="#fda801" d="m115.806 473.754 3.609 8.353-19.799-9.59-3.61-9.487z"/><path fill="#dc8e01" d="m125.911 453.646 2.269 12.271-8.765 16.19-3.609-8.353z"/><path fill="#fdce66" d="m106.834 444.469 14.746 7.115-22.376 13.199-3.197-1.753z"/><path fill="#fdbb34" d="m343.49 9.31-14.745 7.116-4.331 2.062 10.002 20.108 16.705-8.971 3.094-1.753z"/><path fill="#fda801" d="m334.416 38.596-3.609 8.352 19.901-9.59 3.506-9.486z"/><path fill="#dc8e01" d="m324.414 18.488-2.269 12.27 8.662 16.19 3.609-8.352z"/><path fill="#fdce66" d="m343.491 9.31-14.746 7.116 22.376 13.199 3.094-1.753z"/><path fill="#fdbb34" d="m762.046 583.781-14.746 7.115-4.331 2.063 10.106 20.108 16.602-8.971 3.196-1.65z"/><path fill="#fda801" d="m753.075 613.067-3.609 8.456 19.798-9.693 3.61-9.384z"/><path fill="#dc8e01" d="m742.969 592.958-2.268 12.272 8.765 16.292 3.609-8.455z"/><path fill="#fdce66" d="m762.046 583.781-14.746 7.115 22.377 13.2 3.197-1.65z"/></svg>