<?xml version="1.0" encoding="UTF-8" standalone="no"?>
<svg
   width="400"
   height="499.711"
   viewBox="0 0 400 499.711"
   fill="none"
   version="1.1"
   id="svg3619"
   sodipodi:docname="domion.svg"
   inkscape:version="1.2.2 (b0a84865, 2022-12-01)"
   xmlns:inkscape="http://www.inkscape.org/namespaces/inkscape"
   xmlns:sodipodi="http://sodipodi.sourceforge.net/DTD/sodipodi-0.dtd"
   xmlns="http://www.w3.org/2000/svg"
   xmlns:svg="http://www.w3.org/2000/svg">
  <sodipodi:namedview
     id="namedview3621"
     pagecolor="#ffffff"
     bordercolor="#999999"
     borderopacity="1"
     inkscape:showpageshadow="0"
     inkscape:pageopacity="0"
     inkscape:pagecheckerboard="0"
     inkscape:deskcolor="#d1d1d1"
     showgrid="false"
     inkscape:zoom="0.31935047"
     inkscape:cx="294.34746"
     inkscape:cy="371.06568"
     inkscape:window-width="1920"
     inkscape:window-height="1027"
     inkscape:window-x="0"
     inkscape:window-y="25"
     inkscape:window-maximized="0"
     inkscape:current-layer="svg3619" />
  <path
     fill-rule="evenodd"
     clip-rule="evenodd"
     d="m 266.17957,213.18573 c 0,0 8.95965,3.17138 12.33389,9.84548 9.46681,18.68342 15.55261,66.6328 15.55261,66.6328 0,0 -31.60561,-30.6657 -38.83419,-43.87865 -7.22858,-13.21296 -7.0122,-24.21474 -7.0122,-24.21474 z"
     fill="#ffb031"
     id="path3286"
     style="stroke-width:0.676201" />
  <path
     fill-rule="evenodd"
     clip-rule="evenodd"
     d="m 262.21027,213.33449 c 0,0 6.0858,2.15032 8.38488,6.69439 6.42391,12.70581 11.13026,44.35875 11.13026,44.35875 0,0 -22.05089,-19.90734 -26.96011,-28.88728 -4.90921,-8.97995 -4.7334,-16.46549 -4.7334,-16.46549 z"
     fill="#fff100"
     id="path3288"
     style="stroke-width:0.676201" />
  <path
     fill-rule="evenodd"
     clip-rule="evenodd"
     d="m 267.89035,211.30589 c 0,0 -3.48243,6.91077 -21.44232,12.77343 -3.60414,1.18335 -6.41714,-0.75058 -8.5945,-4.58464 -8.67566,-15.28213 -7.51935,-60.76338 -7.51935,-60.76338 0,0 18.25741,13.27382 34.39155,45.87345 1.07516,2.10974 2.12327,4.34797 3.16462,6.70114 z"
     fill="#d0d3d4"
     id="path3290"
     style="stroke-width:0.676201" />
  <path
     fill-rule="evenodd"
     clip-rule="evenodd"
     d="m 267.89035,211.30589 c 0,0 -3.48243,6.91077 -21.44232,12.77343 -3.60414,1.18335 -6.41714,-0.75058 -8.5945,-4.58464 17.78407,-5.22027 24.63398,-12.00932 26.8722,-14.87641 1.07516,2.09622 2.12327,4.33445 3.16462,6.68762 z"
     fill="#a7aaad"
     id="path3292"
     style="stroke-width:0.676201" />
  <path
     d="m 313.43922,196.42948 c 0.14876,0.91963 0.29076,1.82574 0.43277,2.7589 0.6762,4.40207 1.28478,8.88527 1.7784,13.24001 0.0947,0.91963 0.1961,1.82574 0.28401,2.7048 0.50039,4.84836 0.86553,9.52766 1.04811,13.75392 0.0541,0.93315 0.0879,1.85279 0.11495,2.7048 0.0473,1.76488 0.0676,3.42833 0.0473,4.9836 l -12.84781,-0.0879 h -1.3524 c 0,0 -0.45306,-1.44707 -1.27802,-3.87463 -0.25696,-0.77763 -0.56801,-1.64993 -0.89935,-2.61689 -1.04135,-2.955 -2.41403,-6.70115 -4.0572,-10.81921 -0.33134,-0.84525 -0.6762,-1.68374 -1.04135,-2.54252 -1.62288,-3.90844 -3.44186,-8.0265 -5.4096,-12.00932 -0.41249,-0.8182 -0.82497,-1.6364 -1.24421,-2.44108 -1.87443,-3.64472 -3.99838,-7.15556 -6.35629,-10.50816 -0.56124,-0.77763 -1.12249,-1.51469 -1.69726,-2.21793 -1.30845,-1.64723 -2.78865,-3.15042 -4.41559,-4.48321 -1.43287,-1.11168 -2.9861,-2.05768 -4.63197,-2.81976 -0.84323,-0.39828 -1.70809,-0.75058 -2.58985,-1.05487 -4.48997,-1.49914 -9.18957,-2.27542 -13.92297,-2.29908 -0.96021,0 -1.90012,0 -2.81976,0 -3.12337,0.0737 -6.2393,0.33539 -9.33156,0.78439 -1.02107,0.142 -1.96099,0.29753 -2.77919,0.43277 -1.31183,0.23667 -2.35318,0.44629 -3.01585,0.60181 -0.66268,0.15553 -0.88582,0.1961 -0.88582,0.1961 l 4.0572,-57.08484 c 0,0 1.87984,0.89934 5.02417,2.4546 0.75058,0.37868 1.60259,0.79116 2.5087,1.23745 4.2533,2.14356 9.96044,5.05798 16.12062,8.40517 l 2.41404,1.30507 c 7.09334,3.89492 14.61945,8.24965 21.15831,12.53676 0.80468,0.51391 1.58231,1.03458 2.34642,1.56202 7.4923,5.08503 13.34143,9.9672 15.14689,13.75392 1.01498,2.22673 1.87781,4.51972 2.58308,6.86343 0.27048,0.84525 0.52744,1.71755 0.77087,2.62366 1.98127,7.22656 3.56358,14.55589 4.74017,21.95623 z"
     fill="#b0fbf6"
     id="path3294"
     style="stroke-width:0.676201" />
  <path
     d="m 303.3165,235.76407 c 0,0 -8.18203,1.91364 -9.92663,6.34276 -1.74459,4.42911 0.7844,9.52766 6.66058,13.9703 0,0 -1.3524,2.88737 1.06163,4.92274 2.41404,2.03536 14.74117,6.2278 21.38146,0.12848 6.64029,-6.09933 -3.46214,-23.7955 -5.4096,-25.54686 -1.94746,-1.75136 -13.76744,0.18258 -13.76744,0.18258 z"
     fill="#004177"
     id="path3296"
     style="stroke-width:0.676201" />
  <path
     d="m 147.64162,223.88322 -2.60337,-2.13003 c -5.40961,-4.46968 -18.75104,-15.62023 -35.5411,-30.55074 l -2.10299,-1.86631 c -5.16617,-4.62521 -10.643392,-9.58176 -16.30319,-14.78174 -0.676201,-0.62887 -1.352401,-1.24421 -2.028602,-1.87308 -4.187709,-3.86787 -8.430191,-7.85272 -12.726093,-11.95522 -0.676201,-0.63563 -1.352401,-1.27802 -2.028602,-1.92718 -3.935486,-3.76643 -7.884497,-7.62078 -11.826746,-11.4954 l -1.981268,-1.97451 c -3.637958,-3.60618 -7.244406,-7.26713 -10.819208,-10.9815 -0.6762,-0.6762 -1.291543,-1.3524 -1.954219,-2.0286 -1.947458,-2.0286 -3.894915,-4.09101 -5.815324,-6.15342 -1.352401,-1.43355 -2.704802,-2.88738 -4.057203,-4.33445 -0.635629,-0.6762 -1.257733,-1.3524 -1.873076,-2.0286 -3.304389,-3.63322 -6.520872,-7.2509 -9.649449,-10.85302 -0.60858,-0.6762 -1.203637,-1.3524 -1.785169,-2.08269 -1.230685,-1.42679 -2.441084,-2.86033 -3.631197,-4.28712 L 28.650616,88.0954 c 0,0 1.778339,1.548499 4.94972,4.199205 l 2.319435,1.933934 c 3.381003,2.758898 7.6884,6.315711 12.759904,10.325581 l 2.197651,1.7446 c 3.631197,2.8468 7.58697,5.90323 11.759127,9.06108 0.74382,0.54096 1.474117,1.10897 2.217937,1.64993 4.057203,3.02262 8.283457,6.08581 12.617902,9.18281 0.737058,0.52743 1.494403,1.06163 2.258509,1.58231 3.827295,2.7048 7.735734,5.34198 11.650935,7.90478 l 2.332892,1.52145 c 3.12878,2.01508 6.243359,3.95577 9.345092,5.82209 l 2.48165,1.45383 c 3.1511,1.85279 6.27515,3.58386 9.32481,5.17969 0.94668,0.48687 1.87307,0.97373 2.79271,1.42679 3.15785,1.59583 6.24809,3.00909 9.21661,4.23301 0.0676,-0.007 27.15621,53.73089 20.76612,68.56673 z"
     fill="#b0fbf6"
     id="path3298"
     style="stroke-width:0.676201" />
  <path
     d="m 29.448532,88.913603 c 0,0 -1.027757,-10.988258 -6.261549,-16.032714 C 17.953191,67.836433 6.1466428,66.937019 3.8475611,73.428611 1.5484794,79.920136 -1.5620226,92.314891 0.90610919,95.743228 3.374241,99.171564 6.7958832,99.550237 10.8328,98.98899 c 0,0 6.403619,3.88815 10.061864,3.92196 3.658244,0.0338 8.553868,-13.997347 8.553868,-13.997347 z"
     fill="#004177"
     id="path3300"
     style="stroke-width:0.676201" />
  <g
     style="mix-blend-mode:multiply"
     id="g3304"
     transform="matrix(0.6762005,0,0,0.6762005,5.1607484e-7,-1.0005687e-6)">
    <path
       d="m 216.79,326.65 c -0.734,0.486 -1.503,0.917 -2.3,1.29 -17.55,-14.52 -92.07,-77 -152.45,-141.37 0,0 79.07,72.37 113.38,80.91 34.31,8.54 41.37,59.17 41.37,59.17 z"
       fill="#64e5eb"
       id="path3302" />
  </g>
  <path
     d="m 186.8342,107.53616 5.82885,10.75159 c 0,0 -16.50606,13.42934 -29.16453,20.17106 -12.65847,6.74172 -30.51017,5.49075 -30.51017,5.49075 l -1.40649,-12.672 z"
     fill="#8e0225"
     id="path3306"
     style="stroke-width:0.676201" />
  <path
     d="m 148.02705,128.2279 c 0,0 18.85923,-2.955 20.96222,0.30429 2.10298,3.25929 2.23146,8.69594 2.23146,8.69594 l 21.44908,-18.93362 -3.85434,-6.8161 z"
     fill="#700222"
     id="path3308"
     style="stroke-width:0.676201" />
  <path
     fill-rule="evenodd"
     clip-rule="evenodd"
     d="m 127.95742,144.98415 c 0,0 -13.74039,-3.73939 -18.93361,0.58829 -5.69361,4.73341 6.55914,42.35044 20.42801,61.74387 10.56226,14.76822 16.18148,14.66679 17.29721,16.81034 z"
     fill="#00c9df"
     id="path3310"
     style="stroke-width:0.676201" />
  <path
     d="m 134.76676,206.29525 c 4.45616,7.00543 8.54041,12.28656 9.20985,13.35496 6.64029,10.56225 22.47014,37.50884 22.47014,37.50884 2.2788,-0.28401 13.52401,-5.23379 15.8231,-5.6598 10.42024,-1.92717 19.01475,-3.77996 28.58299,-7.4382 24.01188,-9.18281 37.65084,-19.53544 37.65084,-19.53544 l -10.143,-37.13693 -35.16243,-68.84397 -5.48399,1.18335 c 0,0 -27.14268,23.43711 -45.30543,28.08261 -18.16274,4.64549 -24.49198,-3.08348 -24.49198,-3.08348 -3.84758,8.86161 -6.15275,18.31557 -6.8161,27.95413 -0.54096,9.14223 7.06629,23.22749 13.66601,33.61393 z"
     fill="#b0fbf6"
     id="path3312"
     style="stroke-width:0.676201" />
  <path
     d="m 191.7096,117.93613 6.00466,1.77841 c 0,0 -4.33444,3.73262 -5.95056,6.89048 -1.61612,3.15785 -20.47535,30.82798 -38.96943,35.77101 -18.49409,4.94302 -24.88418,-17.66236 -24.88418,-17.66236 l 4.23301,-1.80546 c 0,0 24.34322,-1.7784 36.2714,-8.59451 11.92817,-6.8161 23.2951,-16.37757 23.2951,-16.37757 z"
     fill="#00c9df"
     id="path3314"
     style="stroke-width:0.676201" />
  <path
     d="m 186.44471,129.0319 c 0.97237,-0.26574 1.55052,-1.25164 1.29086,-2.20306 -0.26033,-0.95074 -1.25908,-1.50657 -2.23213,-1.24083 -0.97238,0.26575 -1.55053,1.25233 -1.29019,2.20306 0.25966,0.95142 1.2584,1.50658 2.23146,1.24083 z"
     fill="#00a1ca"
     id="path3316"
     style="stroke-width:0.676201" />
  <path
     d="m 177.96583,138.19036 c 1.32941,-0.36379 2.11921,-1.71214 1.76353,-3.01247 -0.35501,-1.30101 -1.72093,-2.06038 -3.05034,-1.69726 -1.32873,0.36311 -2.11854,1.71146 -1.76353,3.01247 0.35568,1.30033 1.72093,2.06038 3.05034,1.69726 z"
     fill="#00a1ca"
     id="path3318"
     style="stroke-width:0.676201" />
  <path
     d="m 168.45101,147.30893 c 1.68239,-0.45914 2.68249,-2.16385 2.23417,-3.80634 -0.449,-1.64249 -2.17669,-2.60202 -3.85908,-2.1422 -1.68238,0.45982 -2.68249,2.16384 -2.23349,3.80633 0.44832,1.64317 2.17602,2.60202 3.8584,2.14221 z"
     fill="#00a1ca"
     id="path3320"
     style="stroke-width:0.676201" />
  <path
     d="m 141.12169,154.55847 c 1.68239,-0.45982 2.68249,-2.16384 2.23349,-3.80701 -0.44899,-1.64249 -2.17601,-2.60134 -3.8584,-2.1422 -1.68238,0.45982 -2.68248,2.16384 -2.23416,3.80701 0.44899,1.64249 2.17669,2.60202 3.85907,2.1422 z"
     fill="#00a1ca"
     id="path3322"
     style="stroke-width:0.676201" />
  <path
     d="m 133.12224,149.88254 c 0.93654,-0.25628 1.49305,-1.20498 1.24353,-2.12056 -0.25019,-0.9149 -1.21242,-1.4491 -2.14896,-1.19349 -0.93654,0.25628 -1.49305,1.20499 -1.24353,2.12056 0.25019,0.9149 1.21242,1.4491 2.14896,1.19349 z"
     fill="#00a1ca"
     id="path3324"
     style="stroke-width:0.676201" />
  <path
     d="m 149.79396,156.5465 c 1.99682,-0.54096 3.18829,-2.55739 2.66085,-4.50417 -0.52676,-1.94678 -2.57362,-3.08686 -4.57044,-2.5459 -1.99682,0.54096 -3.18828,2.55739 -2.66085,4.50418 0.52744,1.94678 2.57362,3.08685 4.57044,2.54589 z"
     fill="#00a1ca"
     id="path3326"
     style="stroke-width:0.676201" />
  <path
     fill-rule="evenodd"
     clip-rule="evenodd"
     d="m 177.48911,188.26774 -20.17106,18.36561 29.15776,10.18358 z"
     fill="#00aeef"
     id="path3328"
     style="stroke-width:0.676201" />
  <path
     fill-rule="evenodd"
     clip-rule="evenodd"
     d="m 184.62979,166.94038 -10.76512,9.81167 12.61114,40.06488 z"
     fill="#3c424d"
     id="path3330"
     style="stroke-width:0.676201" />
  <path
     fill-rule="evenodd"
     clip-rule="evenodd"
     d="m 203.18473,118.53118 c 0,0 20.72554,-2.93471 39.85525,1.79194 l -4.66578,67.05204 c 0,0 -29.31329,-38.6381 -35.18947,-68.84398 z"
     fill="#00c9df"
     id="path3332"
     style="stroke-width:0.676201" />
  <path
     fill-rule="evenodd"
     clip-rule="evenodd"
     d="m 137.71499,210.79198 c 0.90138,1.3524 1.75136,2.59458 2.54928,3.72587 z"
     fill="#b0fbf6"
     id="path3334"
     style="stroke-width:0.676201" />
  <path
     d="m 137.71499,210.79198 c 0.90138,1.3524 1.75136,2.59458 2.54928,3.72587 z"
     fill="#b0fbf6"
     id="path3336"
     style="stroke-width:0.676201" />
  <g
     style="mix-blend-mode:multiply"
     id="g3340"
     transform="matrix(0.6762005,0,0,0.6762005,5.1607484e-7,-1.0005687e-6)">
    <path
       d="m 353.87,257.8 -11.94,4.47 10.94,79.17 14.63,-9.42 -14.98,-54.91 z"
       fill="#64e5eb"
       id="path3338" />
  </g>
  <path
     d="m 195.74652,346.14703 62.14959,42.22196 -7.89126,20.00878 c -35.16243,-7.05954 -71.16334,-28.63033 -87.9534,-45.83287 -5.80856,-5.97085 -9.33833,-11.40751 -9.71024,-15.55261 -0.37191,-4.14511 0.4801,-11.88085 1.96098,-21.19889 v -0.0473 c 4.3615,-27.24412 14.10555,-67.62005 14.10555,-67.62005 l 60.44556,-16.51958 c -3.37424,20.86078 -33.10678,104.54059 -33.10678,104.54059 z"
     fill="#b0fbf6"
     id="path3342"
     style="stroke-width:0.676201" />
  <path
     d="m 348.02011,444.7844 -24.89094,6.80258 C 305.41272,425.66821 191.58113,250.33619 191.58113,250.33619 l 60.57404,-16.55339 c 3.95577,9.61557 16.42491,37.36008 31.10522,69.70951 5.4096,11.81998 11.04235,24.25531 16.69539,36.6433 24.1336,52.7504 48.06433,104.64879 48.06433,104.64879 z"
     fill="#b0fbf6"
     id="path3344"
     style="stroke-width:0.676201" />
  <path
     d="m 238.54325,374.94641 c -5.29127,8.35649 -9.79814,17.18496 -13.46315,26.37182 0,0 17.36483,5.81533 24.92475,7.05277 0,0 -0.79792,22.79472 0.54096,28.01499 1.33888,5.22027 14.87641,9.291 19.88706,6.88372 5.01064,-2.40727 7.94535,-38.46904 6.45095,-47.86147 0,0 -8.93937,-8.1144 -19.33934,-7.27592 z"
     fill="#004177"
     id="path3346"
     style="stroke-width:0.676201" />
  <path
     d="m 323.13593,451.58022 c 0,0 -5.36903,28.21784 -4.23301,35.0069 1.13602,6.78905 5.09179,11.49541 8.08059,11.90113 2.98881,0.40572 18.54818,4.90245 23.34921,-6.38334 4.80102,-11.28578 5.15941,-41.47137 3.42157,-45.19724 -1.73783,-3.72586 -9.42623,-10.14301 -9.42623,-10.14301 l -13.71335,-29.81368 c 0,0 -16.37758,10.53521 -27.9947,13.69306 z"
     fill="#004177"
     id="path3348"
     style="stroke-width:0.676201" />
  <path
     d="m 102.12656,91.347925 0.80468,-1.440308 4.21949,-7.580207 14.87641,-21.922488 -0.3381,-0.371843 c -1.46059,-1.562023 -7.20829,-7.681705 -7.33677,-7.532941 -0.12848,0.148764 -0.6762,1.075159 -0.6762,1.075159 0,0 -10.02806,-1.920342 -18.487325,-1.805388 -0.366501,6.8e-5 -0.722182,0.126517 -1.006863,0.358048 -0.28468,0.231531 -0.480778,0.554012 -0.55516,0.913142 -0.750583,3.894914 -2.048888,16.93889 8.499838,38.306826 z"
     fill="#ff3b2f"
     id="path3350"
     style="stroke-width:0.676201" />
  <path
     d="m 102.12656,91.347925 0.80468,-1.440308 c -0.11428,-0.806707 -0.27454,-1.605976 -0.4801,-2.393749 -2.0286,-7.92507 -10.001007,-24.451478 -4.990361,-30.780715 3.002331,-3.252524 22.260521,3.381003 22.260521,3.381003 l 2.0286,-0.04733 c -1.46059,-1.562023 -7.2083,-7.681638 -7.33677,-7.532874 -0.12848,0.148764 -0.67621,1.075159 -0.67621,1.075159 0,0 -10.02805,-1.920409 -18.487317,-1.805455 -0.366501,6.7e-5 -0.722182,0.126584 -1.006863,0.358115 -0.28468,0.231532 -0.480778,0.554012 -0.55516,0.913142 -0.811441,3.861104 -2.109746,16.90508 8.43898,38.273016 z"
     fill="#ffe7d8"
     id="path3352"
     style="stroke-width:0.676201" />
  <path
     d="m 117.51012,59.363573 c 0,0 -9.89281,-3.232238 -15.05898,-3.455384 -5.166174,-0.223146 -7.438207,-0.527437 -6.20076,10.954448 0.534198,4.834901 5.6057,18.595581 5.6057,18.595581 0,0 3.94901,-13.246768 6.18724,-16.451958 2.23822,-3.205258 9.4668,-9.642687 9.4668,-9.642687 z"
     fill="url(#paint0_linear_111_2)"
     id="path3354"
     style="fill:url(#paint0_linear_111_2);stroke-width:0.676201" />
  <path
     d="m 94.181206,106.07557 c 0.497008,1.38689 1.203637,2.68925 2.096222,3.86111 1.697263,2.40727 3.725862,4.61168 3.719102,4.7334 -0.683638,0.5768 -1.419344,1.08801 -2.197651,1.52821 -0.129154,0.05 -0.240051,0.13795 -0.317814,0.2529 -0.07709,0.11496 -0.117659,0.25087 -0.114954,0.38949 4.787499,5.80857 11.657699,9.91986 19.542189,12.52324 3.95104,1.30777 8.01366,2.24701 12.1378,2.80623 5.69226,0.77898 11.44808,0.98793 17.18226,0.6221 7.8588,-0.41451 15.64998,-1.67021 23.24101,-3.74615 5.33522,-1.45653 10.50477,-3.46417 15.42413,-5.99113 7.43821,-3.84758 20.06963,-12.98982 20.83374,-15.72167 0.76411,-2.73185 -3.09024,-6.53885 -3.09024,-6.53885 0.68567,-0.38476 1.34497,-0.81415 1.97451,-1.284785 3.48919,-2.610134 6.20752,-6.478001 8.11441,-10.819208 0.52608,-1.139398 0.97778,-2.31193 1.3524,-3.509481 0.6762,-2.319368 0.10143,-3.333668 -1.87308,-4.909216 -1.9745,-1.575547 -7.10687,-3.381002 -10.14301,-4.341207 -1.39973,-0.453054 -2.34641,-0.74382 -2.34641,-0.74382 7.74926,-16.168022 6.32247,-32.599694 5.00388,-38.678737 -1.31859,-6.079042 -2.98204,-11.80646 -14.07849,-7.397633 -11.09645,4.408827 -24.60694,12.922191 -24.60694,12.922191 l -1.07516,-0.994014 c 0,0 -4.2533,-11.535981 -9.78462,-10.697492 -4.92274,0.723534 -3.10376,7.025723 -2.64394,8.43222 -0.62887,-1.420021 -3.52301,-7.526112 -7.43821,-6.498287 -4.3953,1.142779 -2.23822,7.65459 -2.23822,7.65459 0,0 -6.26162,-7.269155 -11.49541,-10.548728 -5.23379,-3.279572 -8.79061,-3.17138 -9.07461,1.203637 -0.28401,4.375017 3.60415,12.300087 3.77996,12.685521 -0.4801,-0.263718 -10.1092,-5.659798 -10.42025,-2.887376 -0.31105,2.772422 6.20076,10.088912 6.20076,10.088912 0,0 -0.1961,0 -3.02262,-0.926395 -2.82652,-0.926395 -7.76954,-0.459816 -7.79659,1.873075 -0.0271,2.332892 7.43821,7.357062 7.43821,7.357062 -4.38855,2.251748 -11.86056,9.21668 -14.53831,16.945652 -1.59854,4.512286 -2.39308,9.270709 -2.34642,14.058208 0,0 -6.376571,9.622333 -7.066296,10.744831 -0.689724,1.12249 -1.244209,2.38698 -0.331338,5.5516 z"
     fill="url(#paint1_linear_111_2)"
     id="path3356"
     style="fill:url(#paint1_linear_111_2);stroke-width:0.676201" />
  <path
     d="m 97.366111,116.84068 c 2.004258,2.40863 4.327009,4.53325 6.904009,6.31572 3.55681,2.46948 7.43888,4.43317 11.53598,5.83561 l 1.1022,0.37191 c 8.99347,3.00909 19.31229,4.0572 29.34034,3.42833 7.82567,-0.41924 15.5844,-1.66818 23.14635,-3.72586 0.0311,0.009 0.0636,0.009 0.0947,0 5.11275,-1.40041 10.07471,-3.30121 14.81555,-5.67332 l 0.60858,-0.31782 c 7.4382,-3.84758 20.06963,-12.98981 20.83374,-15.72166 0.7641,-2.73185 -3.09024,-6.53886 -3.09024,-6.53886 0.68567,-0.38476 1.34496,-0.81414 1.97451,-1.284779 -1.6851,-2.836662 -3.5717,-5.548902 -5.64628,-8.114406 -6.18047,-7.85745 -13.28734,-9.230137 -22.40928,-6.971628 -3.24779,0.794536 -6.41647,1.883219 -9.46681,3.252525 -1.91973,0.833755 -3.77387,1.812217 -5.54484,2.927948 -9.75082,-8.905561 -24.05246,-6.991913 -28.05556,-6.342761 -4.81455,0.757345 -15.06575,4.510258 -21.32737,11.840271 -0.72624,0.838489 -1.39094,1.729045 -1.98803,2.66423 -1.18876,-0.198803 -2.39713,-0.244108 -3.59738,-0.13524 -2.2957,0.292795 -4.44602,1.284105 -6.16019,2.84004 -2.535751,2.16384 -3.725864,6.59972 -4.131584,8.45251 1.697263,2.40727 3.725864,4.61169 3.719104,4.7334 -0.68364,0.5768 -1.419346,1.08801 -2.197653,1.52821 -0.133212,0.0446 -0.248842,0.13051 -0.331338,0.24411 -0.0825,0.11428 -0.127126,0.25087 -0.128478,0.39152 z"
     fill="url(#paint2_linear_111_2)"
     id="path3358"
     style="fill:url(#paint2_linear_111_2);stroke-width:0.676201" />
  <path
     d="m 169.32737,45.345937 c 0,0 7.12039,-4.841596 20.5903,-9.324805 3.25929,-0.324576 7.78983,-3.577101 9.16252,4.483209 1.90012,8.337552 -0.40572,21.929183 -2.0286,33.884475 0,0 -13.47668,-18.798442 -27.72422,-29.042879 z"
     fill="url(#paint3_linear_111_2)"
     id="path3360"
     style="fill:url(#paint3_linear_111_2);stroke-width:0.676201" />
  <path
     d="m 166.07484,42.032554 3.25253,3.313383 c 0,0 21.90889,-12.293325 27.09535,-9.852241 6.43067,3.022616 1.43355,34.486293 0.62887,38.89512 l 2.7048,0.797917 c 7.74926,-16.168022 6.32247,-32.599694 5.00388,-38.678737 -1.31859,-6.079042 -2.98204,-11.80646 -14.07849,-7.397633 -11.09645,4.408827 -24.60694,12.922191 -24.60694,12.922191 z"
     fill="#ffe7d8"
     id="path3362"
     style="stroke-width:0.676201" />
  <path
     d="m 171.51826,107.70521 c 2.19089,9.32481 -0.50715,17.58122 -2.12327,21.36118 0.0311,0.009 0.0636,0.009 0.0947,0 5.16346,-1.24218 10.143,-3.14907 14.81555,-5.67332 0.60858,-4.19245 1.3524,-12.84781 -1.29154,-20.37392 -3.60415,-10.406731 -15.89072,-15.315946 -15.89072,-15.315946 -1.91973,0.833755 -3.77387,1.812217 -5.54484,2.927948 0,0 6.95134,4.314159 9.94015,17.074058 z"
     fill="#8e0225"
     id="path3364"
     style="stroke-width:0.676201" />
  <path
     d="m 101.93046,114.43341 c 0.14674,3.04155 0.94466,6.01616 2.33966,8.72299 3.55681,2.46948 7.43888,4.43317 11.53598,5.83561 l 0.0676,-1.16307 c 0,0 -8.96642,-5.8897 -9.73053,-14.27459 -0.7641,-8.38489 4.05721,-14.774982 4.05721,-14.774982 -1.18876,-0.198803 -2.39713,-0.244108 -3.59739,-0.13524 -1.63641,3.401292 -4.8416,10.738062 -4.67255,15.789282 z"
     fill="#8e0225"
     id="path3366"
     style="stroke-width:0.676201" />
  <path
     d="m 137.11318,90.685248 c -1.46127,-0.841193 -3.06657,-1.403116 -4.73341,-1.656691 -2.78594,-0.412482 -6.52533,0.175812 -8.86499,1.690501 -2.33965,1.514689 -4.7334,3.779961 -4.67254,4.557591 0.0609,0.777631 3.25252,4.801021 8.01297,4.510258 4.76046,-0.290766 9.60205,-6.234569 10.08892,-7.323252 0.28806,-0.547722 0.34892,-1.186732 0.16905,-1.778407 z"
     fill="#0c3740"
     id="path3368"
     style="stroke-width:0.676201" />
  <path
     d="m 134.19199,92.788232 c 0,0 -7.16096,5.653036 -13.25353,2.583086 0,0 0.94668,2.508703 6.194,2.528989 5.24731,0.02029 7.05953,-5.112075 7.05953,-5.112075 z"
     fill="#031c22"
     id="path3370"
     style="stroke-width:0.676201" />
  <g
     style="mix-blend-mode:multiply"
     opacity="0.29"
     id="g3374"
     transform="matrix(0.6762005,0,0,0.6762005,5.1607484e-7,-1.0005687e-6)">
    <path
       d="m 190.87,195.49 c 8.418,1.152 16.931,1.461 25.41,0.92 11.622,-0.613 23.144,-2.47 34.37,-5.54 7.89,-2.154 15.535,-5.123 22.81,-8.86 11,-5.69 29.68,-19.21 30.81,-23.25 1.13,-4.04 -4.57,-9.67 -4.57,-9.67 1.014,-0.569 1.989,-1.204 2.92,-1.9 5.16,-3.86 9.18,-9.58 12,-16 0.778,-1.685 1.446,-3.419 2,-5.19 0,0 -16.72,20 -29.51,23.21 -0.257,0.094 -0.481,0.261 -0.645,0.482 -0.163,0.22 -0.257,0.483 -0.272,0.757 -0.015,0.273 0.05,0.545 0.189,0.782 0.138,0.237 0.342,0.427 0.588,0.549 1.9,1.43 6.91,5.11 6.91,5.11 0,0 -36.21,42.36 -103.01,38.6 z"
       fill="#ff9185"
       id="path3372" />
  </g>
  <path
     d="m 198.69476,38.874698 c 0,0 -0.32458,19.035044 -6.21429,29.55003 l 4.57112,5.93704 c 0,0 4.61169,-20.941997 1.64317,-35.48707 z"
     fill="#ff3b2f"
     id="path3376"
     style="stroke-width:0.676201" />
  <path
     d="m 193.41363,35.257025 c 0,0 -13.46315,5.409604 -19.292,13.862111 l -4.79426,-3.773199 c 0,0 12.44209,-7.512588 24.08626,-10.088912 z"
     fill="#ff3b2f"
     id="path3378"
     style="stroke-width:0.676201" />
  <path
     d="m 117.51012,59.363573 c 0,0 -8.91232,-3.198428 -16.00566,-3.495956 0,0 7.37058,2.474894 11.5495,6.924293 z"
     fill="#ff3b2f"
     id="path3380"
     style="stroke-width:0.676201" />
  <path
     d="m 95.831135,62.541716 c 0,0 2.785946,9.832023 7.316485,15.978685 -0.66064,2.261215 -1.09341,4.583287 -1.29154,6.931055 0,0 -5.835608,-13.25353 -6.024945,-22.90974 z"
     fill="#ff3b2f"
     id="path3382"
     style="stroke-width:0.676201" />
  <path
     d="m 149.75813,58.640039 c 0,0 10.62311,11.366998 24.55284,-0.371911 5.72741,-4.828071 -2.02861,-6.762005 -7.7425,-3.759674 0,0 1.31183,-3.820533 -2.0286,-1.927172 -1.63641,0.926395 -7.62754,3.712341 -13.52401,3.529767 -3.37424,-0.108192 -1.25773,2.52899 -1.25773,2.52899 z"
     fill="#ffe7d8"
     id="path3384"
     style="stroke-width:0.676201" />
  <path
     d="m 131.23699,60.83769 c 0,0 -9.12194,7.918376 -18.66313,-1.981267 -3.92196,-4.057203 2.17737,-5.017408 6.24133,-2.32613 0,0 -0.6762,-3.00233 1.69726,-1.352401 1.16307,0.818203 5.47047,3.381003 10.00101,3.624435 2.57632,0.175812 0.72353,2.035363 0.72353,2.035363 z"
     fill="#ffe7d8"
     id="path3386"
     style="stroke-width:0.676201" />
  <path
     fill-rule="evenodd"
     clip-rule="evenodd"
     d="m 165.31074,80.008042 c 5.65979,-7.783068 -10.35939,-21.063713 -13.62544,-7.174487 -0.51933,2.120565 -0.30226,4.354731 0.61534,6.335999 2.41403,5.132361 9.62909,5.483986 13.0101,0.838488 z"
     fill="#031c22"
     id="path3388"
     style="stroke-width:0.676201" />
  <path
     fill-rule="evenodd"
     clip-rule="evenodd"
     d="m 166.14246,78.446019 c 2.55604,-7.086581 -8.88527,-16.607552 -13.32791,-8.655366 -0.25493,0.639685 -0.4632,1.297628 -0.6221,1.967743 -0.51256,2.12327 -0.2955,4.357436 0.61534,6.342761 2.4208,5.132362 9.63586,5.477224 13.01686,0.831726 0.11495,-0.162288 0.21638,-0.324576 0.31781,-0.486864 z"
     fill="#0c3740"
     id="path3390"
     style="stroke-width:0.676201" />
  <path
     fill-rule="evenodd"
     clip-rule="evenodd"
     d="m 154.36305,71.751634 c 0,0 -2.7048,3.245762 -0.81144,6.633527 1.89336,3.387764 6.0858,3.543291 7.33678,3.381002 -7.23535,-1.920409 -7.30973,-5.375794 -6.52534,-10.014529 z"
     fill="#224951"
     id="path3392"
     style="stroke-width:0.676201" />
  <path
     fill-rule="evenodd"
     clip-rule="evenodd"
     d="m 158.71778,75.612739 c 0,0 -2.0286,3.34043 -4.50349,2.758898 -2.4749,-0.581532 -1.00078,-7.708686 2.86032,-7.438206 3.86111,0.270481 1.64317,4.679308 1.64317,4.679308 z"
     fill="#ffffff"
     id="path3394"
     style="stroke-width:0.676201" />
  <path
     fill-rule="evenodd"
     clip-rule="evenodd"
     d="m 154.69439,78.439257 c -0.16161,-0.0061 -0.32255,-0.02908 -0.4801,-0.06762 -2.21794,-0.527436 -1.25097,-6.390095 1.80545,-7.309727 h 0.14877 c 3.86786,0.284004 1.64316,4.665783 1.64316,4.665783 0,0 -1.31859,2.163842 -3.11728,2.711564 z"
     fill="#ffe7d8"
     id="path3396"
     style="stroke-width:0.676201" />
  <path
     fill-rule="evenodd"
     clip-rule="evenodd"
     d="m 114.81208,82.908942 c -6.01818,-7.377347 9.35186,-21.739913 13.27382,-8.114406 0.61196,2.098927 0.50039,4.34256 -0.31782,6.369809 -2.17736,5.301412 -9.35861,6.146663 -12.956,1.744597 z"
     fill="#031c22"
     id="path3398"
     style="stroke-width:0.676201" />
  <path
     fill-rule="evenodd"
     clip-rule="evenodd"
     d="m 113.91274,81.407777 c -2.88738,-6.897245 8.1144,-17.195846 12.9019,-9.554713 0.27319,0.622105 0.49904,1.264495 0.6762,1.92041 0.61196,2.098926 0.50039,4.342559 -0.31781,6.369808 -2.17061,5.287888 -9.35862,6.133139 -12.94924,1.731074 -0.0947,-0.155527 -0.20286,-0.311053 -0.31105,-0.466579 z"
     fill="#0c3740"
     id="path3400"
     style="stroke-width:0.676201" />
  <path
     fill-rule="evenodd"
     clip-rule="evenodd"
     d="m 115.26514,78.094395 c 0,0 -1.39974,3.381002 0.426,4.794261 1.82575,1.413259 6.46448,-3.617672 4.05721,-6.24133 -2.40728,-2.623658 -4.48321,1.447069 -4.48321,1.447069 z"
     fill="#ffffff"
     id="path3402"
     style="stroke-width:0.676201" />
  <path
     fill-rule="evenodd"
     clip-rule="evenodd"
     d="m 115.37333,82.550556 c 0.0953,0.113602 0.20218,0.217737 0.31781,0.311052 1.6567,1.305067 5.59218,-2.704802 4.57788,-5.409604 l -0.0879,-0.10143 c -2.39375,-2.63042 -4.49674,1.440307 -4.49674,1.440307 0,0 -0.90611,2.15708 -0.31105,3.759675 z"
     fill="#ffe7d8"
     id="path3404"
     style="stroke-width:0.676201" />
  <path
     fill-rule="evenodd"
     clip-rule="evenodd"
     d="m 125.36081,73.915476 c 0,0 2.81976,3.056426 1.11573,6.559145 -1.70402,3.502718 -5.92351,3.962534 -7.16772,3.867866 7.14067,-2.400511 7.05277,-5.855896 6.05199,-10.427011 z"
     fill="#224951"
     id="path3406"
     style="stroke-width:0.676201" />
  <path
     d="m 121.2698,105.25061 c 0,0 4.19244,-2.06241 6.15342,-4.30064 0,0 5.13236,3.92196 7.81012,3.57034 0,0 -1.6905,7.61402 -5.63275,8.95289 -3.94225,1.33888 -6.37657,-1.93393 -7.37735,-4.7334 -1.00078,-2.79947 -0.95344,-3.48919 -0.95344,-3.48919 z"
     fill="#031c22"
     id="path3408"
     style="stroke-width:0.676201" />
  <path
     d="m 143.42889,103.74268 c -9.291,2.53575 -13.99735,-0.47334 -15.93805,-2.40727 -2.10974,2.59661 -4.50349,4.15187 -7.16096,4.63873 -2.54116,0.43345 -5.15265,-0.0967 -7.32325,-1.48764 -0.12916,-0.0906 -0.23802,-0.20624 -0.32187,-0.34013 -0.0832,-0.13389 -0.1393,-0.28265 -0.165,-0.43818 -0.025,-0.15552 -0.0189,-0.31443 0.0183,-0.46793 0.0372,-0.15282 0.10481,-0.29753 0.19813,-0.42397 0.19272,-0.25764 0.47807,-0.43074 0.79521,-0.48349 0.31714,-0.0527 0.64307,0.0183 0.90881,0.19948 1.64385,1.0143 3.59874,1.39838 5.50428,1.08192 2.38698,-0.44629 4.56435,-2.09622 6.50504,-4.909214 0.11834,-0.170403 0.27725,-0.309024 0.4632,-0.402339 0.18528,-0.09332 0.39085,-0.138621 0.59844,-0.131859 0.20624,0.0047 0.40842,0.06289 0.58559,0.168374 0.17784,0.104811 0.32525,0.254251 0.42871,0.433444 0.14876,0.256956 3.9693,6.403614 16.68187,1.906884 0.14944,-0.0615 0.31037,-0.092 0.47198,-0.0893 0.16229,0.002 0.32188,0.0372 0.46929,0.10346 0.14808,0.0656 0.28062,0.16094 0.39084,0.27927 0.11022,0.11901 0.19475,0.25831 0.24952,0.41113 0.0541,0.15215 0.0771,0.31376 0.0676,0.47537 -0.0101,0.16161 -0.0527,0.31984 -0.1251,0.46455 -0.073,0.14403 -0.17378,0.27251 -0.29753,0.37732 -0.12374,0.10414 -0.2671,0.18258 -0.42195,0.22991 -0.89934,0.31781 -1.75812,0.58829 -2.58308,0.81144 z"
     fill="#0c3740"
     id="path3410"
     style="stroke-width:0.676201" />
  <path
     d="m 129.30982,115.46123 c -0.37664,0.10414 -0.7614,0.17649 -1.14954,0.21639 -7.4382,0.78439 -9.06109,-10.25796 -9.12871,-10.72454 -0.0406,-0.31714 0.0467,-0.63766 0.24141,-0.89123 0.19542,-0.25358 0.48281,-0.41925 0.79994,-0.46117 0.31173,-0.0446 0.62819,0.0352 0.88177,0.22247 0.2529,0.18731 0.42195,0.46725 0.47063,0.7783 0,0.0879 1.35241,9.24367 6.47124,8.7027 5.34875,-0.55448 7.33002,-9.92662 7.3503,-10.02129 0.0683,-0.31511 0.25696,-0.59167 0.52609,-0.76951 0.26912,-0.17852 0.59708,-0.24411 0.91422,-0.18393 0.15485,0.0264 0.30294,0.0845 0.43547,0.16905 0.13254,0.0852 0.24682,0.1961 0.3354,0.32593 0.0893,0.12983 0.15079,0.27589 0.18257,0.43074 0.0311,0.15417 0.0311,0.31308 0,0.46725 -0.0609,0.42601 -2.08946,10.03482 -8.33079,11.73884 z"
     fill="#0c3740"
     id="path3412"
     style="stroke-width:0.676201" />
  <path
     d="m 123.54859,108.03655 c 0,0 1.29831,4.38854 4.46969,3.96254 3.17138,-0.42601 4.32768,-4.46969 4.32768,-4.46969 0,0 -3.71234,-1.03458 -8.79737,0.50715 z"
     fill="#ff3b2f"
     id="path3414"
     style="stroke-width:0.676201" />
  <path
     d="m 19.947915,94.242063 c -0.205024,0.0568 -0.421408,0.05951 -0.627717,0.0074 -0.206376,-0.05207 -0.395509,-0.157555 -0.548872,-0.304967 -2.197651,-2.200318 -3.601173,-5.069437 -3.989583,-8.15494 C 12.462376,87.243388 9.1963273,88.893317 7.41792,87.966922 6.9311233,87.690356 6.518668,87.299512 6.2159871,86.8282 5.913313,86.357565 5.7294609,85.819985 5.6801118,85.26212 5.5116702,84.086207 5.5848689,82.888656 5.8953058,81.742496 6.2057495,80.59566 6.7468519,79.524559 7.4855401,78.594783 c 2.3126057,-2.508704 7.3367749,-3.894915 7.5734459,-3.942249 0.15512,-0.05342 0.319437,-0.07438 0.482874,-0.06153 0.163506,0.01285 0.322616,0.05951 0.467458,0.136592 0.144842,0.07641 0.272306,0.182575 0.374547,0.310376 0.102174,0.128479 0.17703,0.276566 0.219698,0.434797 0.04274,0.158231 0.05247,0.3239 0.0286,0.485512 -0.02387,0.162288 -0.08087,0.317815 -0.16736,0.457112 -0.08649,0.139973 -0.200628,0.259661 -0.335463,0.352977 -0.134834,0.09332 -0.287452,0.15823 -0.448253,0.190012 h -0.04057 c -1.291543,0.351624 -4.85512,1.589071 -6.3495226,3.218714 -0.9930681,1.331439 -1.4229287,2.999626 -1.1968749,4.645498 0.021774,0.388815 0.196842,0.753963 0.4868644,1.0143 0.7370585,0.256957 3.8746961,-1.264494 6.5727361,-3.198428 0.186226,-0.134564 0.406329,-0.215032 0.635629,-0.231937 0.229367,-0.01691 0.458734,0.03111 0.662609,0.137269 0.200966,0.102783 0.367988,0.26169 0.480778,0.457112 0.11279,0.195422 0.166616,0.41992 0.15485,0.645095 0,0.04733 -0.196098,5.085028 3.381003,8.574222 0.114142,0.108868 0.205024,0.240051 0.267031,0.385434 0.06208,0.145384 0.09406,0.301586 0.09406,0.459817 0,0.158231 -0.03199,0.314433 -0.09406,0.459816 -0.06201,0.144707 -0.152889,0.27589 -0.267031,0.385434 -0.142205,0.153498 -0.321534,0.2671 -0.520675,0.331339 z"
     fill="#1d335f"
     id="path3416"
     style="stroke-width:0.676201" />
  <path
     d="m 11.285719,97.704209 c -0.2506,0.08047 -0.520268,0.08047 -0.770868,0 -0.147818,-0.05612 -0.282923,-0.140649 -0.397336,-0.250194 -0.11448,-0.108868 -0.2059028,-0.240051 -0.2689247,-0.384758 -0.06309,-0.144707 -0.096426,-0.300909 -0.098117,-0.45914 -0.00169,-0.158231 0.028265,-0.31511 0.088177,-0.461169 0.1081921,-0.392196 1.5147567,-6.701147 2.4276277,-10.819208 0.07127,-0.313757 0.262636,-0.587618 0.533116,-0.762078 0.270548,-0.17446 0.59864,-0.235994 0.913953,-0.171079 0.155593,0.02908 0.303749,0.08858 0.435743,0.175813 0.132062,0.08723 0.245191,0.200155 0.332826,0.332014 0.08764,0.131859 0.147953,0.279947 0.177368,0.435473 0.02948,0.155526 0.02732,0.31511 -0.0061,0.469959 -2.400512,10.853018 -2.501874,11.096451 -2.549209,11.211405 -0.07567,0.168374 -0.188659,0.317138 -0.330391,0.435473 -0.141799,0.118335 -0.308618,0.20286 -0.487879,0.247489 z"
     fill="#1d335f"
     id="path3418"
     style="stroke-width:0.676201" />
  <path
     d="m 305.65615,254.50158 c -0.22923,0.0642 -0.47266,0.0595 -0.69987,-0.0122 -0.22652,-0.0724 -0.42803,-0.20895 -0.57815,-0.39355 -1.96098,-2.46137 -2.38699,-7.99269 -2.42756,-8.61479 -0.0203,-0.32187 0.0879,-0.63901 0.30091,-0.88109 0.213,-0.24208 0.51324,-0.38949 0.83511,-0.41046 0.15755,-0.0142 0.31646,0.003 0.46793,0.0514 0.15079,0.0487 0.29077,0.12578 0.41113,0.22856 0.12104,0.10211 0.22044,0.22788 0.29212,0.36921 0.0717,0.14132 0.11495,0.29482 0.12712,0.45305 0.10143,1.48764 0.6762,5.71389 1.92718,7.31649 0.0974,0.12442 0.16837,0.2671 0.21029,0.41992 0.0412,0.15282 0.0521,0.31173 0.0311,0.46861 -0.0203,0.15688 -0.0724,0.30767 -0.15215,0.44426 -0.0798,0.13659 -0.18595,0.2556 -0.3124,0.35095 -0.12848,0.0994 -0.27589,0.1704 -0.43277,0.20962 z"
     fill="#1d335f"
     id="path3420"
     style="stroke-width:0.676201" />
  <path
     d="m 308.14457,254.88702 c -0.15147,0.0304 -0.30767,0.0304 -0.45982,0 -1.72431,-0.18258 -4.65226,1.09544 -5.63275,1.60259 -0.284,0.15079 -0.61669,0.18257 -0.92504,0.0893 -0.30767,-0.094 -0.56598,-0.30564 -0.71813,-0.58965 -0.0724,-0.13997 -0.1163,-0.29347 -0.12915,-0.45035 -0.0128,-0.15755 0.005,-0.31578 0.0534,-0.4659 0.0487,-0.15012 0.12577,-0.28941 0.22856,-0.40978 0.1021,-0.11968 0.2272,-0.21841 0.36785,-0.29009 0.43277,-0.22314 4.26682,-2.15708 7.04601,-1.86631 0.15755,0.0149 0.3097,0.0615 0.449,0.13592 0.13929,0.0751 0.26236,0.17648 0.36176,0.29955 0.0994,0.1224 0.17311,0.26372 0.21774,0.41587 0.0439,0.15147 0.0581,0.31037 0.0399,0.46725 -0.025,0.24681 -0.12443,0.48078 -0.28536,0.67012 -0.16026,0.18933 -0.37462,0.32592 -0.61399,0.39152 z"
     fill="#1d335f"
     id="path3422"
     style="stroke-width:0.676201" />
  <path
     d="m 35.994221,94.221777 c -1.890995,5.642893 -5.191462,10.710343 -9.588591,14.720883 -0.60858,-0.6762 -1.203502,-1.3524 -1.785034,-2.0827 4.26128,-3.96118 7.385124,-8.990082 9.047563,-14.565355 z"
     fill="#00c9df"
     id="path3424"
     style="stroke-width:0.676201" />
  <path
     d="m 50.945014,106.29196 c -2.305844,4.10453 -6.762005,10.91387 -13.023622,15.55261 -0.635628,-0.6762 -1.257733,-1.3524 -1.873075,-2.0286 6.146662,-4.4494 10.562252,-11.3737 12.699045,-15.24833 z"
     fill="#00c9df"
     id="path3426"
     style="stroke-width:0.676201" />
  <path
     d="m 64.922078,117.00297 c -2.772422,4.67255 -8.073766,12.69905 -15.200919,17.3175 -0.676201,-0.6762 -1.291611,-1.3524 -1.954288,-2.02861 6.985152,-4.29387 12.266278,-12.44885 14.93727,-16.9591 0.74382,0.56124 1.474117,1.12925 2.217937,1.67021 z"
     fill="#00c9df"
     id="path3428"
     style="stroke-width:0.676201" />
  <path
     d="m 79.798422,127.76808 c -2.968521,5.07827 -9.020515,14.47069 -17.263467,19.52191 l -1.981335,-1.9745 c 8.073969,-4.65902 14.119202,-14.20021 16.993054,-19.11619 0.730296,0.51391 1.487641,1.04811 2.251748,1.56878 z"
     fill="#00c9df"
     id="path3430"
     style="stroke-width:0.676201" />
  <path
     d="m 93.782248,137.19432 c -2.623658,5.51779 -8.520126,16.97263 -17.418925,23.53178 -0.676201,-0.63563 -1.352401,-1.27802 -2.028602,-1.92718 8.736511,-6.24133 14.599169,-17.87197 17.087587,-23.12605 z"
     fill="#00c9df"
     id="path3432"
     style="stroke-width:0.676201" />
  <path
     d="m 105.6428,144.47024 c -2.08945,7.4923 -6.410376,20.69173 -14.51802,30.08416 -0.676201,-0.62887 -1.352401,-1.24421 -2.028602,-1.87308 7.92507,-9.26395 12.103992,-22.56481 14.037922,-29.66492 z"
     fill="#00c9df"
     id="path3434"
     style="stroke-width:0.676201" />
  <path
     d="m 117.72651,151.07671 c 0.0676,9.46681 -0.64239,27.13593 -8.22936,40.12574 l -2.10299,-1.86631 c 7.33002,-13.03715 7.65459,-31.05789 7.53964,-39.68621 0.94668,0.48687 1.87307,0.97373 2.79271,1.42678 z"
     fill="#00c9df"
     id="path3436"
     style="stroke-width:0.676201" />
  <g
     style="mix-blend-mode:multiply"
     id="g3440"
     transform="matrix(0.6762005,0,0,0.6762005,5.1607484e-7,-1.0005687e-6)">
    <path
       d="m 450.01,349.79 h -2 c 0,0 -18.89,-59.9 -39,-76.15 -17.13,-13.8 -48.83,-8.42 -55.77,-6.88 l 0.62,-8.94 c 0,0 46.42,-9.32 59.23,0 12.43,9 33.32,73.4 36.92,91.97 z"
       fill="#64e5eb"
       id="path3438" />
  </g>
  <path
     d="m 316.98927,228.88711 c 0.0541,0.93315 0.0879,1.85279 0.11495,2.7048 -5.25407,-0.48687 -11.71179,0.38543 -15.40384,1.0143 -0.25696,-0.77763 -0.56801,-1.64993 -0.89935,-2.6169 3.64472,-0.60182 10.40673,-1.56202 16.18824,-1.1022 z"
     fill="#00c9df"
     id="path3442"
     style="stroke-width:0.676201" />
  <path
     d="m 315.65716,212.42162 c 0.0947,0.91964 0.19609,1.82575 0.284,2.70481 -7.20154,0.54096 -14.99136,2.74537 -19.19057,4.09101 -0.33134,-0.84525 -0.6762,-1.68374 -1.04135,-2.54251 4.2533,-1.35917 12.31361,-3.67854 19.94792,-4.25331 z"
     fill="#00c9df"
     id="path3444"
     style="stroke-width:0.676201" />
  <path
     d="m 313.43922,196.42948 c 0.14876,0.91963 0.29076,1.82574 0.43277,2.7589 -8.75004,-0.7303 -19.21762,3.51624 -23.59264,5.49751 -0.41248,-0.8182 -0.82496,-1.6364 -1.24421,-2.44108 4.4494,-2.05565 15.00489,-6.34953 24.40408,-5.81533 z"
     fill="#00c9df"
     id="path3446"
     style="stroke-width:0.676201" />
  <path
     d="m 308.75991,174.52059 c -10.67721,2.96175 -21.10422,12.26627 -26.07429,17.2093 -0.56125,-0.77763 -1.12249,-1.51469 -1.69726,-2.21794 5.25407,-5.19322 15.81633,-14.5045 27.00068,-17.58121 0.27048,0.83172 0.51391,1.68374 0.77087,2.58985 z"
     fill="#00c9df"
     id="path3448"
     style="stroke-width:0.676201" />
  <path
     d="m 290.24554,151.27957 c -10.19034,9.12195 -16.06652,24.14712 -18.31827,30.92942 -0.84322,-0.39829 -1.70808,-0.75059 -2.58985,-1.05488 2.33289,-7.01896 8.18203,-21.88185 18.56171,-31.43656 0.8182,0.51391 1.59583,1.03459 2.34641,1.56202 z"
     fill="#00c9df"
     id="path3450"
     style="stroke-width:0.676201" />
  <path
     d="m 266.75434,137.18079 c -6.50505,9.30452 -10.06863,31.98429 -11.32636,41.67424 -0.96021,0 -1.90013,0 -2.81976,0 1.22392,-9.58176 4.7875,-32.61315 11.73208,-42.97254 z"
     fill="#00c9df"
     id="path3452"
     style="stroke-width:0.676201" />
  <path
     d="m 248.21968,127.45703 c -5.30817,14.74117 -5.22703,41.34966 -4.94303,52.16211 -1.02106,0.142 -1.96098,0.29753 -2.77918,0.43277 -0.32458,-10.81921 -0.50039,-38.36086 5.21351,-53.83233 0.75058,0.3922 1.60259,0.80468 2.5087,1.23745 z"
     fill="#00c9df"
     id="path3454"
     style="stroke-width:0.676201" />
  <path
     fill-rule="evenodd"
     clip-rule="evenodd"
     d="m 211.37351,252.04697 c -8.35107,3.09024 -34.79727,12.7261 -41.92443,13.52401 -2.1706,0.22991 -2.24498,-0.92639 -3.381,-2.73861 -1.05825,-1.64655 -1.97653,-3.37965 -2.74537,-5.17969 -0.96021,-2.44109 -0.91964,-2.90767 1.26449,-3.65149 6.14666,-2.08946 32.07895,-10.33234 42.04615,-14.5045 10.28501,-3.33367 35.31795,-13.9703 41.33614,-16.38434 2.14355,-0.86553 2.48165,-0.53419 3.381,1.93394 0.61196,1.8582 1.06434,3.76508 1.3524,5.70037 0.34486,2.10298 1.05487,3.02938 -0.73706,4.26006 -5.88971,4.0572 -32.22772,13.9703 -40.57203,17.0673"
     fill="#00c9df"
     id="path3456"
     style="stroke-width:0.676201" />
  <path
     d="m 225.66163,402.67063 14.20021,-28.19756 c 0.19001,-0.36447 0.28874,-0.76951 0.28874,-1.17997 0,-0.41113 -0.0987,-0.81549 -0.28874,-1.17997 -0.41113,-0.76681 -0.98319,-1.43557 -1.67698,-1.96098 -0.85674,-0.63901 -1.86225,-1.04878 -2.92118,-1.19011 -0.56395,-0.0764 -1.13737,0.025 -1.64114,0.28874 -0.50377,0.26439 -0.91355,0.67823 -1.17186,1.18538 l -14.55859,28.85347 c -0.2529,0.48349 -0.34419,1.03527 -0.26034,1.57487 0.0838,0.53894 0.33878,1.03729 0.72692,1.4207 0.59979,0.57883 1.30439,1.03797 2.07593,1.3524 0.94127,0.38949 1.95828,0.5626 2.97528,0.50715 0.47132,-0.0277 0.92707,-0.17852 1.32198,-0.4375 0.39557,-0.25831 0.71609,-0.61602 0.92977,-1.03662 z"
     fill="#00b8d5"
     id="path3458"
     style="stroke-width:0.676201" />
  <path
     d="m 303.37059,422.53064 28.01499,-15.38356 c 0.36312,-0.1988 0.67417,-0.47942 0.90881,-0.82023 0.23464,-0.34013 0.38679,-0.73097 0.44359,-1.14075 0.1251,-0.95344 0.0176,-1.92244 -0.31511,-2.82517 -0.33201,-0.90205 -0.87838,-1.71011 -1.59177,-2.35453 -0.42128,-0.38272 -0.95277,-0.62278 -1.51875,-0.68566 -0.5653,-0.0636 -1.13669,0.0534 -1.63235,0.33404 l -28.64385,15.72842 c -0.48349,0.25899 -0.87365,0.66336 -1.11641,1.15563 -0.24276,0.49227 -0.32525,1.04811 -0.23599,1.58975 0.14808,0.81617 0.45102,1.59718 0.89258,2.29908 0.54299,0.84525 1.27126,1.55526 2.13003,2.07594 0.40437,0.23396 0.86148,0.35973 1.32874,0.36447 0.46658,0.005 0.92707,-0.11158 1.33549,-0.33743 z"
     fill="#00b8d5"
     id="path3460"
     style="stroke-width:0.676201" />
  <path
     d="m 159.88761,328.57935 c 0.34486,3.90167 -3.92873,13.88239 -1.43355,18.56846 2.49518,4.68607 8.01298,9.04756 7.55316,11.77265 -0.24343,1.39298 -2.15708,2.7048 -3.95577,3.62444 -5.80856,-5.97085 -9.33833,-11.40751 -9.71024,-15.55261 -0.37191,-4.14511 0.4801,-11.88085 1.96098,-21.19889 v -0.0473 c 0,0 5.24056,-1.07516 5.58542,2.83328 z"
     fill="#00b8d5"
     id="path3462"
     style="stroke-width:0.676201" />
  <path
     d="m 299.98283,340.13561 c -2.41404,1.16983 -5.80856,2.39375 -8.06707,1.3524 -3.84082,-1.71755 -13.30763,-28.40042 -14.81556,-31.30132 -1.50792,-2.9009 6.18724,-6.71467 6.18724,-6.71467 5.37579,11.84027 11.0153,24.2756 16.69539,36.66359 z"
     fill="#00b8d5"
     id="path3464"
     style="stroke-width:0.676201" />
  <path
     fill-rule="evenodd"
     clip-rule="evenodd"
     d="m 133.59693,146.90456 v 5.04445 l 65.78755,-17.97341 -2.5628,-4.34797 c -0.47266,-0.29685 -0.85945,-0.71203 -1.12249,-1.20363 -0.142,-0.41519 -0.17176,-0.86081 -0.0845,-1.29087 0.0866,-0.43006 0.28603,-0.8297 0.57815,-1.15698 0.81077,-1.08327 1.7162,-2.09216 2.70481,-3.01585 0.54772,-0.54096 1.08868,-1.08868 1.61611,-1.64317 17.58122,-18.37237 24.28236,-44.142368 17.68265,-68.296317 C 207.73556,14.73434 167.48134,-7.6208483 128.26171,3.0901541 89.042082,13.801184 65.733316,53.534725 76.194273,91.828027 82.800752,115.98867 101.69379,134.76 126.15873,141.65048 c 0.73706,0.20962 1.48088,0.40572 2.2247,0.59506 1.32873,0.28941 2.62974,0.69445 3.88815,1.2104 0.41722,0.13388 0.79115,0.37596 1.08463,0.70121 0.29347,0.32526 0.49565,0.72286 0.58559,1.15157 0.0203,0.55246 -0.0987,1.10086 -0.34487,1.59584 z"
     fill="url(#paint4_linear_111_2)"
     id="path3466"
     style="fill:url(#paint4_linear_111_2);stroke-width:0.676201" />
  <path
     d="m 133.99589,147.06685 -0.80468,-0.27048 c 0.12848,-0.46658 -0.54772,-2.70481 -1.09544,-2.94824 -1.21581,-0.50106 -2.47422,-0.89258 -3.75968,-1.16983 -0.80468,-0.20286 -1.55526,-0.39895 -2.29908,-0.60858 C 101.24074,135.07781 82.455889,116.3403 75.788553,91.949743 65.287159,53.500915 88.778364,13.463083 128.16028,2.6912229 167.5422,-8.0806646 208.13451,14.457098 218.63591,52.912621 c 3.06319,11.379642 3.28025,23.337775 0.63157,34.821012 -2.64868,11.483237 -8.08127,22.138807 -15.81904,31.027457 l -0.6762,-0.54096 C 218.36543,100.12501 223.98465,75.788551 217.79066,53.135767 207.41098,15.126537 167.292,-7.1407459 128.36314,3.495888 89.434279,14.132522 66.213621,53.703775 76.593231,91.713073 c 6.592955,24.106547 25.154659,42.600627 49.673689,49.538447 0.7303,0.20962 1.47412,0.40572 2.21118,0.5883 1.35781,0.29076 2.68654,0.70527 3.96929,1.23744 1.05488,0.45982 1.80546,3.24577 1.5485,3.98959 z"
     fill="#00cfe1"
     id="path3468"
     style="stroke-width:0.676201" />
  <path
     d="m 104.31339,50.525159 c 2.99016,-4.091554 2.64192,-9.434146 -0.77695,-11.93291 -3.41955,-2.498831 -8.61547,-1.207694 -11.605629,2.883928 -2.990159,4.091554 -2.641915,9.434146 0.776954,11.932978 3.419546,2.498763 8.615475,1.207626 11.605625,-2.883996 z"
     fill="#ffffff"
     id="path3470"
     style="stroke-width:0.676201" />
  <path
     d="m 112.48122,32.72506 c 1.34158,-1.84224 1.18132,-4.244848 -0.35839,-5.366394 -1.5397,-1.121547 -3.8753,-0.537242 -5.21756,1.304999 -1.34158,1.842173 -1.18132,4.244781 0.35839,5.366259 1.53971,1.121547 3.87598,0.537309 5.21756,-1.304864 z"
     fill="#ffffff"
     id="path3472"
     style="stroke-width:0.676201" />
  <path
     d="m 398.27533,272.96185 -20.0561,38.45553 c -1.53227,3.27416 -4.09846,5.95462 -7.30297,7.62754 l -87.39891,45.48801 -11.7997,6.1399 c -1.73919,0.90678 -3.63999,1.46194 -5.59353,1.6337 -1.95355,0.17175 -3.92197,-0.0433 -5.79234,-0.63225 -1.87104,-0.58897 -3.60685,-1.54038 -5.11004,-2.80082 -1.50252,-1.26044 -2.742,-2.80421 -3.64811,-4.54339 l -56.19226,-98.72528 -2.0286,-3.86786 c -1.0596,-2.0374 -1.68644,-4.27224 -1.84129,-6.56321 -0.15485,-2.29164 0.16567,-4.59004 0.94194,-6.75118 l 1.81222,-3.5771 17.04025,-33.81003 3.46891,8.33756 4.26007,10.22415 78.93964,-41.10623 c 3.91723,-2.03807 8.48294,-2.43635 12.69364,-1.10897 4.21138,1.32738 7.72288,4.27291 9.76298,8.18879 l 51.39124,89.46132 0.87906,1.67698 z"
     fill="#919395"
     id="path3474"
     style="stroke-width:0.676201" />
  <path
     d="m 216.41797,224.6879 -21.0366,40.91013 -2.0286,-3.86787 c -1.0596,-2.03739 -1.68644,-4.27223 -1.84129,-6.5632 -0.15485,-2.29164 0.16567,-4.59005 0.94194,-6.75118 l 1.81222,-3.5771 17.04025,-33.81003 3.46891,8.33755 c 0.39355,1.81763 0.9433,3.59874 1.64317,5.3217 z"
     fill="#a6a9ab"
     id="path3476"
     style="stroke-width:0.676201" />
  <path
     d="m 194.29269,244.81163 -1.81222,3.5771 c 0.45779,-1.26112 1.06637,-2.46205 1.81222,-3.5771 z"
     fill="#919395"
     id="path3478"
     style="stroke-width:0.676201" />
  <path
     d="m 299.42834,320.25532 -15.91099,44.27761 -11.7997,6.1399 c -1.73919,0.90678 -3.63999,1.46194 -5.59353,1.6337 -1.95355,0.17175 -3.92197,-0.0433 -5.79234,-0.63225 -1.87104,-0.58897 -3.60685,-1.54038 -5.11004,-2.80082 -1.50252,-1.26044 -2.742,-2.80421 -3.64811,-4.54339 l 18.77133,-40.28127 c 5.98437,-4.65902 29.08338,-3.79348 29.08338,-3.79348 z"
     fill="#808183"
     id="path3480"
     style="stroke-width:0.676201" />
  <path
     d="m 398.27533,272.96185 -20.0561,38.45553 c -1.53227,3.27416 -4.09778,5.95462 -7.30297,7.62754 l -99.19861,51.62791 19.06885,-39.05058 81.03587,-46.6105 0.87906,1.67697 z"
     fill="#6d6e71"
     id="path3482"
     style="stroke-width:0.676201" />
  <path
     d="M 398.37,259.66099 339.83132,156.42546 c -2.04009,-3.91385 -5.55093,-6.85802 -9.76095,-8.18405 -4.20935,-1.32671 -8.7737,-0.92707 -12.6889,1.11099 l -97.56221,50.80295 c -3.91385,2.04009 -6.85803,5.55093 -8.18406,9.76028 -1.3267,4.21002 -0.92707,8.77437 1.111,12.68957 l 57.60552,101.43008 c 0.98387,1.89336 2.33154,3.57372 3.96524,4.94573 1.63438,1.37201 3.52233,2.40795 5.55769,3.04899 2.03469,0.64171 4.17622,0.875 6.30152,0.68837 2.12529,-0.18731 4.19312,-0.79183 6.08445,-1.77908 l 100.07767,-52.06744 c 1.66075,-0.86148 3.13554,-2.0428 4.33851,-3.47635 1.20296,-1.43287 2.11042,-3.09024 2.67099,-4.87541 0.56057,-1.78516 0.76275,-3.66365 0.59505,-5.52726 -0.16769,-1.86361 -0.70257,-3.67582 -1.57284,-5.33184 z"
     fill="#eff0f0"
     id="path3484"
     style="stroke-width:0.676201" />
  <path
     d="m 289.46115,327.45685 99.80719,-51.97277 c 1.27396,-0.662 2.40457,-1.56878 3.32759,-2.66828 0.92301,-1.09951 1.62017,-2.37009 2.05159,-3.73939 0.43141,-1.36931 0.58829,-2.80962 0.46252,-4.23978 -0.12577,-1.43016 -0.53217,-2.82111 -1.1962,-4.09372 l -58.0721,-102.34294 c -1.48223,-2.84681 -4.03489,-4.98833 -7.09605,-5.95327 -3.06116,-0.96494 -6.38063,-0.67417 -9.22743,0.80738 l -97.7245,50.89085 c -2.8468,1.48223 -4.98833,4.03489 -5.95326,7.09605 -0.96494,3.06116 -0.67418,6.37995 0.80738,9.22743 l 58.04505,102.34295 c 0.66335,1.27599 1.57217,2.40862 2.6737,3.33299 1.10153,0.92369 2.37481,1.6222 3.74682,2.05362 1.37134,0.43141 2.81503,0.58829 4.24722,0.46117 1.43287,-0.1278 2.82584,-0.53623 4.10048,-1.20229 z"
     fill="#ced1d2"
     id="path3486"
     style="stroke-width:0.676201" />
  <path
     d="m 249.22316,216.4653 64.63463,-33.66058 c 1.72228,-0.89732 2.39104,-3.02059 1.4944,-4.74287 l -1.24015,-2.3809 c -0.89664,-1.72229 -3.02059,-2.39173 -4.74287,-1.49441 l -64.63395,33.66059 c -1.72296,0.89664 -2.39172,3.02059 -1.49508,4.74287 l 1.24015,2.3809 c 0.89732,1.72228 3.02059,2.39172 4.74287,1.4944 z"
     fill="#a5a7aa"
     id="path3488"
     style="stroke-width:0.676201" />
  <path
     d="m 303.36248,188.27856 -43.64333,22.72913 -1.2246,-2.35115 c -0.26981,-0.51865 -0.32255,-1.12317 -0.14742,-1.68036 0.17582,-0.55786 0.56598,-1.02309 1.08463,-1.29289 l 39.73287,-20.69242 c 0.51864,-0.2698 1.12316,-0.32322 1.68103,-0.14741 0.55719,0.17582 1.02242,0.56598 1.29222,1.08395 z"
     fill="#919395"
     id="path3490"
     style="stroke-width:0.676201" />
  <path
     d="m 265.16797,267.76458 80.37184,-41.85614 c 1.65939,-0.86418 2.30381,-2.91036 1.43963,-4.56976 l -9.60408,-18.44202 c -0.86418,-1.65939 -2.91036,-2.30449 -4.56976,-1.4403 l -80.37116,41.85681 c -1.6594,0.86418 -2.30449,2.91036 -1.44031,4.56976 l 9.60475,18.44202 c 0.86419,1.65939 2.90969,2.30381 4.56909,1.43963 z"
     fill="#a5a7aa"
     id="path3492"
     style="stroke-width:0.676201" />
  <path
     d="m 346.18085,219.8037 -3.66433,1.90824 c -0.2529,0.13186 -0.52947,0.21233 -0.81347,0.23735 -0.28333,0.0243 -0.57004,-0.007 -0.84187,-0.0926 -0.27184,-0.0852 -0.52406,-0.22382 -0.74247,-0.40707 -0.21841,-0.18325 -0.39828,-0.40775 -0.53014,-0.65997 l -5.99993,-11.52111 c -0.13186,-0.2529 -0.21233,-0.52946 -0.23735,-0.81347 -0.025,-0.284 0.007,-0.57004 0.092,-0.84187 0.0859,-0.27183 0.2245,-0.52405 0.40775,-0.74247 0.18325,-0.21841 0.40707,-0.39828 0.65997,-0.53014 l 3.66433,-1.90823 z"
     fill="#919395"
     id="path3494"
     style="stroke-width:0.676201" />
  <path
     d="m 328.28858,215.81615 c 1.21716,0 2.20441,-0.98725 2.20441,-2.20441 0,-1.21784 -0.98725,-2.20442 -2.20441,-2.20442 -1.21784,0 -2.20441,0.98658 -2.20441,2.20442 0,1.21716 0.98657,2.20441 2.20441,2.20441 z"
     fill="#ced1d2"
     id="path3496"
     style="stroke-width:0.676201" />
  <path
     d="m 332.88674,224.64733 c 1.21717,0 2.20442,-0.98725 2.20442,-2.20441 0,-1.21784 -0.98725,-2.20442 -2.20442,-2.20442 -1.21716,0 -2.20441,0.98658 -2.20441,2.20442 0,1.21716 0.98725,2.20441 2.20441,2.20441 z"
     fill="#ced1d2"
     id="path3498"
     style="stroke-width:0.676201" />
  <path
     d="m 248.43945,240.69019 6.24335,-3.25118 c 0.51662,-0.26912 0.71745,-0.9061 0.44833,-1.42272 l -0.003,-0.006 c -0.26913,-0.51661 -0.90611,-0.71745 -1.4234,-0.44832 l -6.24336,3.25117 c -0.51662,0.26913 -0.71745,0.90611 -0.44832,1.42273 l 0.003,0.006 c 0.26913,0.51661 0.90611,0.71744 1.42273,0.44832 z"
     fill="#0689e8"
     id="path3500"
     style="stroke-width:0.676201" />
  <path
     d="m 261.90395,233.67731 6.24336,-3.25185 c 0.51729,-0.26913 0.71745,-0.90611 0.449,-1.42272 l -0.003,-0.006 c -0.26912,-0.51662 -0.9061,-0.71745 -1.42272,-0.44832 l -6.24336,3.25185 c -0.51662,0.26913 -0.71745,0.90611 -0.44832,1.42272 l 0.003,0.006 c 0.26913,0.51662 0.90611,0.71745 1.42273,0.44832 z"
     fill="#e95d5f"
     id="path3502"
     style="stroke-width:0.676201" />
  <path
     d="m 317.24487,231.90837 c 0.3469,0.66538 1.1678,0.92437 1.83318,0.57748 0.66606,-0.3469 0.92437,-1.16713 0.57748,-1.83318 l -5.89038,-11.31081 c -0.34689,-0.66606 -1.1678,-0.92504 -1.83318,-0.57815 -0.66606,0.34689 -0.92437,1.1678 -0.57815,1.83318 z"
     fill="#808083"
     id="path3504"
     style="stroke-width:0.676201" />
  <path
     d="m 305.63451,237.95022 c 0.34689,0.66538 1.1678,0.92437 1.83318,0.57748 0.66606,-0.34689 0.92437,-1.1678 0.57815,-1.83318 l -5.89106,-11.31148 c -0.34689,-0.66539 -1.16779,-0.92437 -1.83318,-0.57748 -0.66605,0.34689 -0.92436,1.16712 -0.57747,1.83318 z"
     fill="#808083"
     id="path3506"
     style="stroke-width:0.676201" />
  <path
     d="m 294.03429,243.99748 c 0.34689,0.66606 1.1678,0.92437 1.83318,0.57748 0.66606,-0.34622 0.92437,-1.16712 0.57748,-1.83318 l -5.89039,-11.31081 c -0.34689,-0.66605 -1.16779,-0.92436 -1.83317,-0.57815 -0.66606,0.34689 -0.92437,1.1678 -0.57816,1.83318 z"
     fill="#808083"
     id="path3508"
     style="stroke-width:0.676201" />
  <path
     d="m 282.43069,250.03933 c 0.34689,0.66539 1.1678,0.92437 1.83318,0.57748 0.66606,-0.34689 0.92504,-1.1678 0.57815,-1.83318 l -5.89106,-11.31148 c -0.34621,-0.66538 -1.16712,-0.92437 -1.83318,-0.57748 -0.66538,0.34689 -0.92436,1.16712 -0.57747,1.83318 z"
     fill="#808083"
     id="path3510"
     style="stroke-width:0.676201" />
  <path
     d="m 270.82371,256.0866 c 0.34689,0.66605 1.1678,0.92436 1.83386,0.57747 0.66538,-0.34621 0.92436,-1.16712 0.57747,-1.83318 l -5.89106,-11.3108 c -0.34621,-0.66606 -1.16712,-0.92437 -1.83318,-0.57816 -0.66538,0.34689 -0.92436,1.1678 -0.57747,1.83318 z"
     fill="#808083"
     id="path3512"
     style="stroke-width:0.676201" />
  <path
     d="m 287.73548,311.09212 80.37117,-41.85681 c 1.65939,-0.86418 2.30449,-2.90969 1.4403,-4.56908 l -9.60475,-18.4427 c -0.86418,-1.65939 -2.90969,-2.30381 -4.56908,-1.43963 l -80.37184,41.85681 c -1.6594,0.86419 -2.30382,2.9097 -1.43963,4.56909 l 9.60407,18.44269 c 0.86419,1.6594 2.91037,2.30382 4.56976,1.43963 z"
     fill="#a5a7aa"
     id="path3514"
     style="stroke-width:0.676201" />
  <path
     d="m 368.74769,263.13734 -3.66433,1.90891 c -0.51054,0.26575 -1.10559,0.31782 -1.65467,0.14471 -0.54907,-0.17311 -1.00686,-0.55719 -1.27328,-1.06772 l -5.99993,-11.52111 c -0.26575,-0.51053 -0.31781,-1.10558 -0.14471,-1.65466 0.17243,-0.54907 0.55652,-1.00686 1.06772,-1.27328 l 3.66433,-1.90824 z"
     fill="#919395"
     id="path3516"
     style="stroke-width:0.676201" />
  <path
     d="m 350.85339,259.14708 c 1.21716,0 2.20442,-0.98725 2.20442,-2.20442 0,-1.21783 -0.98726,-2.20441 -2.20442,-2.20441 -1.21716,0 -2.20441,0.98658 -2.20441,2.20441 0,1.21717 0.98725,2.20442 2.20441,2.20442 z"
     fill="#ced1d2"
     id="path3518"
     style="stroke-width:0.676201" />
  <path
     d="m 355.45156,267.97826 c 1.21716,0 2.20441,-0.98726 2.20441,-2.20442 0,-1.21783 -0.98725,-2.20441 -2.20441,-2.20441 -1.21784,0 -2.20442,0.98658 -2.20442,2.20441 0,1.21716 0.98658,2.20442 2.20442,2.20442 z"
     fill="#ced1d2"
     id="path3520"
     style="stroke-width:0.676201" />
  <path
     d="m 271.0002,284.02044 6.24336,-3.25117 c 0.51729,-0.26913 0.71745,-0.90611 0.44832,-1.42273 l -0.003,-0.006 c -0.26912,-0.51661 -0.9061,-0.71744 -1.42272,-0.44832 l -6.24336,3.25118 c -0.51662,0.26912 -0.71745,0.9061 -0.44832,1.4234 l 0.003,0.005 c 0.26913,0.51729 0.90611,0.71745 1.42273,0.44832 z"
     fill="#2fb574"
     id="path3522"
     style="stroke-width:0.676201" />
  <path
     d="m 284.46538,277.00756 6.24336,-3.25117 c 0.51662,-0.26913 0.71745,-0.90611 0.44832,-1.4234 l -0.003,-0.005 c -0.26913,-0.51729 -0.90611,-0.71745 -1.42273,-0.44832 l -6.24336,3.25117 c -0.51661,0.26913 -0.71745,0.90611 -0.44832,1.42273 l 0.003,0.006 c 0.26913,0.51662 0.90611,0.71745 1.42273,0.44832 z"
     fill="#2fb574"
     id="path3524"
     style="stroke-width:0.676201" />
  <path
     d="m 339.80563,275.24538 c 0.34689,0.66606 1.1678,0.92437 1.83318,0.57748 0.66606,-0.34622 0.92436,-1.16712 0.57815,-1.83318 l -5.89106,-11.31081 c -0.34689,-0.66605 -1.16712,-0.92436 -1.83318,-0.57815 -0.66606,0.34689 -0.92437,1.1678 -0.57747,1.83386 z"
     fill="#808083"
     id="path3526"
     style="stroke-width:0.676201" />
  <path
     d="m 328.19594,281.28724 c 0.34622,0.66538 1.16712,0.92436 1.83318,0.57747 0.66538,-0.34689 0.92437,-1.1678 0.57748,-1.83318 l -5.89039,-11.31148 c -0.34689,-0.66538 -1.16779,-0.92437 -1.83385,-0.57748 -0.66538,0.34689 -0.92437,1.1678 -0.57748,1.83318 z"
     fill="#808083"
     id="path3528"
     style="stroke-width:0.676201" />
  <path
     d="m 316.59505,287.32773 c 0.34689,0.66606 1.16779,0.92437 1.83385,0.57748 0.66538,-0.34621 0.92437,-1.16712 0.57748,-1.83318 l -5.89106,-11.31081 c -0.34622,-0.66605 -1.16712,-0.92436 -1.83318,-0.57747 -0.66538,0.34621 -0.92437,1.16712 -0.57748,1.83318 z"
     fill="#808083"
     id="path3530"
     style="stroke-width:0.676201" />
  <path
     d="m 304.98536,293.36959 c 0.34689,0.66538 1.16712,0.92436 1.83318,0.57747 0.66606,-0.34689 0.92437,-1.1678 0.57747,-1.83318 l -5.89038,-11.31148 c -0.34689,-0.66538 -1.1678,-0.92437 -1.83318,-0.57748 -0.66606,0.3469 -0.92436,1.1678 -0.57815,1.83318 z"
     fill="#808083"
     id="path3532"
     style="stroke-width:0.676201" />
  <path
     d="m 293.38514,299.41685 c 0.34621,0.66605 1.16712,0.92436 1.83318,0.57815 0.66538,-0.34689 0.92437,-1.1678 0.57747,-1.83386 l -5.89038,-11.3108 c -0.34689,-0.66606 -1.1678,-0.92437 -1.83385,-0.57748 -0.66538,0.34622 -0.92437,1.16712 -0.57748,1.83318 z"
     fill="#808083"
     id="path3534"
     style="stroke-width:0.676201" />
  <path
     d="m 227.96545,269.68296 c 0.0987,-0.63901 -0.21368,-1.21716 -0.69717,-1.29154 -0.48348,-0.0744 -0.95547,0.38273 -1.05352,1.02106 -0.0987,0.63901 0.21368,1.21716 0.69717,1.29154 0.48348,0.0744 0.95547,-0.38273 1.05352,-1.02106 z"
     fill="#6d6e71"
     id="path3536"
     style="stroke-width:0.676201" />
  <path
     d="m 220.7869,276.58764 c 0.0981,-0.63901 -0.21435,-1.21716 -0.69784,-1.29154 -0.48348,-0.0744 -0.95479,0.38273 -1.05352,1.02174 -0.0981,0.63833 0.21368,1.21648 0.69717,1.29086 0.48348,0.0744 0.95547,-0.38272 1.05419,-1.02106 z"
     fill="#6d6e71"
     id="path3538"
     style="stroke-width:0.676201" />
  <path
     d="m 212.16332,281.04448 c 0.0974,-0.63969 -0.21706,-1.21784 -0.70122,-1.29087 -0.48416,-0.0737 -0.95547,0.38544 -1.05217,1.02512 -0.0974,0.63969 0.21706,1.21716 0.70122,1.29087 0.48416,0.073 0.95547,-0.38543 1.05217,-1.02512 z"
     fill="#6d6e71"
     id="path3540"
     style="stroke-width:0.676201" />
  <path
     d="m 234.26223,281.54284 c 0.098,-0.63833 -0.21368,-1.21649 -0.69717,-1.29087 -0.48348,-0.0744 -0.95547,0.38273 -1.05419,1.02107 -0.0981,0.63833 0.21435,1.21648 0.69784,1.29086 0.48348,0.0751 0.95479,-0.38273 1.05352,-1.02106 z"
     fill="#6d6e71"
     id="path3542"
     style="stroke-width:0.676201" />
  <path
     d="m 227.08436,288.44076 c 0.0981,-0.63833 -0.21368,-1.21648 -0.69717,-1.29087 -0.48348,-0.0744 -0.95547,0.38273 -1.05419,1.02107 -0.0981,0.63901 0.21435,1.21716 0.69784,1.29154 0.48348,0.0744 0.95479,-0.38273 1.05352,-1.02174 z"
     fill="#6d6e71"
     id="path3544"
     style="stroke-width:0.676201" />
  <path
     d="m 219.89837,295.35221 c 0.0987,-0.63834 -0.21367,-1.21649 -0.69716,-1.29087 -0.48348,-0.0744 -0.95547,0.38273 -1.05352,1.02106 -0.0987,0.63901 0.21368,1.21716 0.69716,1.29154 0.48349,0.0744 0.95548,-0.38272 1.05352,-1.02173 z"
     fill="#6d6e71"
     id="path3546"
     style="stroke-width:0.676201" />
  <path
     d="m 226.7422,279.70087 c 0.0987,-0.63833 -0.21368,-1.21649 -0.69716,-1.29087 -0.48349,-0.0744 -0.9548,0.38273 -1.05352,1.02107 -0.0981,0.639 0.21368,1.21716 0.69716,1.29154 0.48348,0.0744 0.95547,-0.38273 1.05352,-1.02174 z"
     fill="#6d6e71"
     id="path3548"
     style="stroke-width:0.676201" />
  <path
     d="m 219.56366,286.61231 c 0.0987,-0.63833 -0.21368,-1.21648 -0.69717,-1.29086 -0.48348,-0.0744 -0.95547,0.38273 -1.05352,1.02106 -0.0987,0.63901 0.21368,1.21716 0.69716,1.29154 0.48349,0.0744 0.95548,-0.38273 1.05353,-1.02174 z"
     fill="#6d6e71"
     id="path3550"
     style="stroke-width:0.676201" />
  <path
     d="m 240.35073,293.01796 c 0.0987,-0.63901 -0.21367,-1.21648 -0.69716,-1.29154 -0.48348,-0.0744 -0.95547,0.38273 -1.05352,1.02174 -0.0987,0.63833 0.21368,1.21648 0.69716,1.29086 0.48349,0.0744 0.9548,-0.38273 1.05352,-1.02106 z"
     fill="#6d6e71"
     id="path3552"
     style="stroke-width:0.676201" />
  <path
     d="m 233.16543,299.92264 c 0.0981,-0.639 -0.21436,-1.21648 -0.69784,-1.29154 -0.48348,-0.0744 -0.9548,0.38273 -1.05352,1.02174 -0.0981,0.63833 0.21368,1.21649 0.69716,1.29087 0.48349,0.0744 0.95547,-0.38273 1.0542,-1.02107 z"
     fill="#6d6e71"
     id="path3554"
     style="stroke-width:0.676201" />
  <path
     d="m 225.99365,306.82868 c 0.0987,-0.63901 -0.21368,-1.21716 -0.69717,-1.29154 -0.48348,-0.0744 -0.95547,0.38273 -1.05352,1.02174 -0.0987,0.63833 0.21368,1.21648 0.69717,1.29086 0.48348,0.0744 0.95547,-0.38273 1.05352,-1.02106 z"
     fill="#6d6e71"
     id="path3556"
     style="stroke-width:0.676201" />
  <path
     d="m 246.64075,304.87852 c 0.0981,-0.63901 -0.21368,-1.21716 -0.69784,-1.29154 -0.48348,-0.0744 -0.95479,0.38272 -1.05352,1.02173 -0.0981,0.63834 0.21436,1.21649 0.69784,1.29087 0.48348,0.0744 0.9548,-0.38273 1.05352,-1.02106 z"
     fill="#6d6e71"
     id="path3558"
     style="stroke-width:0.676201" />
  <path
     d="m 239.46288,311.7832 c 0.0981,-0.63901 -0.21368,-1.21648 -0.69716,-1.29154 -0.48416,-0.0744 -0.95547,0.38273 -1.0542,1.02174 -0.098,0.63833 0.21436,1.21648 0.69784,1.29086 0.48349,0.0744 0.9548,-0.38272 1.05352,-1.02106 z"
     fill="#6d6e71"
     id="path3560"
     style="stroke-width:0.676201" />
  <path
     d="m 232.28366,318.68789 c 0.0987,-0.63901 -0.21368,-1.21649 -0.69716,-1.29155 -0.48348,-0.0744 -0.95547,0.38273 -1.05352,1.02174 -0.0987,0.63833 0.21368,1.21649 0.69716,1.29087 0.48349,0.0744 0.95547,-0.38273 1.05352,-1.02106 z"
     fill="#6d6e71"
     id="path3562"
     style="stroke-width:0.676201" />
  <path
     d="m 239.12073,303.03655 c 0.0987,-0.63901 -0.21368,-1.21649 -0.69717,-1.29154 -0.48348,-0.0744 -0.95547,0.38272 -1.05352,1.02173 -0.0987,0.63834 0.21368,1.21649 0.69717,1.29087 0.48348,0.0744 0.95547,-0.38273 1.05352,-1.02106 z"
     fill="#6d6e71"
     id="path3564"
     style="stroke-width:0.676201" />
  <path
     d="m 231.94218,309.94799 c 0.0981,-0.63901 -0.21368,-1.21648 -0.69716,-1.29154 -0.48348,-0.0744 -0.95547,0.38273 -1.0542,1.02174 -0.0981,0.63833 0.21436,1.21648 0.69784,1.29087 0.48348,0.0744 0.9548,-0.38273 1.05352,-1.02107 z"
     fill="#6d6e71"
     id="path3566"
     style="stroke-width:0.676201" />
  <path
     d="M 391.67562,262.51456 333.3939,159.77265 c -0.73706,-1.4234 -1.74798,-2.68722 -2.97461,-3.71842 -1.22663,-1.03121 -2.6453,-1.81087 -4.17419,-2.29232 -1.52821,-0.48213 -3.13689,-0.65727 -4.7334,-0.51594 -1.59719,0.14132 -3.14974,0.59708 -4.56976,1.34023 l 2.48165,-1.28479 c 1.41935,-0.74382 2.9719,-1.19958 4.56841,-1.3409 1.59651,-0.142 3.20452,0.0325 4.73341,0.51391 1.52889,0.48078 2.94688,1.25909 4.17418,2.29029 1.22663,1.03053 2.23823,2.29367 2.97596,3.7164 l 58.28172,102.7419 c 3.90168,10.00777 -4.90245,14.26107 -4.90245,14.26107 l -4.73341,2.4749 c 11.69151,-6.09257 7.15421,-15.44442 7.15421,-15.44442 z"
     fill="#a5a7aa"
     id="path3568"
     style="stroke-width:0.676201" />
  <path
     d="m 313.43246,196.42948 c 0.15552,0.91963 0.29752,1.82574 0.44629,2.7589 0.6762,4.40883 1.27802,8.88527 1.77841,13.25353 0.0947,0.91287 0.18933,1.81898 0.27724,2.7048 0.50715,4.86188 0.86553,9.52767 1.04811,13.76068 0.0541,0.93316 0.0879,1.85279 0.11495,2.7048 0.0473,1.77165 0.0676,3.42158 0.0473,4.99036 l -12.84781,-0.0947 h -1.31183 c 0,0 -0.45982,-1.44031 -1.27802,-3.87463 -0.25696,-0.76411 -0.57477,-1.63641 -0.91287,-2.61014 -1.04135,-2.95499 -2.40051,-6.69438 -4.0572,-10.8192 -0.32458,-0.85878 -0.6762,-1.69051 -1.03459,-2.54928 -1.62288,-3.90168 -3.44862,-8.03326 -5.4096,-12.00932 -0.42601,-0.8182 -0.83173,-1.62964 -1.25774,-2.44785 -1.87104,-3.64337 -3.99229,-7.15217 -6.34952,-10.50139 -0.56801,-0.77087 -1.12926,-1.51469 -1.6905,-2.21118 -1.3071,-1.65263 -2.79,-3.15785 -4.42235,-4.48997 -1.43084,-1.11573 -2.98746,-2.06038 -4.63874,-2.81299 -0.83984,-0.40302 -1.70267,-0.75735 -2.58308,-1.06164 -4.48727,-1.50184 -9.18484,-2.28015 -13.91621,-2.30584 -0.96697,0 -1.90689,0 -2.83328,0 -3.12337,0.0778 -6.2393,0.33945 -9.33157,0.78439 -1.0143,0.13524 -1.96098,0.30429 -2.77242,0.43277 -0.60858,0.10143 -1.16983,0.20962 -1.6364,0.31105 l 3.86786,-55.61073 2.98881,1.47412 2.50194,1.23069 c 4.24654,2.13679 9.95367,5.06474 16.12738,8.40517 l 2.40051,1.31183 c 7.09335,3.89491 14.62622,8.23612 21.17184,12.52999 0.80468,0.50715 1.58231,1.04135 2.33966,1.56202 7.49906,5.07827 13.34143,9.9672 15.14689,13.76069 1.01633,2.22469 1.88119,4.51566 2.58984,6.85667 0.25696,0.84525 0.51392,1.71755 0.76411,2.62366 1.95693,7.22317 3.51692,14.54845 4.67255,21.9427 z"
     fill="#b0fbf6"
     id="path3570"
     style="stroke-width:0.676201" />
  <g
     style="mix-blend-mode:multiply"
     id="g3574"
     transform="matrix(0.6762005,0,0,0.6762005,5.1607484e-7,-1.0005687e-6)">
    <path
       d="m 450.01,349.79 h -2 c 0,0 -18.89,-59.9 -39,-76.15 -17.13,-13.8 -48.83,-8.42 -55.77,-6.88 l 0.62,-8.94 c 0,0 46.42,-9.32 59.23,0 12.43,9 33.32,73.4 36.92,91.97 z"
       fill="#64e5eb"
       id="path3572" />
  </g>
  <path
     d="m 316.98927,228.88711 c 0.0541,0.93315 0.0879,1.85279 0.11495,2.7048 -5.25407,-0.48687 -11.71179,0.38543 -15.40384,1.0143 -0.25696,-0.77763 -0.56801,-1.64993 -0.89935,-2.6169 3.64472,-0.60182 10.40673,-1.56202 16.18824,-1.1022 z"
     fill="#00c9df"
     id="path3576"
     style="stroke-width:0.676201" />
  <path
     d="m 315.65716,212.42162 c 0.0947,0.91964 0.19609,1.82575 0.284,2.70481 -7.20154,0.54096 -14.99136,2.74537 -19.19057,4.09101 -0.33134,-0.84525 -0.6762,-1.68374 -1.04135,-2.54251 4.2533,-1.35917 12.31361,-3.67854 19.94792,-4.25331 z"
     fill="#00c9df"
     id="path3578"
     style="stroke-width:0.676201" />
  <path
     d="m 313.43922,196.42948 c 0.14876,0.91963 0.29076,1.82574 0.43277,2.7589 -8.75004,-0.7303 -19.21762,3.51624 -23.59264,5.49751 -0.41248,-0.8182 -0.82496,-1.6364 -1.24421,-2.44108 4.4494,-2.05565 15.00489,-6.34953 24.40408,-5.81533 z"
     fill="#00c9df"
     id="path3580"
     style="stroke-width:0.676201" />
  <path
     d="m 308.75991,174.52059 c -10.67721,2.96175 -21.10422,12.26627 -26.07429,17.2093 -0.56125,-0.77763 -1.12249,-1.51469 -1.69726,-2.21794 5.25407,-5.19322 15.81633,-14.5045 27.00068,-17.58121 0.27048,0.83172 0.51391,1.68374 0.77087,2.58985 z"
     fill="#00c9df"
     id="path3582"
     style="stroke-width:0.676201" />
  <path
     d="m 290.24554,151.27957 c -10.19034,9.12195 -16.06652,24.14712 -18.31827,30.92942 -0.84322,-0.39829 -1.70808,-0.75059 -2.58985,-1.05488 2.33289,-7.01896 8.18203,-21.88185 18.56171,-31.43656 0.8182,0.51391 1.59583,1.03459 2.34641,1.56202 z"
     fill="#00c9df"
     id="path3584"
     style="stroke-width:0.676201" />
  <path
     d="m 266.75434,137.18079 c -6.50505,9.30452 -10.06863,31.98429 -11.32636,41.67424 -0.96021,0 -1.90013,0 -2.81976,0 1.22392,-9.58176 4.7875,-32.61315 11.73208,-42.97254 z"
     fill="#00c9df"
     id="path3586"
     style="stroke-width:0.676201" />
  <path
     d="m 315.26496,234.35757 c 0,0 -9.46681,-1.66345 -15.92452,2.98204 -6.45772,4.6455 -8.86499,3.31338 -9.95367,5.50427 -1.08869,2.19089 4.6793,4.79427 9.03404,4.42912 4.35473,-0.36515 -2.02861,17.45273 0.16228,21.92242 2.19089,4.46968 7.14068,-14.59241 8.25641,-14.72089 1.3524,-0.142 -0.9602,18.93362 1.91365,20.14402 3.84758,1.58231 4.19244,-18.29799 5.17293,-18.43323 0.98049,-0.13524 3.49596,17.38512 5.91,17.37159 4.38854,0 -0.67621,-18.93361 0.86553,-19.00799 0.77087,0 3.4892,8.99346 5.1256,9.35185 4.17216,0.92639 -0.21638,-16.22881 -3.82729,-22.51072 -3.61091,-6.2819 -6.73496,-7.03248 -6.73496,-7.03248 z"
     fill="#004177"
     id="path3588"
     style="stroke-width:0.676201" />
  <defs
     id="defs3617">
    <linearGradient
       id="paint0_linear_111_2"
       x1="139.718"
       y1="85.007896"
       x2="164.16299"
       y2="109.989"
       gradientUnits="userSpaceOnUse"
       gradientTransform="matrix(0.6762005,0,0,0.6762005,5.1607484e-7,-1.0005687e-6)">
      <stop
         stop-color="#FF3B2F"
         id="stop3590" />
      <stop
         offset="1"
         stop-color="#8E0225"
         id="stop3592" />
    </linearGradient>
    <linearGradient
       id="paint1_linear_111_2"
       x1="238.285"
       y1="57.298199"
       x2="226.38499"
       y2="159.907"
       gradientUnits="userSpaceOnUse"
       gradientTransform="matrix(0.6762005,0,0,0.6762005,5.1607484e-7,-1.0005687e-6)">
      <stop
         stop-color="#FF675B"
         id="stop3595" />
      <stop
         offset="0.96"
         stop-color="#FF3B2F"
         id="stop3597" />
      <stop
         offset="1"
         stop-color="#FF3B2F"
         id="stop3599" />
    </linearGradient>
    <linearGradient
       id="paint2_linear_111_2"
       x1="217.685"
       y1="137.688"
       x2="233.452"
       y2="205.293"
       gradientUnits="userSpaceOnUse"
       gradientTransform="matrix(0.6762005,0,0,0.6762005,5.1607484e-7,-1.0005687e-6)">
      <stop
         stop-color="#FFE5D5"
         id="stop3602" />
      <stop
         offset="1"
         stop-color="#FFBBAD"
         id="stop3604" />
    </linearGradient>
    <linearGradient
       id="paint3_linear_111_2"
       x1="292.909"
       y1="63.574902"
       x2="264.41"
       y2="96.024399"
       gradientUnits="userSpaceOnUse"
       gradientTransform="matrix(0.6762005,0,0,0.6762005,5.1607484e-7,-1.0005687e-6)">
      <stop
         stop-color="#FF3B2F"
         id="stop3607" />
      <stop
         offset="1"
         stop-color="#8E0225"
         id="stop3609" />
    </linearGradient>
    <linearGradient
       id="paint4_linear_111_2"
       x1="233.895"
       y1="196.978"
       x2="185.25101"
       y2="17.371901"
       gradientUnits="userSpaceOnUse"
       gradientTransform="matrix(0.6762005,0,0,0.6762005,5.1607484e-7,-1.0005687e-6)">
      <stop
         offset="0.19"
         stop-color="#64E5EB"
         stop-opacity="0"
         id="stop3612" />
      <stop
         offset="1"
         stop-color="#B0FBF6"
         stop-opacity="0.6"
         id="stop3614" />
    </linearGradient>
  </defs>
</svg>
